<?xml version="1.0" encoding="UTF-8"?>
<svg data-bbox="9.818 17.746 480.364 466.554" viewBox="0 0 500 500" xmlns:xlink="http://www.w3.org/1999/xlink" xmlns="http://www.w3.org/2000/svg" data-type="ugc">
    <g>
        <path fill="#f5f5f5" d="M490.182 345.631C490.182 422.216 382.649 484.3 250 484.3S9.818 422.216 9.818 345.631c0-76.585 107.533-138.669 240.182-138.669s240.182 62.084 240.182 138.669z"/>
        <path d="m181.383 429.797-9.114-5.258c-.737-.426-.738-1.116 0-1.541l65.522-37.831c.737-.426.926-1.329.483-2.056-2.08-3.416-2.885-7.094-2.336-10.826.87-5.932 5.222-11.436 12.253-15.495 7.591-4.382 17.631-6.795 28.269-6.795 10.639 0 20.679 2.414 28.269 6.795 8.016 4.628 12.432 10.93 12.432 17.744.001 6.816-4.414 13.117-12.432 17.747-7.584 4.378-17.616 6.79-28.249 6.79-4.382 0-8.667-.408-12.777-1.213-.836-.164-2.108.03-2.845.455l-10.202 5.89c-.737.426-2.008.618-2.839.431l-6.885-1.557c-.83-.188-2.101.005-2.839.431l-2.077 1.199c-.737.426-1.366 1.46-1.404 2.311l-.229 5.081c-.038.851-.667 1.885-1.405 2.311l-2.611 1.507c-.737.426-2.023.831-2.871.906l-6.084.535c-.848.074-2.138.471-2.882.886l-2.509 1.4c-.743.415-1.257 1.436-1.147 2.28l.157 1.206c.11.844-.399 1.874-1.136 2.299l-7.567 4.368c-.737.426-2.025.771-2.877.771H184.26c-.852 0-2.14-.345-2.877-.771zm105.127-65.125c-2.43 0-4.773.547-6.425 1.502-1.214.701-1.939 1.555-1.939 2.286 0 .73.725 1.584 1.939 2.285 1.652.955 3.994 1.502 6.425 1.502 2.431 0 4.773-.547 6.425-1.502 1.214-.701 1.939-1.555 1.939-2.285 0-.731-.725-1.585-1.939-2.286-1.651-.955-3.994-1.502-6.425-1.502z" fill="#e0e0e0"/>
        <path d="m90.352 403.725-65.91-38.053c-2.3-1.328-2.3-3.482 0-4.81l128.428-74.148c2.3-1.328 6.03-1.328 8.331 0l65.909 38.053c2.3 1.328 2.3 3.482 0 4.81L98.683 403.725c-2.301 1.328-6.031 1.328-8.331 0z" fill="#e0e0e0"/>
        <path d="M78.771 350.91v-22.283s-1.14-12.576-9.949-22.112c-8.809-9.536-16.7-6.293-19.269-1.767-2.569 4.526 3.276 13.118 7.009 17.952 4.493 5.82 22.209 32.845 22.209 44.948V350.91z" fill="#37474f"/>
        <path d="M78.77 347.389a.548.548 0 0 1-.539-.457c-4.018-24.301-22.512-40.978-22.698-41.143a.546.546 0 0 1 .726-.818c.189.169 18.968 17.09 23.051 41.782a.546.546 0 0 1-.54.636z" fill="#ffffff"/>
        <path d="M78.867 353.833s.729-2.215-2.524-2.775c-3.253-.561-4.503-3.268-4.808-7.808-.305-4.539-1.676-7.797-5.757-8.467-4.081-.67-7.366 1.384-10.018-.659-2.652-2.043-9.504-6.982-15.212-4.733-5.708 2.248-3.837 7.122-.868 10.284 2.969 3.162 3.83 4.226 1.558 9.366-2.272 5.14-.618 9.942 4.634 11.143 5.251 1.202 8.187.586 8.269 6.35.082 5.763.877 8.328 3.753 10.584 2.876 2.256 11.931 1.241 15.694 2.117 3.763.876 5.28 4.232 5.28 4.232v-29.634z" fill="#455a64"/>
        <path d="M78.867 377.568a.452.452 0 0 1-.428-.308c-9.559-28.383-31.193-39.847-31.411-39.959a.452.452 0 0 1 .414-.802c.221.114 22.171 11.729 31.851 40.474a.45.45 0 0 1-.426.595z" fill="#ffffff"/>
        <path d="M65.154 352.826a.496.496 0 0 1-.101-.011c-6.241-1.426-16.23-.655-16.33-.649a.45.45 0 1 1-.072-.899c.415-.034 10.227-.789 16.603.668a.45.45 0 0 1-.1.891z" fill="#ffffff"/>
        <path d="M70.243 366.468c-2.852 0-5.879-.186-6.069-.198a.451.451 0 0 1-.422-.479.442.442 0 0 1 .479-.422c.07.004 7.043.433 9.763.004a.452.452 0 0 1 .141.892c-.967.152-2.406.203-3.892.203z" fill="#ffffff"/>
        <path d="m62.224 349.492-.026-.001a.45.45 0 0 1-.425-.475c.277-5.006 1.938-9.323 2.009-9.505a.452.452 0 0 1 .841.327c-.017.043-1.679 4.369-1.949 9.226a.451.451 0 0 1-.45.428z" fill="#ffffff"/>
        <path d="m441.538 371.371-11.496-6.623s-7.132-20.995-5.326-40.329c2.244-24.028 13.59-32.473 20.258-29.793 6.669 2.681 5.288 12.254-1.776 25.092-5.601 10.181-5.615 33.634-1.66 51.653z" fill="#37474f"/>
        <path d="M436.013 368.736a.523.523 0 0 1-.496-.359c-7.402-22.664-7.711-54.494 6.296-68.843a.521.521 0 0 1 .746.728c-13.222 13.546-13.46 45.105-6.05 67.791a.522.522 0 0 1-.496.683z" fill="#ffffff"/>
        <path d="M462.187 383.291c1.19.683 3.643-.811 4.583-1.441 1.609-1.079 2.912-2.608 3.778-4.336 1.008-2.012 1.261-4.168.946-6.393-.164-1.154-.486-2.279-.809-3.4l-.949-3.3c-.312-1.085-.627-2.208-.484-3.328.289-2.257 2.292-3.838 4.113-5.201 2.014-1.508 4.111-3.499 4.099-6.216-.009-2.096-1.095-4.043-2.394-5.689-1.299-1.645-2.841-3.099-4.015-4.836-.845-1.25-1.505-2.719-1.367-4.222.085-.934.472-1.813.919-2.637.959-1.769 2.225-3.389 2.887-5.29.662-1.9.567-4.264-.916-5.624-1.217-1.116-3.027-1.272-4.675-1.163-1.525.101-3.014.789-4.348 1.531-4.313 2.399-6.775 7.507-11.352 9.353-1.766.712-3.7.868-5.54 1.354s-3.717 1.426-4.569 3.128c-1.68 3.356 1.438 7.492.257 11.054-1.045 3.152-4.109 4.359-5.829 7.2-.752 1.243-.926 2.679-.805 4.127.205 2.451.564 4.249 1.74 6.974.972 2.252 3.828 6.282 3.828 6.282.073.07 20.72 11.968 20.902 12.073z" fill="#455a64"/>
        <path d="M449.857 376.632a.464.464 0 0 1-.46-.407c-2.222-17.608 6.183-41.36 18.736-52.945a.464.464 0 1 1 .63.684c-12.358 11.407-20.632 34.799-18.444 52.146a.465.465 0 0 1-.403.519c-.02.001-.039.003-.059.003z" fill="#ffffff"/>
        <path d="M452.005 354.099a.459.459 0 0 1-.372-.187.464.464 0 0 1 .093-.651c6.927-5.197 17.513-4.292 17.96-4.251.256.024.444.25.421.506a.473.473 0 0 1-.506.421c-.106-.011-10.679-.912-17.317 4.068a.462.462 0 0 1-.279.094z" fill="#ffffff"/>
        <path d="M453.049 349.781a.466.466 0 0 1-.465-.447c-.314-8.066-6.408-12.94-6.469-12.988a.466.466 0 0 1 .574-.733c.265.207 6.494 5.176 6.825 13.684a.466.466 0 0 1-.447.483l-.018.001z" fill="#ffffff"/>
        <path d="M224.198 27.286 96.524 100.988c-2.556 1.485-4.637 5.088-4.637 8.046V396.96c0 2.958 2.081 4.163 4.637 2.678l127.674-73.702c2.556-1.485 4.638-5.088 4.638-8.046V29.964c-.001-2.958-2.082-4.163-4.638-2.678zm-2.046 264.073c0 2.532-1.777 4.145-3.98 5.411l-116.085 67.02c-2.191 1.266-3.98.243-3.98-2.301V135.946c0-2.544 1.789-5.624 3.98-6.902l116.085-67.007c2.203-1.278 3.98-.244 3.98 2.288v227.034z" fill="#27debf"/>
        <path d="M224.198 27.286 96.524 100.988c-2.556 1.485-4.637 5.088-4.637 8.046V396.96c0 2.958 2.081 4.163 4.637 2.678l127.674-73.702c2.556-1.485 4.638-5.088 4.638-8.046V29.964c-.001-2.958-2.082-4.163-4.638-2.678zm-2.046 264.073c0 2.532-1.777 4.145-3.98 5.411l-116.085 67.02c-2.191 1.266-3.98.243-3.98-2.301V135.946c0-2.544 1.789-5.624 3.98-6.902l116.085-67.007c2.203-1.278 3.98-.244 3.98 2.288v227.034z" opacity=".75" fill="#ffffff"/>
        <path d="M95.946 399.929c-2.575 1.184-6.322 1.081-8.713-.287l-5.311-3.069c-2.575-1.483-4.655-5.069-4.655-8.046V100.62c0-1.127.299-2.322.805-3.471a11.2 11.2 0 0 1 .552-1.115c.012 0 .012-.011.012-.011l14.61 8.437h.012c-.31.552-.586 1.127-.805 1.701-.356.965-.563 1.954-.563 2.874v287.93c-.002 2.723 1.769 3.964 4.056 2.964z" fill="#27debf"/>
        <path d="M95.946 399.929c-2.575 1.184-6.322 1.081-8.713-.287l-5.311-3.069c-2.575-1.483-4.655-5.069-4.655-8.046V100.62c0-1.127.299-2.322.805-3.471a11.2 11.2 0 0 1 .552-1.115c.012 0 .012-.011.012-.011l14.61 8.437h.012c-.31.552-.586 1.127-.805 1.701-.356.965-.563 1.954-.563 2.874v287.93c-.002 2.723 1.769 3.964 4.056 2.964z" opacity=".6" fill="#ffffff"/>
        <path d="M158.19 355.88a4.214 4.214 0 0 1-2.141-.554c-1.534-.885-2.379-2.714-2.379-5.147 0-4.815 3.393-10.691 7.562-13.097 2.108-1.219 4.114-1.401 5.648-.514 1.534.885 2.379 2.713 2.379 5.147 0 4.814-3.393 10.69-7.562 13.098-1.227.71-2.421 1.067-3.507 1.067zm6.546-18.935c-.922 0-1.956.317-3.039.941-3.914 2.26-7.097 7.774-7.097 12.293 0 2.088.68 3.63 1.915 4.343 1.232.712 2.909.529 4.718-.513 3.914-2.26 7.097-7.776 7.097-12.294 0-2.088-.68-3.63-1.915-4.343a3.32 3.32 0 0 0-1.679-.427z" fill="#455a64"/>
        <path d="M160.361 70.346c1.719-.992 3.113-.188 3.113 1.797 0 1.985-1.394 4.399-3.113 5.391s-3.113.188-3.113-1.797c0-1.985 1.394-4.399 3.113-5.391z" fill="#455a64"/>
        <path d="m148.345 89.278 24.031-13.875c1.434-.828 2.596-.24 2.596 1.313s-1.162 3.483-2.596 4.311l-24.032 13.875c-1.434.828-2.596.24-2.596-1.313.001-1.553 1.164-3.483 2.597-4.311z" fill="#455a64"/>
        <path d="M222.152 291.359c0 2.532-1.777 4.145-3.98 5.411l-116.085 67.02c-2.191 1.266-3.98.243-3.98-2.301V135.946c0-2.544 1.789-5.624 3.98-6.902l116.085-67.007c2.203-1.278 3.98-.244 3.98 2.288v227.034z" fill="#455a64"/>
        <path d="M228.79 29.227c-.333-2.414-2.265-3.288-4.586-1.943L96.521 100.988c-1.276.736-2.437 2.012-3.276 3.471l-14.61-8.437c.85-1.46 2-2.713 3.287-3.449l127.66-73.715c2.552-1.483 6.713-1.483 9.288 0l5.333 3.057c2.345 1.369 4.288 4.507 4.587 7.312z" fill="#27debf"/>
        <path d="M228.79 29.227c-.333-2.414-2.265-3.288-4.586-1.943L96.521 100.988c-1.276.736-2.437 2.012-3.276 3.471l-14.61-8.437c.85-1.46 2-2.713 3.287-3.449l127.66-73.715c2.552-1.483 6.713-1.483 9.288 0l5.333 3.057c2.345 1.369 4.288 4.507 4.587 7.312z" opacity=".9" fill="#ffffff"/>
        <path d="M121.926 134.357c-.026-.03-.04-.095-.04-.196v-.958l-1.499.867c-.082.047-.123.003-.123-.133v-.344c0-.078.005-.141.014-.189a1.84 1.84 0 0 1 .052-.185l1.594-4.352a.92.92 0 0 1 .076-.169.277.277 0 0 1 .104-.095l.208-.119c.063-.038.108-.039.137-.004.028.034.042.105.042.211v3.348l.331-.191c.063-.036.107-.039.132-.007.025.035.038.104.038.21v.228a.63.63 0 0 1-.038.24.3.3 0 0 1-.132.144l-.331.192v.958a.6.6 0 0 1-.04.242.334.334 0 0 1-.139.148l-.251.144c-.064.036-.108.04-.135.01zm.059-2.028v-2.387l-1.088 3.016 1.088-.629z" fill="#fafafa"/>
        <path d="M123.707 132.748c-.294-.346-.44-.999-.44-1.958 0-.954.148-1.775.442-2.463.295-.689.709-1.187 1.242-1.494.215-.125.415-.202.601-.229.186-.03.34-.007.464.068.028.016.042.045.042.085a.44.44 0 0 1-.019.111l-.137.5c-.019.061-.038.099-.057.11-.01.005-.031.003-.062-.007-.215-.089-.47-.049-.766.122-.36.208-.642.551-.848 1.031-.205.482-.307 1.088-.307 1.822 0 .741.099 1.234.299 1.476.198.244.471.266.818.066.126-.073.249-.161.369-.268.12-.106.218-.214.294-.325v-1.556l-.624.36c-.063.038-.107.039-.132.005-.026-.033-.038-.102-.038-.209v-.219c0-.106.013-.188.038-.244a.312.312 0 0 1 .132-.141l.998-.576c.069-.04.119-.038.149.003.031.041.045.124.045.247v2.22c0 .084-.005.15-.015.197a.46.46 0 0 1-.061.149c-.29.493-.685.883-1.183 1.171-.537.311-.951.293-1.244-.054z" fill="#fafafa"/>
        <path d="M210.902 76.039c-.169-.248-.379-.315-.594-.191l-5.975 3.436c-.388.223-.691 1.02-.691 1.814v3.358c0 .443.092.823.26 1.071.072.106.153.18.241.22a.373.373 0 0 0 .353-.028l5.975-3.436c.387-.224.691-1.02.691-1.816v-3.358c.001-.442-.092-.822-.26-1.07zm-6.836 9.056c-.061-.089-.096-.269-.096-.491v-3.358c0-.585.241-1.218.526-1.382l5.975-3.436c.07-.04.135-.048.189-.024.03.013.055.036.077.068.061.09.096.269.096.49v3.358c0 .587-.241 1.22-.526 1.384l-5.975 3.436c-.108.063-.204.047-.266-.045z" fill="#fafafa"/>
        <path d="M210.193 77.447v2.861c0 .531-.284 1.021-.744 1.285l-4.864 2.788a.122.122 0 0 1-.182-.105v-2.955c0-.427.187-.911.39-1.028l5.176-2.975a.15.15 0 0 1 .224.129z" fill="#fafafa"/>
        <path d="M211.386 77.003c.165-.098.3.381.3 1.071v.624c0 .689-.136 1.34-.303 1.453l-.303.205.007-3.176.299-.177z" fill="#fafafa"/>
        <path d="M132.288 127.105c0 .74-.389 1.565-.87 1.842-.481.277-.87-.097-.87-.837s.389-1.565.87-1.842c.48-.278.87.097.87.837z" fill="#fafafa"/>
        <path d="M131.417 124.076c-.877.506-1.639 1.703-2.024 3.037-.078.271-.038.529.092.611l.001.001c.165.103.409-.111.506-.452.27-.945.808-1.789 1.424-2.145.618-.357 1.155-.132 1.424.5.098.23.342.163.508-.133l.001-.003c.13-.233.169-.535.091-.715-.384-.89-1.146-1.207-2.023-.701z" fill="#fafafa"/>
        <path d="M131.417 121.931c-1.303.752-2.45 2.464-3.107 4.422-.097.288-.069.578.072.668l.003.002c.16.102.39-.097.499-.425.532-1.601 1.468-3 2.534-3.615 1.065-.615 2.005-.298 2.537.688.109.201.339.135.498-.151.141-.251.169-.573.073-.75-.652-1.204-1.803-1.593-3.109-.839z" fill="#fafafa"/>
        <path d="M154.605 110.583c-.027-.038-.037-.09-.032-.159a.469.469 0 0 1 .061-.194l1.249-2.237c.031-.053.062-.105.095-.157a.344.344 0 0 1 .106-.111l.449-.259c.042-.024.079-.022.11.008.03.029.045.076.045.142v5.726c0 .064-.015.13-.045.194a.283.283 0 0 1-.11.134l-.467.269c-.042.024-.078.022-.109-.008-.03-.029-.047-.076-.047-.141v-4.378l-.817 1.456c-.034.061-.072.099-.113.113-.04.015-.075.004-.106-.032l-.269-.366z" fill="#fafafa"/>
        <path d="M157.517 108.901c-.027-.036-.037-.09-.031-.159a.462.462 0 0 1 .06-.194l1.25-2.236c.03-.054.062-.106.095-.158a.326.326 0 0 1 .106-.109l.448-.26c.042-.024.079-.022.11.008.03.03.046.077.046.141v5.726c0 .066-.015.13-.046.195a.294.294 0 0 1-.11.134l-.466.269c-.043.025-.079.022-.11-.008-.03-.029-.046-.076-.046-.141v-4.378l-.817 1.456c-.035.061-.072.099-.113.113-.041.015-.076.004-.106-.032l-.27-.367z" fill="#fafafa"/>
        <path d="M161.339 106.447c.042-.025.079-.022.11.007.03.03.046.077.046.142v.869a.46.46 0 0 1-.046.195.294.294 0 0 1-.11.134l-.535.309c-.042.024-.079.022-.11-.008-.03-.029-.046-.077-.046-.141v-.869a.46.46 0 0 1 .046-.195.29.29 0 0 1 .11-.133l.535-.31zm0 3.102c.042-.025.079-.022.11.007.03.03.046.077.046.142v.869a.46.46 0 0 1-.046.195.294.294 0 0 1-.11.134l-.535.309c-.042.024-.079.022-.11-.008-.03-.029-.046-.077-.046-.141v-.869a.46.46 0 0 1 .046-.195.29.29 0 0 1 .11-.133l.535-.31z" fill="#fafafa"/>
        <path d="M164.414 109.121c-.042.024-.079.022-.11-.008-.03-.029-.046-.077-.046-.141v-1.073l-1.785 1.03c-.042.024-.079.022-.109-.007-.031-.029-.047-.077-.047-.142v-.629c0-.083.013-.162.037-.239.026-.077.055-.16.089-.25l1.762-4.403c.077-.192.156-.312.235-.357l.438-.253c.042-.024.079-.022.11.008.03.029.045.076.045.142v3.545l.496-.286c.042-.024.079-.022.109.008.031.029.046.078.046.142v.63c0 .064-.015.13-.046.195a.283.283 0 0 1-.109.133l-.496.286v1.073c0 .064-.015.13-.045.194a.288.288 0 0 1-.11.134l-.464.268zm-.156-2.33v-1.897l-.985 2.465.985-.568z" fill="#fafafa"/>
        <path d="M166.727 101.821c0-.065.016-.129.047-.195a.286.286 0 0 1 .109-.134l2.164-1.249c.043-.025.079-.022.11.007.03.03.047.076.047.142v.63c0 .064-.016.13-.047.194a.29.29 0 0 1-.11.135l-1.617.933-.063 1.172c.103-.125.206-.223.308-.293.101-.07.185-.126.25-.163.215-.124.415-.195.598-.212a.68.68 0 0 1 .479.118c.134.097.24.25.316.46.077.209.115.479.115.811 0 .378-.039.724-.118 1.039a3.651 3.651 0 0 1-.323.851 2.817 2.817 0 0 1-1.067 1.117c-.266.153-.492.237-.682.253a.687.687 0 0 1-.473-.113.807.807 0 0 1-.281-.396 1.894 1.894 0 0 1-.106-.599.37.37 0 0 1 .042-.197.315.315 0 0 1 .113-.132l.466-.268c.038-.022.073-.023.103-.003.031.022.052.061.064.118a.55.55 0 0 0 .109.269.303.303 0 0 0 .172.105.418.418 0 0 0 .219-.024 1.363 1.363 0 0 0 .782-.7c.134-.261.202-.55.202-.869 0-.266-.068-.45-.202-.549-.134-.1-.31-.09-.529.03a1.35 1.35 0 0 0-.437.386 5.05 5.05 0 0 1-.115.159.422.422 0 0 1-.132.116l-.53.305c-.042.024-.079.022-.109-.007-.031-.029-.046-.077-.046-.142l.172-3.105z" fill="#fafafa"/>
        <path fill="#fafafa" d="M107.598 142.712v-1.847l1.6-.924v1.847l-1.6.924z"/>
        <path fill="#fafafa" d="M109.998 141.327v-3.695l1.6-.923v3.694l-1.6.924z"/>
        <path fill="#fafafa" d="M112.398 139.941V134.4l1.6-.924v5.542l-1.6.923z"/>
        <path fill="#fafafa" d="M114.798 138.555v-7.39l1.6-.923v7.389l-1.6.924z"/>
        <path d="M371.971 90.875c.394-.818.358-1.695.036-2.053-.088-.192-3.169-2.451-3.281-2.533-.128-.093-.288-.118-.477-.052l-3.426 1.212-1.171-2.976a.831.831 0 0 0-.141-.24v-.001l-.006-.007-.021-.024c-.27-.289-3.16-2.429-3.241-2.496-.44-.365-1.195.217-1.487 1.296l-2.188 8.088c-.138.51-.405.963-.713 1.21l-4.892 3.919c-.777.622-1.087 2.272-.525 2.791l3.54 3.269c.223.206.325.63.272 1.134l-.836 7.984c-.063.599.086 1.014.333 1.182.243.165 2.57 1.962 3.121 2.388a.543.543 0 0 0 .119.092c.273.148.65.017.998-.465l4.375-6.068c.276-.383.606-.573.882-.509l4.376 1.015c.695.161 1.507-1.216 1.374-2.331l-.835-7.019c-.053-.443.049-.984.272-1.448l3.542-7.358z" fill="#27debf"/>
        <path d="M371.971 90.875c.394-.818.358-1.695.036-2.053-.088-.192-3.169-2.451-3.281-2.533-.128-.093-.288-.118-.477-.052l-3.426 1.212-1.171-2.976a.831.831 0 0 0-.141-.24v-.001l-.006-.007-.021-.024c-.27-.289-3.16-2.429-3.241-2.496-.44-.365-1.195.217-1.487 1.296l-2.188 8.088c-.138.51-.405.963-.713 1.21l-4.892 3.919c-.777.622-1.087 2.272-.525 2.791l3.54 3.269c.223.206.325.63.272 1.134l-.836 7.984c-.063.599.086 1.014.333 1.182.243.165 2.57 1.962 3.121 2.388a.543.543 0 0 0 .119.092c.273.148.65.017.998-.465l4.375-6.068c.276-.383.606-.573.882-.509l4.376 1.015c.695.161 1.507-1.216 1.374-2.331l-.835-7.019c-.053-.443.049-.984.272-1.448l3.542-7.358z" opacity=".5" fill="#ffffff"/>
        <path d="M363.392 84.12c-.447-.281-1.152.293-1.435 1.334l-2.19 8.086a2.87 2.87 0 0 1-.378.838l-3.243-2.429a2.53 2.53 0 0 0 .422-.863l2.19-8.086c.293-1.081 1.048-1.661 1.485-1.295.074.065 2.573 1.911 3.149 2.415z" fill="#27debf"/>
        <path d="M363.392 84.12c-.447-.281-1.152.293-1.435 1.334l-2.19 8.086a2.87 2.87 0 0 1-.378.838l-3.243-2.429a2.53 2.53 0 0 0 .422-.863l2.19-8.086c.293-1.081 1.048-1.661 1.485-1.295.074.065 2.573 1.911 3.149 2.415z" opacity=".1"/>
        <path d="m363.653 84.472 2.188 5.562c.138.351.405.495.713.386l4.892-1.73c.777-.275 1.087 1.016.525 2.185l-3.54 7.356c-.223.464-.325 1.006-.272 1.448l.836 7.019c.133 1.115-.68 2.492-1.375 2.331l-4.376-1.015c-.276-.064-.606.126-.882.509l-4.375 6.068c-.695.964-1.507.524-1.375-.744l.836-7.984c.053-.504-.049-.928-.272-1.134l-3.54-3.269c-.562-.519-.252-2.169.525-2.791l4.892-3.919c.309-.247.575-.7.713-1.21l2.188-8.088c.348-1.283 1.352-1.863 1.699-.98z" fill="#27debf"/>
        <path d="m357.447 105.422.005-.005c-.03-.301-.124-.55-.278-.69l-3.536-3.264c-.268-.248-.338-.758-.248-1.29l-3.201-2.421c-.078.518-.013 1.011.251 1.255l3.54 3.269c.115.107.197.273.243.477l.001.001c.025.123.04.267.04.417 0 .08 0 .16-.01.24l-.839 7.982c-.06.603.089 1.012.333 1.182.248.166 2.627 2.001 3.144 2.403-.214-.18-.338-.575-.278-1.132l.834-7.983c.005-.063.01-.125.01-.183v-.017c-.006-.155-.011-.241-.011-.241z" fill="#27debf"/>
        <path d="m357.447 105.422.005-.005c-.03-.301-.124-.55-.278-.69l-3.536-3.264c-.268-.248-.338-.758-.248-1.29l-3.201-2.421c-.078.518-.013 1.011.251 1.255l3.54 3.269c.115.107.197.273.243.477l.001.001c.025.123.04.267.04.417 0 .08 0 .16-.01.24l-.839 7.982c-.06.603.089 1.012.333 1.182.248.166 2.627 2.001 3.144 2.403-.214-.18-.338-.575-.278-1.132l.834-7.983c.005-.063.01-.125.01-.183v-.017c-.006-.155-.011-.241-.011-.241z" opacity=".1"/>
        <path d="M334.528 127.162c.394-.818.359-1.695.036-2.053-.088-.192-3.169-2.451-3.281-2.533-.128-.093-.288-.118-.477-.052l-3.426 1.211-1.171-2.976a.831.831 0 0 0-.141-.24v-.001l-.006-.007-.021-.024c-.27-.289-3.16-2.429-3.241-2.496-.44-.365-1.195.217-1.487 1.296l-2.188 8.088c-.138.51-.405.963-.713 1.21l-4.892 3.919c-.777.622-1.087 2.272-.525 2.791l3.54 3.269c.223.206.325.63.272 1.134l-.836 7.984c-.063.599.086 1.014.333 1.182.243.166 2.57 1.962 3.121 2.388a.543.543 0 0 0 .119.092h.001c.273.148.65.017.998-.465l4.375-6.068c.276-.383.606-.573.882-.509l4.375 1.015c.695.161 1.507-1.216 1.375-2.331l-.836-7.019c-.053-.443.049-.984.272-1.448l3.542-7.357z" fill="#27debf"/>
        <path d="M334.528 127.162c.394-.818.359-1.695.036-2.053-.088-.192-3.169-2.451-3.281-2.533-.128-.093-.288-.118-.477-.052l-3.426 1.211-1.171-2.976a.831.831 0 0 0-.141-.24v-.001l-.006-.007-.021-.024c-.27-.289-3.16-2.429-3.241-2.496-.44-.365-1.195.217-1.487 1.296l-2.188 8.088c-.138.51-.405.963-.713 1.21l-4.892 3.919c-.777.622-1.087 2.272-.525 2.791l3.54 3.269c.223.206.325.63.272 1.134l-.836 7.984c-.063.599.086 1.014.333 1.182.243.166 2.57 1.962 3.121 2.388a.543.543 0 0 0 .119.092h.001c.273.148.65.017.998-.465l4.375-6.068c.276-.383.606-.573.882-.509l4.375 1.015c.695.161 1.507-1.216 1.375-2.331l-.836-7.019c-.053-.443.049-.984.272-1.448l3.542-7.357z" opacity=".5" fill="#ffffff"/>
        <path d="M325.949 120.407c-.447-.281-1.152.293-1.435 1.334l-2.19 8.086a2.87 2.87 0 0 1-.378.838l-3.243-2.429a2.53 2.53 0 0 0 .422-.863l2.19-8.085c.293-1.081 1.048-1.661 1.485-1.295.075.064 2.573 1.91 3.149 2.414z" fill="#27debf"/>
        <path d="M325.949 120.407c-.447-.281-1.152.293-1.435 1.334l-2.19 8.086a2.87 2.87 0 0 1-.378.838l-3.243-2.429a2.53 2.53 0 0 0 .422-.863l2.19-8.085c.293-1.081 1.048-1.661 1.485-1.295.075.064 2.573 1.91 3.149 2.414z" opacity=".1"/>
        <path d="m326.21 120.759 2.188 5.562c.138.351.405.495.713.386l4.892-1.73c.777-.275 1.087 1.016.525 2.185l-3.54 7.356c-.223.464-.325 1.006-.272 1.448l.836 7.019c.133 1.115-.68 2.492-1.375 2.331l-4.375-1.015c-.276-.064-.606.126-.882.509l-4.375 6.068c-.695.964-1.507.524-1.375-.744l.836-7.984c.053-.504-.049-.928-.272-1.134l-3.54-3.269c-.562-.519-.252-2.169.525-2.791l4.892-3.919c.309-.247.575-.699.713-1.21l2.188-8.088c.347-1.283 1.351-1.863 1.698-.98z" fill="#27debf"/>
        <path d="m320.004 141.709.005-.005c-.03-.301-.124-.55-.278-.69l-3.536-3.264c-.268-.248-.338-.758-.248-1.29l-3.201-2.421c-.078.518-.013 1.011.251 1.255l3.54 3.269c.116.107.197.273.243.477l.001.001c.025.123.04.267.04.417 0 .08 0 .161-.01.24l-.839 7.982c-.06.603.089 1.012.333 1.182.248.166 2.627 2.001 3.144 2.403-.214-.18-.338-.575-.278-1.132l.834-7.983c.005-.063.01-.125.01-.183v-.017c-.006-.155-.011-.241-.011-.241z" fill="#27debf"/>
        <path d="m320.004 141.709.005-.005c-.03-.301-.124-.55-.278-.69l-3.536-3.264c-.268-.248-.338-.758-.248-1.29l-3.201-2.421c-.078.518-.013 1.011.251 1.255l3.54 3.269c.116.107.197.273.243.477l.001.001c.025.123.04.267.04.417 0 .08 0 .161-.01.24l-.839 7.982c-.06.603.089 1.012.333 1.182.248.166 2.627 2.001 3.144 2.403-.214-.18-.338-.575-.278-1.132l.834-7.983c.005-.063.01-.125.01-.183v-.017c-.006-.155-.011-.241-.011-.241z" opacity=".1"/>
        <path d="M307.361 180.191c.394-.818.359-1.695.036-2.053-.088-.192-3.169-2.451-3.281-2.533-.128-.093-.288-.118-.477-.052l-3.426 1.212-1.171-2.976a.831.831 0 0 0-.141-.24v-.001l-.006-.007-.021-.024c-.27-.289-3.16-2.429-3.241-2.496-.44-.365-1.195.217-1.487 1.296l-2.188 8.088c-.138.51-.405.962-.713 1.21l-4.892 3.919c-.777.623-1.087 2.272-.525 2.791l3.54 3.269c.223.206.325.63.272 1.134l-.836 7.984c-.063.599.086 1.014.333 1.182.243.166 2.57 1.962 3.121 2.388a.575.575 0 0 0 .119.092c.273.148.65.017.998-.465l4.375-6.068c.276-.383.606-.573.882-.509l4.376 1.015c.695.161 1.507-1.216 1.375-2.331l-.836-7.019c-.053-.443.049-.984.272-1.448l3.542-7.358z" fill="#27debf"/>
        <path d="M307.361 180.191c.394-.818.359-1.695.036-2.053-.088-.192-3.169-2.451-3.281-2.533-.128-.093-.288-.118-.477-.052l-3.426 1.212-1.171-2.976a.831.831 0 0 0-.141-.24v-.001l-.006-.007-.021-.024c-.27-.289-3.16-2.429-3.241-2.496-.44-.365-1.195.217-1.487 1.296l-2.188 8.088c-.138.51-.405.962-.713 1.21l-4.892 3.919c-.777.623-1.087 2.272-.525 2.791l3.54 3.269c.223.206.325.63.272 1.134l-.836 7.984c-.063.599.086 1.014.333 1.182.243.166 2.57 1.962 3.121 2.388a.575.575 0 0 0 .119.092c.273.148.65.017.998-.465l4.375-6.068c.276-.383.606-.573.882-.509l4.376 1.015c.695.161 1.507-1.216 1.375-2.331l-.836-7.019c-.053-.443.049-.984.272-1.448l3.542-7.358z" opacity=".5" fill="#ffffff"/>
        <path d="M298.782 173.436c-.447-.281-1.152.293-1.435 1.334l-2.19 8.085a2.87 2.87 0 0 1-.378.838l-3.243-2.429c.179-.242.333-.527.422-.863l2.19-8.085c.293-1.081 1.048-1.661 1.485-1.295.075.064 2.573 1.911 3.149 2.415z" fill="#27debf"/>
        <path d="M298.782 173.436c-.447-.281-1.152.293-1.435 1.334l-2.19 8.085a2.87 2.87 0 0 1-.378.838l-3.243-2.429c.179-.242.333-.527.422-.863l2.19-8.085c.293-1.081 1.048-1.661 1.485-1.295.075.064 2.573 1.911 3.149 2.415z" opacity=".1"/>
        <path d="m299.043 173.788 2.188 5.562c.138.351.405.495.713.386l4.892-1.73c.777-.275 1.087 1.016.525 2.185l-3.54 7.356c-.223.464-.325 1.005-.272 1.448l.836 7.019c.133 1.115-.68 2.492-1.375 2.331l-4.375-1.015c-.276-.064-.606.126-.882.509l-4.376 6.068c-.695.964-1.507.524-1.375-.744l.836-7.984c.053-.504-.049-.928-.272-1.134l-3.54-3.269c-.562-.519-.252-2.168.525-2.791l4.892-3.919c.309-.247.575-.7.713-1.21l2.188-8.088c.348-1.283 1.352-1.863 1.699-.98z" fill="#27debf"/>
        <path d="m292.837 194.738.005-.005c-.03-.301-.124-.55-.278-.69l-3.536-3.264c-.268-.248-.338-.758-.248-1.29l-3.201-2.421c-.078.518-.013 1.011.251 1.255l3.54 3.269c.115.107.197.273.243.477l.001.001c.025.123.04.267.04.416 0 .08 0 .161-.01.24l-.839 7.982c-.06.603.089 1.012.333 1.182.248.165 2.627 2.001 3.144 2.403-.214-.18-.338-.575-.278-1.132l.834-7.983c.005-.063.01-.125.01-.183v-.017c-.006-.154-.011-.24-.011-.24z" fill="#27debf"/>
        <path d="m292.837 194.738.005-.005c-.03-.301-.124-.55-.278-.69l-3.536-3.264c-.268-.248-.338-.758-.248-1.29l-3.201-2.421c-.078.518-.013 1.011.251 1.255l3.54 3.269c.115.107.197.273.243.477l.001.001c.025.123.04.267.04.416 0 .08 0 .161-.01.24l-.839 7.982c-.06.603.089 1.012.333 1.182.248.165 2.627 2.001 3.144 2.403-.214-.18-.338-.575-.278-1.132l.834-7.983c.005-.063.01-.125.01-.183v-.017c-.006-.154-.011-.24-.011-.24z" opacity=".1"/>
        <path d="M297.825 237.091c.394-.818.359-1.695.036-2.053-.088-.192-3.169-2.451-3.281-2.533-.128-.093-.288-.118-.477-.052l-3.426 1.212-1.171-2.976a.853.853 0 0 0-.14-.24v-.001l-.006-.007-.021-.024c-.27-.289-3.16-2.429-3.241-2.496-.44-.365-1.195.217-1.487 1.296l-2.188 8.088c-.138.51-.405.963-.713 1.21l-4.892 3.919c-.777.622-1.087 2.272-.525 2.791l3.54 3.269c.223.206.325.63.272 1.134l-.836 7.984c-.063.599.086 1.014.333 1.182.243.165 2.57 1.962 3.121 2.388a.575.575 0 0 0 .119.092c.273.148.65.017.998-.465l4.375-6.068c.276-.383.606-.573.882-.509l4.376 1.015c.695.161 1.507-1.216 1.375-2.331l-.836-7.019c-.053-.443.049-.984.272-1.448l3.541-7.358z" fill="#27debf"/>
        <path d="M297.825 237.091c.394-.818.359-1.695.036-2.053-.088-.192-3.169-2.451-3.281-2.533-.128-.093-.288-.118-.477-.052l-3.426 1.212-1.171-2.976a.853.853 0 0 0-.14-.24v-.001l-.006-.007-.021-.024c-.27-.289-3.16-2.429-3.241-2.496-.44-.365-1.195.217-1.487 1.296l-2.188 8.088c-.138.51-.405.963-.713 1.21l-4.892 3.919c-.777.622-1.087 2.272-.525 2.791l3.54 3.269c.223.206.325.63.272 1.134l-.836 7.984c-.063.599.086 1.014.333 1.182.243.165 2.57 1.962 3.121 2.388a.575.575 0 0 0 .119.092c.273.148.65.017.998-.465l4.375-6.068c.276-.383.606-.573.882-.509l4.376 1.015c.695.161 1.507-1.216 1.375-2.331l-.836-7.019c-.053-.443.049-.984.272-1.448l3.541-7.358z" opacity=".5" fill="#ffffff"/>
        <path d="M289.246 230.336c-.447-.281-1.152.293-1.435 1.334l-2.19 8.086a2.87 2.87 0 0 1-.378.838L282 238.165c.179-.242.333-.527.422-.863l2.19-8.086c.293-1.081 1.048-1.661 1.485-1.295.075.065 2.573 1.911 3.149 2.415z" fill="#27debf"/>
        <path d="M289.246 230.336c-.447-.281-1.152.293-1.435 1.334l-2.19 8.086a2.87 2.87 0 0 1-.378.838L282 238.165c.179-.242.333-.527.422-.863l2.19-8.086c.293-1.081 1.048-1.661 1.485-1.295.075.065 2.573 1.911 3.149 2.415z" opacity=".1"/>
        <path d="m289.508 230.688 2.188 5.562c.138.351.405.495.713.386l4.892-1.73c.777-.275 1.087 1.016.525 2.184l-3.54 7.356c-.223.464-.325 1.005-.272 1.448l.836 7.019c.133 1.115-.679 2.492-1.375 2.331l-4.376-1.015c-.276-.064-.606.126-.882.509l-4.375 6.068c-.695.964-1.507.524-1.375-.744l.836-7.984c.053-.504-.049-.928-.272-1.134l-3.54-3.269c-.562-.519-.252-2.169.525-2.791l4.892-3.919c.309-.247.575-.699.713-1.21l2.188-8.088c.347-1.282 1.351-1.862 1.699-.979z" fill="#27debf"/>
        <path d="m283.301 251.638.005-.005c-.03-.301-.124-.55-.278-.69l-3.536-3.264c-.268-.248-.338-.758-.248-1.29l-3.201-2.421c-.078.518-.013 1.011.251 1.255l3.54 3.269c.115.107.197.273.243.477l.001.001c.025.123.04.267.04.417 0 .08 0 .161-.01.24l-.839 7.982c-.06.603.089 1.012.333 1.182.248.165 2.627 2.001 3.144 2.403-.214-.18-.338-.575-.278-1.132l.834-7.983c.005-.063.01-.125.01-.183v-.017a13.87 13.87 0 0 0-.011-.241z" fill="#27debf"/>
        <path d="m283.301 251.638.005-.005c-.03-.301-.124-.55-.278-.69l-3.536-3.264c-.268-.248-.338-.758-.248-1.29l-3.201-2.421c-.078.518-.013 1.011.251 1.255l3.54 3.269c.115.107.197.273.243.477l.001.001c.025.123.04.267.04.417 0 .08 0 .161-.01.24l-.839 7.982c-.06.603.089 1.012.333 1.182.248.165 2.627 2.001 3.144 2.403-.214-.18-.338-.575-.278-1.132l.834-7.983c.005-.063.01-.125.01-.183v-.017a13.87 13.87 0 0 0-.011-.241z" opacity=".1"/>
        <path d="M308.828 280.663c.394-.818.358-1.695.036-2.053-.088-.192-3.169-2.451-3.281-2.533-.128-.093-.288-.118-.477-.052l-3.426 1.212-1.171-2.976a.831.831 0 0 0-.141-.24v-.001l-.006-.007-.021-.024c-.27-.289-3.16-2.429-3.241-2.496-.44-.365-1.195.217-1.487 1.296l-2.188 8.088c-.138.51-.405.962-.713 1.21l-4.892 3.919c-.777.622-1.087 2.272-.525 2.791l3.54 3.269c.223.206.325.63.273 1.134l-.836 7.984c-.063.599.086 1.014.333 1.182.243.165 2.57 1.962 3.121 2.388a.543.543 0 0 0 .119.092c.273.148.65.017.998-.465l4.375-6.068c.276-.383.606-.573.882-.509l4.375 1.015c.695.161 1.507-1.216 1.375-2.331l-.836-7.019c-.053-.443.049-.984.272-1.448l3.542-7.358z" fill="#27debf"/>
        <path d="M308.828 280.663c.394-.818.358-1.695.036-2.053-.088-.192-3.169-2.451-3.281-2.533-.128-.093-.288-.118-.477-.052l-3.426 1.212-1.171-2.976a.831.831 0 0 0-.141-.24v-.001l-.006-.007-.021-.024c-.27-.289-3.16-2.429-3.241-2.496-.44-.365-1.195.217-1.487 1.296l-2.188 8.088c-.138.51-.405.962-.713 1.21l-4.892 3.919c-.777.622-1.087 2.272-.525 2.791l3.54 3.269c.223.206.325.63.273 1.134l-.836 7.984c-.063.599.086 1.014.333 1.182.243.165 2.57 1.962 3.121 2.388a.543.543 0 0 0 .119.092c.273.148.65.017.998-.465l4.375-6.068c.276-.383.606-.573.882-.509l4.375 1.015c.695.161 1.507-1.216 1.375-2.331l-.836-7.019c-.053-.443.049-.984.272-1.448l3.542-7.358z" opacity=".5" fill="#ffffff"/>
        <path d="M300.248 273.908c-.447-.281-1.152.293-1.435 1.334l-2.19 8.086a2.87 2.87 0 0 1-.378.838l-3.243-2.429c.179-.242.333-.527.422-.863l2.19-8.086c.293-1.081 1.048-1.661 1.485-1.295.075.064 2.573 1.91 3.149 2.415z" fill="#27debf"/>
        <path d="M300.248 273.908c-.447-.281-1.152.293-1.435 1.334l-2.19 8.086a2.87 2.87 0 0 1-.378.838l-3.243-2.429c.179-.242.333-.527.422-.863l2.19-8.086c.293-1.081 1.048-1.661 1.485-1.295.075.064 2.573 1.91 3.149 2.415z" opacity=".1"/>
        <path d="m300.51 274.26 2.188 5.562c.138.351.405.495.713.386l4.892-1.73c.777-.275 1.087 1.016.525 2.185l-3.54 7.356c-.223.464-.325 1.005-.273 1.448l.836 7.019c.133 1.115-.68 2.492-1.375 2.331l-4.375-1.015c-.276-.064-.606.126-.882.509l-4.376 6.068c-.695.964-1.507.524-1.374-.744l.836-7.984c.053-.504-.049-.928-.272-1.134l-3.54-3.269c-.562-.519-.252-2.168.525-2.791l4.892-3.919c.309-.247.575-.699.713-1.21l2.188-8.088c.347-1.284 1.351-1.863 1.699-.98z" fill="#27debf"/>
        <path d="m294.303 295.209.005-.005c-.03-.301-.124-.55-.278-.69l-3.536-3.264c-.268-.248-.338-.758-.248-1.29l-3.201-2.421c-.078.518-.013 1.012.251 1.255l3.54 3.269c.115.107.197.273.243.477l.001.001c.025.123.04.267.04.417 0 .08 0 .161-.01.24l-.839 7.982c-.06.603.089 1.012.333 1.182.248.166 2.627 2.001 3.144 2.403-.214-.18-.338-.575-.278-1.132l.834-7.983c.005-.063.01-.125.01-.183v-.017a14.54 14.54 0 0 0-.011-.241z" fill="#27debf"/>
        <path d="m294.303 295.209.005-.005c-.03-.301-.124-.55-.278-.69l-3.536-3.264c-.268-.248-.338-.758-.248-1.29l-3.201-2.421c-.078.518-.013 1.012.251 1.255l3.54 3.269c.115.107.197.273.243.477l.001.001c.025.123.04.267.04.417 0 .08 0 .161-.01.24l-.839 7.982c-.06.603.089 1.012.333 1.182.248.166 2.627 2.001 3.144 2.403-.214-.18-.338-.575-.278-1.132l.834-7.983c.005-.063.01-.125.01-.183v-.017a14.54 14.54 0 0 0-.011-.241z" opacity=".1"/>
        <path d="M336.836 300.715c.394-.818.358-1.695.036-2.053-.088-.192-3.169-2.451-3.281-2.533-.128-.093-.288-.118-.477-.052l-3.426 1.211-1.171-2.976a.853.853 0 0 0-.14-.24v-.001l-.006-.007-.021-.024c-.27-.289-3.16-2.429-3.241-2.496-.44-.365-1.195.217-1.487 1.296l-2.188 8.088c-.138.51-.405.963-.713 1.21l-4.892 3.919c-.777.622-1.087 2.272-.525 2.791l3.54 3.269c.223.206.325.63.272 1.134l-.836 7.984c-.063.599.086 1.014.333 1.182.243.165 2.57 1.962 3.121 2.388a.575.575 0 0 0 .119.092c.273.148.65.017.998-.465l4.375-6.068c.276-.383.606-.573.882-.509l4.376 1.015c.695.161 1.507-1.216 1.375-2.331l-.836-7.019c-.053-.443.049-.984.273-1.448l3.54-7.357z" fill="#27debf"/>
        <path d="M336.836 300.715c.394-.818.358-1.695.036-2.053-.088-.192-3.169-2.451-3.281-2.533-.128-.093-.288-.118-.477-.052l-3.426 1.211-1.171-2.976a.853.853 0 0 0-.14-.24v-.001l-.006-.007-.021-.024c-.27-.289-3.16-2.429-3.241-2.496-.44-.365-1.195.217-1.487 1.296l-2.188 8.088c-.138.51-.405.963-.713 1.21l-4.892 3.919c-.777.622-1.087 2.272-.525 2.791l3.54 3.269c.223.206.325.63.272 1.134l-.836 7.984c-.063.599.086 1.014.333 1.182.243.165 2.57 1.962 3.121 2.388a.575.575 0 0 0 .119.092c.273.148.65.017.998-.465l4.375-6.068c.276-.383.606-.573.882-.509l4.376 1.015c.695.161 1.507-1.216 1.375-2.331l-.836-7.019c-.053-.443.049-.984.273-1.448l3.54-7.357z" opacity=".5" fill="#ffffff"/>
        <path d="M328.256 293.96c-.447-.281-1.152.293-1.435 1.334l-2.19 8.086a2.87 2.87 0 0 1-.378.838l-3.243-2.429c.179-.242.333-.527.422-.863l2.19-8.086c.293-1.081 1.048-1.661 1.485-1.295.075.064 2.573 1.911 3.149 2.415z" fill="#27debf"/>
        <path d="M328.256 293.96c-.447-.281-1.152.293-1.435 1.334l-2.19 8.086a2.87 2.87 0 0 1-.378.838l-3.243-2.429c.179-.242.333-.527.422-.863l2.19-8.086c.293-1.081 1.048-1.661 1.485-1.295.075.064 2.573 1.911 3.149 2.415z" opacity=".1"/>
        <path d="m328.518 294.312 2.188 5.562c.138.351.405.495.713.386l4.892-1.73c.777-.275 1.087 1.016.525 2.185l-3.54 7.356c-.223.464-.325 1.005-.273 1.448l.836 7.019c.133 1.115-.68 2.492-1.375 2.331l-4.376-1.015c-.276-.064-.606.126-.882.509l-4.375 6.068c-.695.964-1.507.524-1.375-.744l.836-7.984c.053-.504-.049-.928-.272-1.134l-3.54-3.269c-.562-.519-.252-2.169.525-2.791l4.892-3.919c.309-.247.575-.699.713-1.21l2.188-8.088c.348-1.283 1.352-1.863 1.7-.98z" fill="#27debf"/>
        <path d="m322.311 315.262.005-.005c-.03-.301-.124-.55-.278-.69l-3.536-3.263c-.268-.248-.338-.759-.248-1.29l-3.201-2.421c-.078.518-.013 1.012.251 1.255l3.54 3.269c.115.107.197.273.243.477l.001.001c.025.123.04.267.04.417 0 .08 0 .16-.01.24l-.839 7.982c-.06.603.089 1.012.333 1.182.248.166 2.627 2.001 3.144 2.403-.214-.18-.338-.575-.278-1.132l.834-7.983c.005-.063.01-.125.01-.183v-.017c-.006-.156-.011-.242-.011-.242z" fill="#27debf"/>
        <path d="m322.311 315.262.005-.005c-.03-.301-.124-.55-.278-.69l-3.536-3.263c-.268-.248-.338-.759-.248-1.29l-3.201-2.421c-.078.518-.013 1.012.251 1.255l3.54 3.269c.115.107.197.273.243.477l.001.001c.025.123.04.267.04.417 0 .08 0 .16-.01.24l-.839 7.982c-.06.603.089 1.012.333 1.182.248.166 2.627 2.001 3.144 2.403-.214-.18-.338-.575-.278-1.132l.834-7.983c.005-.063.01-.125.01-.183v-.017c-.006-.156-.011-.242-.011-.242z" opacity=".1"/>
        <path d="M375.381 291.175c.394-.818.359-1.695.036-2.053-.088-.192-3.169-2.451-3.281-2.533-.128-.093-.289-.118-.477-.052l-3.426 1.211-1.171-2.976a.831.831 0 0 0-.141-.24v-.001l-.006-.007-.021-.024c-.27-.289-3.16-2.429-3.241-2.496-.44-.365-1.195.217-1.487 1.296l-2.188 8.088c-.138.51-.405.962-.713 1.21l-4.892 3.919c-.777.622-1.087 2.272-.525 2.791l3.54 3.269c.223.206.325.63.272 1.134l-.836 7.984c-.063.599.086 1.014.333 1.182.243.165 2.57 1.962 3.121 2.388a.543.543 0 0 0 .119.092c.273.148.65.017.998-.465l4.375-6.068c.276-.383.606-.573.882-.509l4.376 1.015c.695.161 1.507-1.216 1.374-2.331l-.836-7.019c-.053-.443.049-.984.273-1.448l3.542-7.357z" fill="#27debf"/>
        <path d="M375.381 291.175c.394-.818.359-1.695.036-2.053-.088-.192-3.169-2.451-3.281-2.533-.128-.093-.289-.118-.477-.052l-3.426 1.211-1.171-2.976a.831.831 0 0 0-.141-.24v-.001l-.006-.007-.021-.024c-.27-.289-3.16-2.429-3.241-2.496-.44-.365-1.195.217-1.487 1.296l-2.188 8.088c-.138.51-.405.962-.713 1.21l-4.892 3.919c-.777.622-1.087 2.272-.525 2.791l3.54 3.269c.223.206.325.63.272 1.134l-.836 7.984c-.063.599.086 1.014.333 1.182.243.165 2.57 1.962 3.121 2.388a.543.543 0 0 0 .119.092c.273.148.65.017.998-.465l4.375-6.068c.276-.383.606-.573.882-.509l4.376 1.015c.695.161 1.507-1.216 1.374-2.331l-.836-7.019c-.053-.443.049-.984.273-1.448l3.542-7.357z" opacity=".5" fill="#ffffff"/>
        <path d="M366.802 284.42c-.447-.281-1.152.293-1.435 1.334l-2.19 8.085a2.87 2.87 0 0 1-.378.838l-3.243-2.429a2.53 2.53 0 0 0 .422-.863l2.19-8.085c.293-1.081 1.048-1.661 1.485-1.295.075.064 2.573 1.91 3.149 2.415z" fill="#27debf"/>
        <path d="M366.802 284.42c-.447-.281-1.152.293-1.435 1.334l-2.19 8.085a2.87 2.87 0 0 1-.378.838l-3.243-2.429a2.53 2.53 0 0 0 .422-.863l2.19-8.085c.293-1.081 1.048-1.661 1.485-1.295.075.064 2.573 1.91 3.149 2.415z" opacity=".1"/>
        <path d="m367.063 284.772 2.188 5.562c.138.351.405.495.713.386l4.892-1.73c.777-.275 1.087 1.016.525 2.185l-3.54 7.356c-.223.464-.325 1.005-.273 1.448l.836 7.019c.133 1.115-.68 2.492-1.374 2.331l-4.376-1.015c-.276-.064-.606.126-.882.509l-4.376 6.068c-.695.964-1.507.524-1.374-.744l.836-7.984c.053-.504-.049-.928-.272-1.134l-3.54-3.269c-.562-.519-.252-2.168.525-2.791l4.892-3.919c.309-.247.575-.7.713-1.21l2.188-8.088c.348-1.283 1.352-1.863 1.699-.98z" fill="#27debf"/>
        <path d="m360.857 305.722.005-.005c-.03-.301-.124-.55-.278-.69l-3.536-3.264c-.268-.248-.338-.758-.248-1.29l-3.201-2.421c-.078.518-.013 1.012.251 1.255l3.54 3.269c.115.107.197.273.243.477l.001.001c.025.123.04.267.04.417 0 .08 0 .16-.01.24l-.839 7.982c-.06.603.089 1.012.333 1.182.248.166 2.627 2.001 3.144 2.403-.214-.18-.338-.575-.278-1.132l.834-7.983c.005-.063.01-.125.01-.183v-.017a13.87 13.87 0 0 0-.011-.241z" fill="#27debf"/>
        <path d="m360.857 305.722.005-.005c-.03-.301-.124-.55-.278-.69l-3.536-3.264c-.268-.248-.338-.758-.248-1.29l-3.201-2.421c-.078.518-.013 1.012.251 1.255l3.54 3.269c.115.107.197.273.243.477l.001.001c.025.123.04.267.04.417 0 .08 0 .16-.01.24l-.839 7.982c-.06.603.089 1.012.333 1.182.248.166 2.627 2.001 3.144 2.403-.214-.18-.338-.575-.278-1.132l.834-7.983c.005-.063.01-.125.01-.183v-.017a13.87 13.87 0 0 0-.011-.241z" opacity=".1"/>
        <path d="M412.824 254.888c.394-.818.359-1.695.036-2.053-.088-.192-3.169-2.451-3.281-2.533-.128-.093-.289-.118-.477-.052l-3.426 1.212-1.171-2.976a.831.831 0 0 0-.141-.24v-.001l-.006-.007-.021-.024c-.27-.289-3.16-2.429-3.241-2.496-.44-.365-1.195.217-1.487 1.296l-2.188 8.088c-.138.51-.405.962-.713 1.21l-4.892 3.919c-.777.622-1.087 2.272-.525 2.791l3.54 3.269c.223.206.325.63.273 1.134l-.836 7.984c-.063.599.086 1.014.333 1.182.243.166 2.57 1.962 3.121 2.388a.543.543 0 0 0 .119.092h.001c.273.148.65.017.998-.465l4.376-6.068c.276-.383.606-.573.882-.509l4.375 1.015c.695.161 1.507-1.216 1.375-2.331l-.836-7.019c-.053-.443.049-.984.272-1.448l3.54-7.358z" fill="#27debf"/>
        <path d="M412.824 254.888c.394-.818.359-1.695.036-2.053-.088-.192-3.169-2.451-3.281-2.533-.128-.093-.289-.118-.477-.052l-3.426 1.212-1.171-2.976a.831.831 0 0 0-.141-.24v-.001l-.006-.007-.021-.024c-.27-.289-3.16-2.429-3.241-2.496-.44-.365-1.195.217-1.487 1.296l-2.188 8.088c-.138.51-.405.962-.713 1.21l-4.892 3.919c-.777.622-1.087 2.272-.525 2.791l3.54 3.269c.223.206.325.63.273 1.134l-.836 7.984c-.063.599.086 1.014.333 1.182.243.166 2.57 1.962 3.121 2.388a.543.543 0 0 0 .119.092h.001c.273.148.65.017.998-.465l4.376-6.068c.276-.383.606-.573.882-.509l4.375 1.015c.695.161 1.507-1.216 1.375-2.331l-.836-7.019c-.053-.443.049-.984.272-1.448l3.54-7.358z" opacity=".5" fill="#ffffff"/>
        <path d="M404.245 248.133c-.447-.281-1.152.293-1.435 1.334l-2.19 8.086a2.87 2.87 0 0 1-.378.838l-3.243-2.429c.179-.242.333-.527.422-.863l2.19-8.085c.293-1.081 1.048-1.661 1.485-1.295.075.063 2.573 1.909 3.149 2.414z" fill="#27debf"/>
        <path d="M404.245 248.133c-.447-.281-1.152.293-1.435 1.334l-2.19 8.086a2.87 2.87 0 0 1-.378.838l-3.243-2.429c.179-.242.333-.527.422-.863l2.19-8.085c.293-1.081 1.048-1.661 1.485-1.295.075.063 2.573 1.909 3.149 2.414z" opacity=".1"/>
        <path d="m404.506 248.485 2.188 5.562c.138.351.405.495.713.386l4.892-1.73c.777-.275 1.087 1.016.525 2.185l-3.54 7.356c-.223.464-.325 1.005-.272 1.448l.836 7.019c.133 1.115-.68 2.492-1.375 2.331l-4.375-1.015c-.276-.064-.606.126-.882.509l-4.376 6.068c-.695.964-1.507.524-1.374-.744l.836-7.984c.053-.504-.049-.928-.272-1.134l-3.54-3.269c-.562-.519-.252-2.168.525-2.791l4.892-3.919c.309-.247.575-.699.713-1.21l2.188-8.088c.347-1.283 1.351-1.863 1.698-.98z" fill="#27debf"/>
        <path d="m398.3 269.434.005-.005c-.03-.301-.124-.55-.278-.69l-3.536-3.264c-.268-.248-.338-.758-.248-1.29l-3.201-2.421c-.078.518-.013 1.012.251 1.255l3.54 3.269c.116.107.197.273.243.477l.001.001c.025.123.04.267.04.417 0 .08 0 .16-.01.24l-.839 7.982c-.06.603.089 1.012.333 1.182.248.166 2.627 2.001 3.144 2.403-.214-.18-.338-.575-.278-1.132l.834-7.983c.005-.063.01-.125.01-.183v-.017a14.54 14.54 0 0 0-.011-.241z" fill="#27debf"/>
        <path d="m398.3 269.434.005-.005c-.03-.301-.124-.55-.278-.69l-3.536-3.264c-.268-.248-.338-.758-.248-1.29l-3.201-2.421c-.078.518-.013 1.012.251 1.255l3.54 3.269c.116.107.197.273.243.477l.001.001c.025.123.04.267.04.417 0 .08 0 .16-.01.24l-.839 7.982c-.06.603.089 1.012.333 1.182.248.166 2.627 2.001 3.144 2.403-.214-.18-.338-.575-.278-1.132l.834-7.983c.005-.063.01-.125.01-.183v-.017a14.54 14.54 0 0 0-.011-.241z" opacity=".1"/>
        <path d="M439.991 201.859c.394-.818.358-1.695.036-2.053-.088-.192-3.169-2.451-3.281-2.533-.128-.093-.288-.118-.477-.052l-3.426 1.212-1.171-2.976a.853.853 0 0 0-.14-.24v-.001l-.006-.007-.021-.024c-.27-.289-3.16-2.429-3.241-2.496-.44-.365-1.195.217-1.487 1.296l-2.188 8.088c-.138.51-.405.962-.713 1.21l-4.892 3.919c-.777.623-1.087 2.272-.525 2.791l3.54 3.269c.223.206.325.63.272 1.134l-.836 7.984c-.063.599.086 1.014.333 1.182.243.165 2.57 1.962 3.121 2.388a.575.575 0 0 0 .119.092c.273.148.65.017.998-.465l4.375-6.068c.276-.383.606-.573.882-.509l4.376 1.015c.695.161 1.507-1.216 1.374-2.331l-.836-7.019c-.053-.443.049-.984.272-1.448l3.542-7.358z" fill="#27debf"/>
        <path d="M439.991 201.859c.394-.818.358-1.695.036-2.053-.088-.192-3.169-2.451-3.281-2.533-.128-.093-.288-.118-.477-.052l-3.426 1.212-1.171-2.976a.853.853 0 0 0-.14-.24v-.001l-.006-.007-.021-.024c-.27-.289-3.16-2.429-3.241-2.496-.44-.365-1.195.217-1.487 1.296l-2.188 8.088c-.138.51-.405.962-.713 1.21l-4.892 3.919c-.777.623-1.087 2.272-.525 2.791l3.54 3.269c.223.206.325.63.272 1.134l-.836 7.984c-.063.599.086 1.014.333 1.182.243.165 2.57 1.962 3.121 2.388a.575.575 0 0 0 .119.092c.273.148.65.017.998-.465l4.375-6.068c.276-.383.606-.573.882-.509l4.376 1.015c.695.161 1.507-1.216 1.374-2.331l-.836-7.019c-.053-.443.049-.984.272-1.448l3.542-7.358z" opacity=".5" fill="#ffffff"/>
        <path d="M431.412 195.104c-.447-.281-1.152.293-1.435 1.334l-2.19 8.085c-.084.314-.219.6-.378.838l-3.243-2.429c.179-.242.333-.527.422-.863l2.19-8.085c.293-1.081 1.048-1.661 1.485-1.295.074.064 2.573 1.911 3.149 2.415z" fill="#27debf"/>
        <path d="M431.412 195.104c-.447-.281-1.152.293-1.435 1.334l-2.19 8.085c-.084.314-.219.6-.378.838l-3.243-2.429c.179-.242.333-.527.422-.863l2.19-8.085c.293-1.081 1.048-1.661 1.485-1.295.074.064 2.573 1.911 3.149 2.415z" opacity=".1"/>
        <path d="m431.673 195.456 2.188 5.562c.138.351.405.495.713.386l4.892-1.73c.777-.275 1.087 1.016.525 2.185l-3.54 7.356c-.223.464-.325 1.005-.272 1.448l.836 7.019c.133 1.115-.68 2.492-1.375 2.331l-4.376-1.015c-.276-.064-.606.126-.882.509l-4.376 6.068c-.695.964-1.507.524-1.374-.744l.836-7.984c.053-.504-.049-.928-.272-1.134l-3.54-3.269c-.562-.519-.252-2.168.525-2.791l4.892-3.919c.309-.247.575-.7.713-1.21l2.188-8.088c.348-1.283 1.352-1.863 1.699-.98z" fill="#27debf"/>
        <path d="m425.467 216.406.005-.005c-.03-.301-.124-.55-.278-.69l-3.536-3.264c-.268-.248-.338-.758-.248-1.29l-3.201-2.421c-.078.518-.013 1.012.251 1.255l3.54 3.269c.115.107.197.273.243.477l.001.001c.025.123.04.267.04.417 0 .08 0 .161-.01.24l-.839 7.982c-.06.603.089 1.012.333 1.182.248.165 2.627 2.001 3.144 2.403-.214-.18-.338-.575-.278-1.132l.834-7.983c.005-.063.01-.125.01-.183v-.017c-.006-.155-.011-.241-.011-.241z" fill="#27debf"/>
        <path d="m425.467 216.406.005-.005c-.03-.301-.124-.55-.278-.69l-3.536-3.264c-.268-.248-.338-.758-.248-1.29l-3.201-2.421c-.078.518-.013 1.012.251 1.255l3.54 3.269c.115.107.197.273.243.477l.001.001c.025.123.04.267.04.417 0 .08 0 .161-.01.24l-.839 7.982c-.06.603.089 1.012.333 1.182.248.165 2.627 2.001 3.144 2.403-.214-.18-.338-.575-.278-1.132l.834-7.983c.005-.063.01-.125.01-.183v-.017c-.006-.155-.011-.241-.011-.241z" opacity=".1"/>
        <path d="M449.527 144.959c.394-.818.359-1.695.036-2.053-.088-.192-3.169-2.451-3.281-2.533-.128-.093-.288-.118-.477-.052l-3.426 1.211-1.171-2.976a.831.831 0 0 0-.141-.24v-.001l-.006-.007-.021-.024c-.27-.289-3.16-2.429-3.241-2.496-.44-.365-1.195.217-1.487 1.296l-2.188 8.088c-.138.51-.405.963-.713 1.21l-4.892 3.919c-.777.622-1.087 2.272-.525 2.791l3.54 3.269c.223.206.325.63.272 1.134l-.836 7.984c-.063.599.086 1.014.333 1.182.243.165 2.57 1.962 3.121 2.388a.543.543 0 0 0 .119.092c.273.148.65.017.998-.465l4.375-6.068c.276-.383.606-.573.882-.509l4.376 1.015c.695.161 1.507-1.216 1.375-2.331l-.836-7.019c-.053-.443.049-.984.272-1.448l3.542-7.357z" fill="#27debf"/>
        <path d="M449.527 144.959c.394-.818.359-1.695.036-2.053-.088-.192-3.169-2.451-3.281-2.533-.128-.093-.288-.118-.477-.052l-3.426 1.211-1.171-2.976a.831.831 0 0 0-.141-.24v-.001l-.006-.007-.021-.024c-.27-.289-3.16-2.429-3.241-2.496-.44-.365-1.195.217-1.487 1.296l-2.188 8.088c-.138.51-.405.963-.713 1.21l-4.892 3.919c-.777.622-1.087 2.272-.525 2.791l3.54 3.269c.223.206.325.63.272 1.134l-.836 7.984c-.063.599.086 1.014.333 1.182.243.165 2.57 1.962 3.121 2.388a.543.543 0 0 0 .119.092c.273.148.65.017.998-.465l4.375-6.068c.276-.383.606-.573.882-.509l4.376 1.015c.695.161 1.507-1.216 1.375-2.331l-.836-7.019c-.053-.443.049-.984.272-1.448l3.542-7.357z" opacity=".5" fill="#ffffff"/>
        <path d="M440.948 138.204c-.447-.281-1.152.293-1.435 1.334l-2.19 8.085a2.87 2.87 0 0 1-.378.838l-3.243-2.429c.179-.242.333-.527.422-.863l2.19-8.085c.293-1.081 1.048-1.661 1.485-1.295.074.065 2.572 1.911 3.149 2.415z" fill="#27debf"/>
        <path d="M440.948 138.204c-.447-.281-1.152.293-1.435 1.334l-2.19 8.085a2.87 2.87 0 0 1-.378.838l-3.243-2.429c.179-.242.333-.527.422-.863l2.19-8.085c.293-1.081 1.048-1.661 1.485-1.295.074.065 2.572 1.911 3.149 2.415z" opacity=".1"/>
        <path d="m441.209 138.556 2.188 5.562c.138.351.405.495.713.386l4.892-1.73c.777-.275 1.087 1.016.525 2.185l-3.54 7.356c-.223.464-.325 1.005-.272 1.448l.836 7.019c.133 1.115-.68 2.492-1.375 2.331l-4.376-1.015c-.276-.064-.606.126-.882.509l-4.375 6.068c-.695.964-1.507.524-1.375-.744l.836-7.984c.053-.504-.049-.928-.272-1.134l-3.54-3.269c-.562-.519-.252-2.169.525-2.791l4.892-3.919c.309-.247.575-.699.713-1.21l2.188-8.088c.348-1.283 1.352-1.863 1.699-.98z" fill="#27debf"/>
        <path d="m435.003 159.506.005-.005c-.03-.301-.124-.55-.278-.69l-3.536-3.264c-.268-.248-.338-.759-.248-1.29l-3.201-2.421c-.078.518-.013 1.012.251 1.255l3.54 3.269c.115.107.197.273.243.477l.001.001c.025.123.04.267.04.417 0 .08 0 .16-.01.24l-.839 7.982c-.06.602.089 1.012.333 1.182.248.166 2.627 2.001 3.144 2.403-.214-.18-.338-.575-.278-1.132l.834-7.983c.005-.063.01-.125.01-.183v-.017c-.006-.155-.011-.241-.011-.241z" fill="#27debf"/>
        <path d="m435.003 159.506.005-.005c-.03-.301-.124-.55-.278-.69l-3.536-3.264c-.268-.248-.338-.759-.248-1.29l-3.201-2.421c-.078.518-.013 1.012.251 1.255l3.54 3.269c.115.107.197.273.243.477l.001.001c.025.123.04.267.04.417 0 .08 0 .16-.01.24l-.839 7.982c-.06.602.089 1.012.333 1.182.248.166 2.627 2.001 3.144 2.403-.214-.18-.338-.575-.278-1.132l.834-7.983c.005-.063.01-.125.01-.183v-.017c-.006-.155-.011-.241-.011-.241z" opacity=".1"/>
        <path d="M438.525 101.387c.394-.818.359-1.695.036-2.053-.088-.192-3.169-2.451-3.281-2.533-.128-.093-.288-.118-.477-.052l-3.426 1.212-1.171-2.976a.831.831 0 0 0-.141-.24v-.001l-.006-.007-.021-.024c-.27-.289-3.16-2.429-3.241-2.496-.44-.365-1.195.217-1.487 1.296l-2.188 8.088c-.138.51-.405.963-.713 1.21l-4.892 3.919c-.777.622-1.087 2.272-.525 2.791l3.54 3.269c.223.206.325.63.272 1.134l-.836 7.984c-.063.599.086 1.014.333 1.182.243.165 2.57 1.962 3.121 2.388a.543.543 0 0 0 .119.092c.273.148.65.017.998-.465l4.375-6.068c.276-.383.606-.573.882-.509l4.376 1.015c.695.161 1.507-1.216 1.375-2.331l-.836-7.019c-.053-.443.049-.984.272-1.448l3.542-7.358z" fill="#27debf"/>
        <path d="M438.525 101.387c.394-.818.359-1.695.036-2.053-.088-.192-3.169-2.451-3.281-2.533-.128-.093-.288-.118-.477-.052l-3.426 1.212-1.171-2.976a.831.831 0 0 0-.141-.24v-.001l-.006-.007-.021-.024c-.27-.289-3.16-2.429-3.241-2.496-.44-.365-1.195.217-1.487 1.296l-2.188 8.088c-.138.51-.405.963-.713 1.21l-4.892 3.919c-.777.622-1.087 2.272-.525 2.791l3.54 3.269c.223.206.325.63.272 1.134l-.836 7.984c-.063.599.086 1.014.333 1.182.243.165 2.57 1.962 3.121 2.388a.543.543 0 0 0 .119.092c.273.148.65.017.998-.465l4.375-6.068c.276-.383.606-.573.882-.509l4.376 1.015c.695.161 1.507-1.216 1.375-2.331l-.836-7.019c-.053-.443.049-.984.272-1.448l3.542-7.358z" opacity=".5" fill="#ffffff"/>
        <path d="M429.945 94.632c-.447-.281-1.152.293-1.435 1.334l-2.19 8.086a2.87 2.87 0 0 1-.378.838l-3.243-2.429c.179-.242.333-.527.422-.863l2.19-8.086c.293-1.081 1.048-1.661 1.485-1.295.075.065 2.574 1.911 3.149 2.415z" fill="#27debf"/>
        <path d="M429.945 94.632c-.447-.281-1.152.293-1.435 1.334l-2.19 8.086a2.87 2.87 0 0 1-.378.838l-3.243-2.429c.179-.242.333-.527.422-.863l2.19-8.086c.293-1.081 1.048-1.661 1.485-1.295.075.065 2.574 1.911 3.149 2.415z" opacity=".1"/>
        <path d="m430.207 94.985 2.188 5.562c.138.351.405.495.713.386l4.892-1.73c.777-.275 1.087 1.016.525 2.185l-3.54 7.356c-.223.464-.325 1.006-.272 1.448l.836 7.019c.133 1.115-.68 2.492-1.375 2.331l-4.375-1.015c-.276-.064-.606.126-.882.509l-4.376 6.068c-.695.964-1.507.524-1.375-.744l.836-7.984c.053-.504-.049-.927-.272-1.134l-3.54-3.269c-.562-.519-.252-2.169.525-2.791l4.892-3.919c.309-.247.575-.7.713-1.21l2.188-8.088c.347-1.284 1.351-1.864 1.699-.98z" fill="#27debf"/>
        <path d="m424.001 115.934.005-.005c-.03-.301-.124-.55-.278-.69l-3.536-3.264c-.268-.248-.338-.758-.248-1.289l-3.201-2.421c-.078.518-.013 1.011.251 1.255l3.54 3.269c.115.107.197.273.243.477l.001.001c.025.123.04.267.04.417 0 .08 0 .16-.01.24l-.839 7.982c-.06.603.089 1.012.333 1.182.248.166 2.627 2.001 3.144 2.403-.214-.18-.338-.575-.278-1.132l.834-7.983c.005-.063.01-.125.01-.183v-.017c-.006-.156-.011-.242-.011-.242z" fill="#27debf"/>
        <path d="m424.001 115.934.005-.005c-.03-.301-.124-.55-.278-.69l-3.536-3.264c-.268-.248-.338-.758-.248-1.289l-3.201-2.421c-.078.518-.013 1.011.251 1.255l3.54 3.269c.115.107.197.273.243.477l.001.001c.025.123.04.267.04.417 0 .08 0 .16-.01.24l-.839 7.982c-.06.603.089 1.012.333 1.182.248.166 2.627 2.001 3.144 2.403-.214-.18-.338-.575-.278-1.132l.834-7.983c.005-.063.01-.125.01-.183v-.017c-.006-.156-.011-.242-.011-.242z" opacity=".1"/>
        <path d="M410.517 81.335c.394-.818.359-1.695.036-2.053-.088-.192-3.169-2.451-3.281-2.533-.128-.093-.288-.118-.477-.052l-3.426 1.212-1.171-2.976a.831.831 0 0 0-.141-.24v-.001l-.006-.007-.021-.024c-.27-.289-3.16-2.429-3.241-2.496-.44-.365-1.195.217-1.487 1.296l-2.188 8.088c-.138.51-.405.963-.713 1.21l-4.892 3.919c-.777.622-1.087 2.272-.525 2.791l3.54 3.269c.223.206.325.63.272 1.134l-.836 7.984c-.063.599.086 1.014.333 1.182.243.165 2.57 1.962 3.121 2.388a.543.543 0 0 0 .119.092c.273.148.65.017.998-.465l4.375-6.068c.276-.383.606-.573.882-.509l4.376 1.015c.695.161 1.507-1.216 1.375-2.331l-.836-7.019c-.053-.443.049-.984.272-1.448l3.542-7.358z" fill="#27debf"/>
        <path d="M410.517 81.335c.394-.818.359-1.695.036-2.053-.088-.192-3.169-2.451-3.281-2.533-.128-.093-.288-.118-.477-.052l-3.426 1.212-1.171-2.976a.831.831 0 0 0-.141-.24v-.001l-.006-.007-.021-.024c-.27-.289-3.16-2.429-3.241-2.496-.44-.365-1.195.217-1.487 1.296l-2.188 8.088c-.138.51-.405.963-.713 1.21l-4.892 3.919c-.777.622-1.087 2.272-.525 2.791l3.54 3.269c.223.206.325.63.272 1.134l-.836 7.984c-.063.599.086 1.014.333 1.182.243.165 2.57 1.962 3.121 2.388a.543.543 0 0 0 .119.092c.273.148.65.017.998-.465l4.375-6.068c.276-.383.606-.573.882-.509l4.376 1.015c.695.161 1.507-1.216 1.375-2.331l-.836-7.019c-.053-.443.049-.984.272-1.448l3.542-7.358z" opacity=".5" fill="#ffffff"/>
        <path d="M401.938 74.58c-.447-.281-1.152.293-1.435 1.334L398.312 84a2.87 2.87 0 0 1-.378.838l-3.243-2.429a2.53 2.53 0 0 0 .422-.863l2.19-8.086c.293-1.081 1.048-1.661 1.485-1.295.075.064 2.574 1.911 3.15 2.415z" fill="#27debf"/>
        <path d="M401.938 74.58c-.447-.281-1.152.293-1.435 1.334L398.312 84a2.87 2.87 0 0 1-.378.838l-3.243-2.429a2.53 2.53 0 0 0 .422-.863l2.19-8.086c.293-1.081 1.048-1.661 1.485-1.295.075.064 2.574 1.911 3.15 2.415z" opacity=".1"/>
        <path d="m402.199 74.932 2.188 5.562c.138.351.405.495.713.386l4.892-1.73c.777-.275 1.087 1.016.525 2.185l-3.54 7.356c-.223.464-.325 1.006-.272 1.448l.836 7.019c.133 1.115-.68 2.492-1.375 2.331l-4.376-1.015c-.276-.064-.606.126-.882.509l-4.375 6.068c-.695.964-1.507.524-1.375-.744l.836-7.984c.053-.504-.049-.928-.272-1.134l-3.54-3.269c-.562-.519-.252-2.169.525-2.791l4.892-3.919c.309-.247.575-.7.713-1.21l2.188-8.088c.348-1.283 1.352-1.863 1.699-.98z" fill="#27debf"/>
        <path d="m395.993 95.882.005-.005c-.03-.301-.124-.55-.278-.69l-3.536-3.264c-.268-.248-.338-.758-.248-1.29l-3.201-2.421c-.078.518-.013 1.011.251 1.255l3.54 3.269c.115.107.197.273.243.477l.001.001c.025.123.04.267.04.417 0 .08 0 .16-.01.24l-.839 7.982c-.06.603.089 1.012.333 1.182.248.166 2.627 2.001 3.144 2.403-.214-.18-.338-.575-.278-1.132l.834-7.983c.005-.063.01-.125.01-.183v-.017c-.006-.155-.011-.241-.011-.241z" fill="#27debf"/>
        <path d="m395.993 95.882.005-.005c-.03-.301-.124-.55-.278-.69l-3.536-3.264c-.268-.248-.338-.758-.248-1.29l-3.201-2.421c-.078.518-.013 1.011.251 1.255l3.54 3.269c.115.107.197.273.243.477l.001.001c.025.123.04.267.04.417 0 .08 0 .16-.01.24l-.839 7.982c-.06.603.089 1.012.333 1.182.248.166 2.627 2.001 3.144 2.403-.214-.18-.338-.575-.278-1.132l.834-7.983c.005-.063.01-.125.01-.183v-.017c-.006-.155-.011-.241-.011-.241z" opacity=".1"/>
        <path d="m396.644 182.825-17.968-10.374a4.674 4.674 0 0 0-4.674 0l-.61.352-39.167 22.613a14.235 14.235 0 0 0-7.117 12.327v29.81c0 2.188.74 3.748 1.948 4.523 1.297.833 16.592 9.502 17.8 10.277 1.297.833 3.132.759 5.167-.416l39.166-22.615c3.93-2.269 7.115-7.786 7.115-12.324v-29.812c-.004-1.944-.567-3.39-1.66-4.361z" fill="#27debf"/>
        <path d="M346.896 252.376c-.011-.005-.027-.016-.038-.022-1.21-.778-16.503-9.443-17.801-10.275-1.21-.778-1.95-2.339-1.95-4.524v-29.813c0-2.536.679-4.979 1.901-7.104l17.977 10.38c-1.282 2.224-2.076 4.738-2.076 7v29.813c-.001 2.211.755 3.784 1.987 4.545z" opacity=".1"/>
        <path d="M398.303 187.187v29.812c0 4.538-3.186 10.055-7.115 12.324l-39.166 22.615c-3.93 2.269-7.115.43-7.115-4.108v-29.812c0-4.538 3.185-10.055 7.115-12.324l39.166-22.615c3.93-2.269 7.115-.43 7.115 4.108z" fill="#27debf"/>
        <path d="m378.676 172.451 17.462 10.084c-1.276-.69-3.023-.57-4.952.542l-39.163 22.616c-1.972 1.134-3.752 3.089-5.039 5.324l-17.977-10.38c0-.005.005-.005.005-.011a14.235 14.235 0 0 1 5.214-5.209l39.163-22.616.613-.35a4.674 4.674 0 0 1 2.333-.624 4.674 4.674 0 0 1 2.341.624z" opacity=".5" fill="#ffffff"/>
        <path d="m375.421 227.167-7.631 4.406 1.182-13.804c-.913-.483-1.494-1.67-1.494-3.375 0-3.04 1.848-6.571 4.128-7.887 2.279-1.316 4.127.081 4.127 3.121 0 1.705-.582 3.564-1.495 5.101l1.183 12.438z" fill="#455a64"/>
        <path fill="#37474f" d="m375.421 227.167-6.912-3.99-.719 8.396 7.631-4.406z"/>
        <path d="M371.606 206.507c-1.492.861-2.795 2.672-3.52 4.671l6.153 3.552v-.002c.913-1.536 1.495-3.396 1.495-5.101-.001-3.039-1.849-4.436-4.128-3.12z" fill="#37474f"/>
        <path d="m379.399 182.464.001-.006h-.001v-30.234c0-6.057-2.289-10.852-6.28-13.156-3.809-2.199-8.52-1.901-13.266.839-8.717 5.033-15.546 17.313-15.546 27.957v30.341h-.001c0 .591.394 1.181 1.175 1.632 1.561.902 4.093.902 5.655 0 .781-.451 1.175-1.041 1.175-1.632v-30.341c0-7.785 5.287-17.414 11.544-21.027 2.133-1.232 4.051-1.538 5.263-.839 1.427.824 2.279 3.151 2.279 6.226v30.248h.002c.006.586.398 1.171 1.172 1.618 1.561.902 4.093.902 5.654 0 .775-.447 1.167-1.032 1.173-1.618h.001v-.008z" fill="#37474f"/>
        <path d="M166.702 127.544 269.441 68.24c1.182-.683 2.141-.129 2.141 1.236v41.068c0 1.365-.958 3.025-2.141 3.708L166.702 173.56c-1.182.683-2.141.129-2.141-1.236v-41.072c0-1.366.959-3.026 2.141-3.708z" opacity=".7" fill="#27debf"/>
        <path d="m165.191 129.143-5.457-3.162c-.39.672-.631 1.43-.631 2.114v41.07c0 .672.237 1.147.613 1.374.395.237 5.067 2.908 5.433 3.145-.366-.237-.583-.712-.583-1.364v-41.07c0-.681.239-1.436.625-2.107z" opacity=".3" fill="#27debf"/>
        <path d="M270.868 68.041c-.761-.465-5.008-2.898-5.354-3.106-.386-.227-.929-.208-1.532.138l-102.734 59.313c-.592.34-1.127.925-1.515 1.594l5.457 3.162c.387-.672.921-1.259 1.51-1.601l102.743-59.303c.545-.315 1.049-.365 1.425-.197z" opacity=".5" fill="#27debf"/>
        <path d="M181.188 139.071a3.3 3.3 0 0 1-1.665-.434c-1.167-.674-1.809-2.008-1.809-3.756 0-3.199 2.171-6.961 4.944-8.562v-.002c1.508-.874 2.981-.983 4.156-.309 1.167.674 1.809 2.009 1.809 3.756 0 3.199-2.171 6.96-4.942 8.561-.861.496-1.708.746-2.493.746z" fill="#ffffff"/>
        <path d="M190.795 140.319c-1.844-1.068-4.189-.889-6.609.508l-2.726 1.568c-4.734 2.741-8.446 9.171-8.446 14.637v4.693l20.731-11.956v-3.23c0-2.874-1.067-5.137-2.95-6.22z" fill="#ffffff"/>
        <path d="M201.092 121.307c0 3.087 2.31 4.255 5.159 2.61l48.399-27.944c2.85-1.645 5.159-5.481 5.159-8.568 0-3.087-2.31-4.255-5.159-2.61l-48.4 27.943c-2.848 1.647-5.158 5.483-5.158 8.569z" opacity=".7" fill="#ffffff"/>
        <path d="m206.039 116.588 48.825-28.189c.95-.548 1.72-.159 1.719.87 0 1.029-.77 2.307-1.72 2.856l-48.824 28.19c-.95.548-1.72.159-1.72-.87 0-1.03.77-2.308 1.72-2.857z" fill="#455a64"/>
        <path d="M201.092 139.933c0 3.087 2.31 4.255 5.159 2.61l48.399-27.944c2.85-1.645 5.159-5.481 5.159-8.568 0-3.087-2.31-4.255-5.159-2.61l-48.4 27.943c-2.848 1.647-5.158 5.483-5.158 8.569z" opacity=".7" fill="#ffffff"/>
        <path d="M209.159 133.416c.891-.514 1.613-.098 1.613.931 0 1.029-.722 2.28-1.613 2.794-.891.514-1.613.098-1.613-.931s.722-2.28 1.613-2.794z" fill="#455a64"/>
        <path d="M214.249 130.477c.891-.515 1.613-.098 1.613.931 0 1.029-.722 2.28-1.613 2.794-.891.514-1.613.097-1.613-.931s.722-2.28 1.613-2.794z" fill="#455a64"/>
        <path d="M219.339 127.538c.891-.515 1.613-.098 1.613.931 0 1.029-.722 2.28-1.613 2.794-.891.514-1.613.097-1.613-.931s.722-2.279 1.613-2.794z" fill="#455a64"/>
        <path d="M224.429 124.599c.891-.515 1.613-.098 1.613.931 0 1.029-.722 2.28-1.613 2.794-.891.515-1.613.098-1.613-.931s.722-2.279 1.613-2.794z" fill="#455a64"/>
        <path d="M229.519 121.661c.891-.514 1.613-.097 1.613.931 0 1.029-.722 2.28-1.613 2.794-.891.515-1.613.098-1.613-.931 0-1.029.722-2.28 1.613-2.794z" fill="#455a64"/>
        <path d="M234.609 118.722c.891-.515 1.613-.098 1.613.931 0 1.029-.722 2.28-1.613 2.794-.891.514-1.613.097-1.613-.931 0-1.029.723-2.28 1.613-2.794z" fill="#455a64"/>
        <path d="M239.699 115.783c.891-.514 1.613-.097 1.613.931 0 1.029-.722 2.28-1.613 2.794-.891.515-1.613.098-1.613-.931 0-1.028.723-2.28 1.613-2.794z" fill="#455a64"/>
        <path d="M244.79 112.844c.891-.515 1.613-.098 1.613.931 0 1.029-.722 2.28-1.613 2.794-.891.515-1.613.098-1.613-.931-.001-1.028.722-2.279 1.613-2.794z" fill="#455a64"/>
        <path d="M249.88 109.905c.891-.515 1.613-.098 1.613.931s-.722 2.28-1.613 2.794c-.891.514-1.613.097-1.613-.931s.722-2.279 1.613-2.794z" fill="#455a64"/>
        <path d="M254.97 106.967c.891-.514 1.613-.097 1.613.931s-.722 2.28-1.613 2.794c-.891.515-1.613.098-1.613-.931 0-1.029.722-2.28 1.613-2.794z" fill="#455a64"/>
        <path d="M261.08 142.659c0-.437-.15-.744-.39-.9 0 0-.035-.029-.101-.058l-2.057-1.201-.002-.001-.005-.003v.001c-.257-.145-.61-.123-1 .102l-41.137 23.722-1.198-4.831a1.332 1.332 0 0 0-.594-.787l.008-.003-2.141-1.243.001.009c-.371-.22-.846-.23-1.303.034l-17.502 10.102c-.786.454-1.423 1.557-1.423 2.464l.002 58.361c0 .435.143.745.382.901l2.203 1.277c.254.128.593.099.969-.118l63.891-36.887c.786-.454 1.423-1.557 1.423-2.464l-.026-48.477z" fill="#27debf"/>
        <path d="M214.566 158.681c-.368-.204-.828-.197-1.275.059l-17.5 10.101c-.388.23-.743.618-1.005 1.065l-2.132-1.242c.256-.447.611-.841 1.005-1.065l17.5-10.101c.46-.263.933-.25 1.301-.033v-.007l2.106 1.223z" opacity=".2"/>
        <path d="M260.588 141.701c-.25-.105-.578-.066-.933.138l-41.178 23.757c-.789.453-1.636.118-1.899-.756l-.192-.519 41.137-23.724c.223-.131.44-.191.631-.191.138 0 .263.033.368.092h.007l2.059 1.203z" opacity=".2"/>
        <path d="m261.079 142.662.025 48.476c0 .91-.636 2.013-1.425 2.466l-64.053 36.98a.839.839 0 0 1-1.258-.727v-58.55c0-.452.158-.957.415-1.398.263-.447.62-.836 1.004-1.062l17.502-10.105c.447-.252.91-.263 1.278-.058l.037.021h-.01c.268.158.484.42.594.789l1.2 4.828.189.521c.263.873 1.109 1.209 1.898.757l41.18-23.758c.352-.205.684-.242.931-.137l.058.032.031.016.016.01c.236.152.388.463.388.899z" fill="#27debf"/>
        <path d="m261.079 142.662.025 48.476c0 .91-.636 2.013-1.425 2.466l-64.053 36.98a.839.839 0 0 1-1.258-.727v-58.55c0-.452.158-.957.415-1.398.263-.447.62-.836 1.004-1.062l17.502-10.105c.447-.252.91-.263 1.278-.058l.037.021h-.01c.268.158.484.42.594.789l1.2 4.828.189.521c.263.873 1.109 1.209 1.898.757l41.18-23.758c.352-.205.684-.242.931-.137l.058.032.031.016.016.01c.236.152.388.463.388.899z" opacity=".3"/>
        <path d="M194.885 230.628a.31.31 0 0 1-.063-.021l-2.203-1.278c-.237-.158-.384-.468-.384-.904v-58.362c0-.457.163-.952.421-1.398l2.129 1.241v.005c-.257.441-.415.946-.415 1.398v58.546a.83.83 0 0 0 .515.773z" opacity=".5"/>
        <g>
            <path d="M182.455 175.58c-.274-.123-.643-.087-1.039.144l-67.236 38.823c-.859.498-1.559 1.71-1.559 2.706v60.705c0 .476.159.823.426.996-.267-.173-2.627-1.508-2.916-1.682-.274-.166-.448-.512-.448-1.003v-60.705c0-.996.7-2.208 1.566-2.706l67.229-38.83c.44-.253.837-.267 1.119-.101.253.151 2.302 1.313 2.858 1.653z" opacity=".7" fill="#27debf"/>
            <path d="m114.18 214.548 67.233-38.824c.863-.498 1.563-.094 1.563.902v60.706c0 .996-.699 2.208-1.563 2.706l-67.233 38.823c-.863.498-1.563.094-1.563-.902v-60.706c.001-.996.701-2.207 1.563-2.705z" opacity=".7" fill="#27debf"/>
            <path d="m113.077 215.715-2.934-1.694c-.284.491-.46 1.044-.46 1.543v60.705c0 .491.173.837.448 1.003.289.173 2.649 1.508 2.916 1.682-.267-.173-.426-.52-.426-.996v-60.705c0-.497.175-1.049.456-1.538z" opacity=".15"/>
            <path d="M182.455 175.58c-.556-.339-2.605-1.501-2.858-1.653-.281-.166-.678-.152-1.119.101l-67.229 38.83c-.432.249-.823.675-1.106 1.164l2.934 1.694c.282-.491.673-.919 1.103-1.169l67.236-38.823c.397-.231.765-.267 1.039-.144z" opacity=".5" fill="#ffffff"/>
            <path d="m156.626 234.683 5.315 7.47-24.016-21.857-25.308 42.873v14.791c0 .996.699 1.4 1.563.902l67.233-38.823c.863-.498 1.563-1.71 1.563-2.706v-8.126l-17.91-12.894-8.44 18.37z" opacity=".95" fill="#fafafa"/>
            <path d="M159.523 198.742c3.135-1.81 5.676-.342 5.676 3.278s-2.541 8.022-5.676 9.832c-3.135 1.81-5.677.342-5.677-3.278s2.542-8.022 5.677-9.832z" opacity=".95" fill="#fafafa"/>
        </g>
        <g>
            <path d="m201.684 240.176 52.488-30.304c.522-.301.992-.279 1.323.002.303.257 2.195 1.212 2.521 1.444.341.242.553.736.553 1.418v47.233c0 1.334-.811 2.884-1.812 3.461l-9.216 5.321-47.094-27.201c.323-.593.757-1.097 1.237-1.374z" fill="#27debf"/>
            <path d="m201.684 240.176 52.488-30.304c.522-.301.992-.279 1.323.002.303.257 2.195 1.212 2.521 1.444.341.242.553.736.553 1.418v47.233c0 1.334-.811 2.884-1.812 3.461l-9.216 5.321-47.094-27.201c.323-.593.757-1.097 1.237-1.374z" opacity=".5" fill="#ffffff"/>
            <path d="M203.04 293.803c-.359-.234-2.27-1.283-2.594-1.5-.353-.237-.574-.737-.574-1.432v-47.233c0-.694.222-1.444.574-2.087l47.094 27.201-43.272 24.983c-.473.273-.905.28-1.228.068z" fill="#27debf"/>
            <path d="M203.04 293.803c-.359-.234-2.27-1.283-2.594-1.5-.353-.237-.574-.737-.574-1.432v-47.233c0-.694.222-1.444.574-2.087l47.094 27.201-43.272 24.983c-.473.273-.905.28-1.228.068z" opacity=".2"/>
            <path d="m204.269 293.735 52.488-30.304c1.001-.577 1.812-2.127 1.812-3.461v-47.233c0-1.334-.811-1.947-1.812-1.37l-52.488 30.304c-1.001.578-1.812 2.128-1.812 3.462v47.233c0 1.333.811 1.946 1.812 1.369z" fill="#27debf"/>
            <path d="M202.457 292.365v-.93l21.698-35.961-21.421-11.872c.047-.133.101-.262.158-.387l26.69 11.123c.566.236 1.293-.184 1.859-1.073l26.654-41.882c.057.059.115.101.162.179l-21.388 36.571 21.698 10.906v.93c0 .729-.214 1.498-.545 2.132l-22.256-12.082-3.151 5.385c-1.251 2.138-2.954 3.121-4.205 2.428l-3.151-1.746-22.219 37.718c-.331-.252-.583-.71-.583-1.439z" opacity=".2"/>
        </g>
        <g>
            <path d="m111.554 349.841-1.419-.82c-.447-.258-.81-.886-.81-1.403v-57.795c0-.517.363-1.145.81-1.403l74.924-43.267c.447-.258 1.173-.258 1.62 0l1.42.82c.447.258.81.886.81 1.403l-.001 57.796c0 .517-.363 1.145-.81 1.403l-74.924 43.267c-.447.257-1.172.257-1.62-.001z" fill="#f5f5f5"/>
            <path d="m113.174 290.174 74.925-43.267c.447-.258.81-.049.81.468l-.001 57.796c0 .517-.363 1.145-.81 1.403l-74.924 43.267c-.447.258-.81.049-.81-.468v-57.795c0-.517.363-1.145.81-1.404z" fill="#f0f0f0"/>
            <path d="M188.099 246.907c-6.148 3.772-12.347 7.455-18.553 11.125l-18.677 10.911-18.785 10.724-9.43 5.296-9.48 5.211 9.252-5.606 9.301-5.521 18.678-10.909 18.786-10.723c6.28-3.54 12.568-7.068 18.908-10.508z" fill="#e0e0e0"/>
            <path d="m112.603 290.779-3.039-1.755c-.146.253-.244.542-.236.797l.001 57.796c-.004.516.357 1.148.804 1.406l1.419.819c.395.228 1.01.255 1.461.074-.373.122-.645-.096-.644-.545l-.001-57.796c-.009-.254.089-.544.235-.796z" fill="#e0e0e0"/>
            <path fill="#27debf" d="m112.364 298.176 76.545-44.181v15.088l-76.541 44.178-.004-15.085z"/>
            <defs>
                <path d="M184.185 292.474v9.879c0 .739-.519 1.638-1.159 2.008l-10.373 6.067c-.64.369-1.159.07-1.159-.669l.001-9.879c0-.739.519-1.638 1.159-2.008 2.831-1.634 7.541-4.432 10.372-6.067.64-.369 1.159-.07 1.159.669z" id="8adb4556-cc84-43e9-aff7-a04a5364b56e"/>
            </defs>
            <use xlink:href="#8adb4556-cc84-43e9-aff7-a04a5364b56e" overflow="visible" fill="#27debf"/>
            <clipPath id="2c3771cf-cb51-40d6-ab50-90781978d8bf">
                <use xlink:href="#8adb4556-cc84-43e9-aff7-a04a5364b56e" overflow="visible"/>
            </clipPath>
            <path d="M184.185 292.474v9.879c0 .739-.519 1.638-1.159 2.008l-10.373 6.067c-.64.369-1.159.07-1.159-.669l.001-9.879c0-.739.519-1.638 1.159-2.008 2.831-1.634 7.541-4.432 10.372-6.067.64-.369 1.159-.07 1.159.669z" opacity=".2" clip-path="url(#2c3771cf-cb51-40d6-ab50-90781978d8bf)"/>
            <g clip-path="url(#2c3771cf-cb51-40d6-ab50-90781978d8bf)">
                <path fill="#ffffff" d="m186.229 294.025.262-.757-17.04 9.917-.262.757 17.04-9.917z"/>
            </g>
            <g clip-path="url(#2c3771cf-cb51-40d6-ab50-90781978d8bf)">
                <path fill="#ffffff" d="m179.573 302.749.525-.605v-5.033l-.525.606v5.032z"/>
            </g>
            <g clip-path="url(#2c3771cf-cb51-40d6-ab50-90781978d8bf)">
                <path fill="#ffffff" d="m175.582 305.146.524-.606v-5.025l-.524.606v5.025z"/>
            </g>
            <g clip-path="url(#2c3771cf-cb51-40d6-ab50-90781978d8bf)">
                <path fill="#ffffff" d="m186.229 299.068.262-.756-17.04 9.916-.262.757 17.04-9.917z"/>
            </g>
            <path d="M117.21 304.498c-.424-.297-.635-.953-.635-1.97 0-1.023.207-1.923.622-2.7a4.567 4.567 0 0 1 1.78-1.835c.324-.186.617-.313.881-.38s.487-.072.669-.018c.044.016.066.05.066.104a.494.494 0 0 1-.04.174l-.233.675c-.031.083-.062.134-.093.151-.026.015-.064.02-.113.012-.284-.049-.619.038-1.004.26a2.693 2.693 0 0 0-1.064 1.142c-.253.498-.379 1.092-.379 1.784 0 .698.132 1.145.396 1.341.264.197.624.163 1.081-.101a3.478 3.478 0 0 0 1.051-.926.47.47 0 0 1 .113-.118c.031-.018.062-.003.093.044l.26.444a.18.18 0 0 1 .026.091c0 .035-.026.095-.08.179-.346.531-.88 1.005-1.603 1.422-.773.447-1.371.521-1.794.225z" fill="#455a64"/>
            <path d="M121.287 302.729c-.046-.035-.07-.118-.07-.248v-5.259c0-.13.023-.241.07-.333a.562.562 0 0 1 .229-.23l1.683-.972c1.126-.65 1.69-.319 1.69.994 0 .42-.067.814-.2 1.184a3.2 3.2 0 0 1-.592 1.011l.698 1.637c.013.033.02.071.02.113a.262.262 0 0 1-.14.24l-.738.427c-.062.036-.109.052-.14.05-.031-.003-.058-.033-.08-.091l-.612-1.598-.792.457v1.738a.72.72 0 0 1-.066.326.569.569 0 0 1-.233.228l-.499.288c-.105.06-.181.073-.228.038zm1.752-4.093c.253-.146.442-.326.569-.541.126-.215.19-.476.19-.783 0-.308-.058-.499-.173-.575-.115-.075-.288-.047-.519.086l-.792.457v1.774l.725-.418z" fill="#455a64"/>
            <path d="M125.504 300.294c-.047-.035-.07-.118-.07-.248v-5.259c0-.13.023-.241.07-.333a.562.562 0 0 1 .229-.23l2.76-1.594c.107-.061.18-.076.22-.042.04.033.06.118.06.253v.328c0 .137-.02.245-.06.327a.518.518 0 0 1-.22.215l-1.962 1.133v1.401l1.37-.791c.106-.061.179-.075.219-.042.04.033.06.117.06.254v.31c0 .136-.02.245-.06.327a.521.521 0 0 1-.219.215l-1.37.792v1.41l1.956-1.129c.106-.061.18-.074.219-.038.04.036.06.122.06.258v.319c0 .136-.02.244-.06.323a.535.535 0 0 1-.22.211l-2.754 1.59c-.105.063-.182.076-.228.04z" fill="#455a64"/>
            <path d="M129.322 298.09c-.047-.035-.07-.118-.07-.247v-5.259c0-.13.023-.241.07-.333a.562.562 0 0 1 .229-.23l1.397-.807c.758-.438 1.335-.528 1.729-.271.395.257.592.906.592 1.946 0 1.029-.2 1.904-.599 2.625a4.484 4.484 0 0 1-1.723 1.731l-1.397.806c-.105.061-.182.075-.228.039zm1.679-1.949a2.16 2.16 0 0 0 .885-.95c.195-.405.293-.962.293-1.672 0-.709-.098-1.152-.293-1.329-.195-.177-.49-.152-.884.076l-.652.376v3.876l.651-.377z" fill="#455a64"/>
            <path d="M133.885 295.456c-.047-.035-.07-.118-.07-.248v-5.259c0-.13.023-.24.07-.333a.568.568 0 0 1 .229-.23l.499-.288c.111-.064.189-.078.233-.042.044.037.066.123.066.259v5.259c0 .13-.022.239-.066.327a.569.569 0 0 1-.233.228l-.499.288c-.107.061-.183.074-.229.039z" fill="#455a64"/>
            <path d="M136.764 293.793c-.046-.035-.07-.118-.07-.247v-4.568l-1.091.63c-.106.061-.18.076-.219.042-.04-.033-.06-.117-.06-.253v-.328c0-.135.02-.245.06-.327a.521.521 0 0 1 .219-.215l3.286-1.897c.106-.061.181-.074.223-.04.042.035.063.12.063.256v.328a.71.71 0 0 1-.063.32.531.531 0 0 1-.223.217l-1.091.63v4.567c0 .13-.023.239-.07.329a.586.586 0 0 1-.236.229l-.492.284c-.11.064-.189.078-.236.043z" fill="#455a64"/>
            <path d="M142.484 289.905c-.423-.296-.635-.953-.635-1.97 0-1.023.207-1.923.622-2.7a4.556 4.556 0 0 1 1.779-1.834c.324-.187.617-.314.881-.38s.487-.073.669-.018c.044.016.066.05.066.104a.485.485 0 0 1-.04.173l-.233.676c-.031.083-.062.134-.093.152-.027.015-.064.019-.113.012-.284-.048-.619.039-1.005.261a2.693 2.693 0 0 0-1.064 1.142c-.253.497-.379 1.092-.379 1.784 0 .698.132 1.145.396 1.341.264.196.624.163 1.081-.101a3.478 3.478 0 0 0 1.051-.926.49.49 0 0 1 .113-.118c.031-.018.062-.003.093.043l.259.445a.18.18 0 0 1 .027.091c0 .035-.027.095-.08.179-.346.531-.88 1.005-1.603 1.422-.771.444-1.368.519-1.792.222z" fill="#455a64"/>
            <path d="M146.199 288.288c0-.041.007-.092.02-.153l1.723-6.467a.992.992 0 0 1 .103-.268.461.461 0 0 1 .163-.152l.486-.28c.071-.041.124-.053.16-.034.036.017.069.068.1.15l1.723 4.477a.48.48 0 0 1 .02.131c0 .101-.04.174-.119.219l-.805.465c-.062.036-.108.049-.136.039-.029-.01-.054-.044-.077-.102l-.306-.87-1.616.933-.299 1.22a.664.664 0 0 1-.076.19.417.417 0 0 1-.136.119l-.805.465c-.083.046-.123.019-.123-.082zm2.8-3.718-.552-1.597-.559 2.238 1.111-.641z" fill="#455a64"/>
            <path d="M151.317 285.391c-.046-.035-.07-.118-.07-.248v-5.259c0-.13.023-.241.07-.333a.562.562 0 0 1 .229-.23l1.683-.972c1.126-.65 1.69-.319 1.69.993 0 .42-.067.814-.2 1.184a3.19 3.19 0 0 1-.592 1.011l.698 1.637c.014.034.02.071.02.113a.258.258 0 0 1-.14.24l-.738.426c-.062.036-.109.053-.14.05-.031-.003-.058-.033-.08-.091l-.612-1.598-.792.457v1.738c0 .13-.022.239-.066.327a.569.569 0 0 1-.233.228l-.499.288c-.104.061-.181.075-.228.039zm1.753-4.094c.253-.146.442-.326.569-.541.126-.215.189-.476.189-.783 0-.308-.057-.499-.173-.574-.115-.075-.288-.047-.519.086l-.792.457v1.774l.726-.419z" fill="#455a64"/>
            <path d="M155.534 282.957c-.047-.035-.07-.118-.07-.248v-5.259c0-.13.023-.24.07-.333a.562.562 0 0 1 .229-.23l1.397-.806c.758-.438 1.335-.528 1.729-.271.394.257.592.906.592 1.946 0 1.029-.199 1.903-.598 2.625s-.973 1.298-1.723 1.731l-1.397.806c-.106.061-.182.074-.229.039zm1.68-1.95a2.15 2.15 0 0 0 .885-.95c.195-.405.293-.963.293-1.672 0-.71-.098-1.152-.293-1.329-.195-.177-.49-.152-.885.076l-.652.376v3.875l.652-.376z" fill="#455a64"/>
            <g opacity=".15">
                <path d="M117.21 304.498c-.424-.297-.635-.953-.635-1.97 0-1.023.207-1.923.622-2.7a4.567 4.567 0 0 1 1.78-1.835c.324-.186.617-.313.881-.38s.487-.072.669-.018c.044.016.066.05.066.104a.494.494 0 0 1-.04.174l-.233.675c-.031.083-.062.134-.093.151-.026.015-.064.02-.113.012-.284-.049-.619.038-1.004.26a2.693 2.693 0 0 0-1.064 1.142c-.253.498-.379 1.092-.379 1.784 0 .698.132 1.145.396 1.341.264.197.624.163 1.081-.101a3.478 3.478 0 0 0 1.051-.926.47.47 0 0 1 .113-.118c.031-.018.062-.003.093.044l.26.444a.18.18 0 0 1 .026.091c0 .035-.026.095-.08.179-.346.531-.88 1.005-1.603 1.422-.773.447-1.371.521-1.794.225z" fill="#455a64"/>
                <path d="M121.287 302.729c-.046-.035-.07-.118-.07-.248v-5.259c0-.13.023-.241.07-.333a.562.562 0 0 1 .229-.23l1.683-.972c1.126-.65 1.69-.319 1.69.994 0 .42-.067.814-.2 1.184a3.2 3.2 0 0 1-.592 1.011l.698 1.637c.013.033.02.071.02.113a.262.262 0 0 1-.14.24l-.738.427c-.062.036-.109.052-.14.05-.031-.003-.058-.033-.08-.091l-.612-1.598-.792.457v1.738a.72.72 0 0 1-.066.326.569.569 0 0 1-.233.228l-.499.288c-.105.06-.181.073-.228.038zm1.752-4.093c.253-.146.442-.326.569-.541.126-.215.19-.476.19-.783 0-.308-.058-.499-.173-.575-.115-.075-.288-.047-.519.086l-.792.457v1.774l.725-.418z" fill="#455a64"/>
                <path d="M125.504 300.294c-.047-.035-.07-.118-.07-.248v-5.259c0-.13.023-.241.07-.333a.562.562 0 0 1 .229-.23l2.76-1.594c.107-.061.18-.076.22-.042.04.033.06.118.06.253v.328c0 .137-.02.245-.06.327a.518.518 0 0 1-.22.215l-1.962 1.133v1.401l1.37-.791c.106-.061.179-.075.219-.042.04.033.06.117.06.254v.31c0 .136-.02.245-.06.327a.521.521 0 0 1-.219.215l-1.37.792v1.41l1.956-1.129c.106-.061.18-.074.219-.038.04.036.06.122.06.258v.319c0 .136-.02.244-.06.323a.535.535 0 0 1-.22.211l-2.754 1.59c-.105.063-.182.076-.228.04z" fill="#455a64"/>
                <path d="M129.322 298.09c-.047-.035-.07-.118-.07-.247v-5.259c0-.13.023-.241.07-.333a.562.562 0 0 1 .229-.23l1.397-.807c.758-.438 1.335-.528 1.729-.271.395.257.592.906.592 1.946 0 1.029-.2 1.904-.599 2.625a4.484 4.484 0 0 1-1.723 1.731l-1.397.806c-.105.061-.182.075-.228.039zm1.679-1.949a2.16 2.16 0 0 0 .885-.95c.195-.405.293-.962.293-1.672 0-.709-.098-1.152-.293-1.329-.195-.177-.49-.152-.884.076l-.652.376v3.876l.651-.377z" fill="#455a64"/>
                <path d="M133.885 295.456c-.047-.035-.07-.118-.07-.248v-5.259c0-.13.023-.24.07-.333a.568.568 0 0 1 .229-.23l.499-.288c.111-.064.189-.078.233-.042.044.037.066.123.066.259v5.259c0 .13-.022.239-.066.327a.569.569 0 0 1-.233.228l-.499.288c-.107.061-.183.074-.229.039z" fill="#455a64"/>
                <path d="M136.764 293.793c-.046-.035-.07-.118-.07-.247v-4.568l-1.091.63c-.106.061-.18.076-.219.042-.04-.033-.06-.117-.06-.253v-.328c0-.135.02-.245.06-.327a.521.521 0 0 1 .219-.215l3.286-1.897c.106-.061.181-.074.223-.04.042.035.063.12.063.256v.328a.71.71 0 0 1-.063.32.531.531 0 0 1-.223.217l-1.091.63v4.567c0 .13-.023.239-.07.329a.586.586 0 0 1-.236.229l-.492.284c-.11.064-.189.078-.236.043z" fill="#455a64"/>
                <path d="M142.484 289.905c-.423-.296-.635-.953-.635-1.97 0-1.023.207-1.923.622-2.7a4.556 4.556 0 0 1 1.779-1.834c.324-.187.617-.314.881-.38s.487-.073.669-.018c.044.016.066.05.066.104a.485.485 0 0 1-.04.173l-.233.676c-.031.083-.062.134-.093.152-.027.015-.064.019-.113.012-.284-.048-.619.039-1.005.261a2.693 2.693 0 0 0-1.064 1.142c-.253.497-.379 1.092-.379 1.784 0 .698.132 1.145.396 1.341.264.196.624.163 1.081-.101a3.478 3.478 0 0 0 1.051-.926.49.49 0 0 1 .113-.118c.031-.018.062-.003.093.043l.259.445a.18.18 0 0 1 .027.091c0 .035-.027.095-.08.179-.346.531-.88 1.005-1.603 1.422-.771.444-1.368.519-1.792.222z" fill="#455a64"/>
                <path d="M146.199 288.288c0-.041.007-.092.02-.153l1.723-6.467a.992.992 0 0 1 .103-.268.461.461 0 0 1 .163-.152l.486-.28c.071-.041.124-.053.16-.034.036.017.069.068.1.15l1.723 4.477a.48.48 0 0 1 .02.131c0 .101-.04.174-.119.219l-.805.465c-.062.036-.108.049-.136.039-.029-.01-.054-.044-.077-.102l-.306-.87-1.616.933-.299 1.22a.664.664 0 0 1-.076.19.417.417 0 0 1-.136.119l-.805.465c-.083.046-.123.019-.123-.082zm2.8-3.718-.552-1.597-.559 2.238 1.111-.641z" fill="#455a64"/>
                <path d="M151.317 285.391c-.046-.035-.07-.118-.07-.248v-5.259c0-.13.023-.241.07-.333a.562.562 0 0 1 .229-.23l1.683-.972c1.126-.65 1.69-.319 1.69.993 0 .42-.067.814-.2 1.184a3.19 3.19 0 0 1-.592 1.011l.698 1.637c.014.034.02.071.02.113a.258.258 0 0 1-.14.24l-.738.426c-.062.036-.109.053-.14.05-.031-.003-.058-.033-.08-.091l-.612-1.598-.792.457v1.738c0 .13-.022.239-.066.327a.569.569 0 0 1-.233.228l-.499.288c-.104.061-.181.075-.228.039zm1.753-4.094c.253-.146.442-.326.569-.541.126-.215.189-.476.189-.783 0-.308-.057-.499-.173-.574-.115-.075-.288-.047-.519.086l-.792.457v1.774l.726-.419z" fill="#455a64"/>
                <path d="M155.534 282.957c-.047-.035-.07-.118-.07-.248v-5.259c0-.13.023-.24.07-.333a.562.562 0 0 1 .229-.23l1.397-.806c.758-.438 1.335-.528 1.729-.271.394.257.592.906.592 1.946 0 1.029-.199 1.903-.598 2.625s-.973 1.298-1.723 1.731l-1.397.806c-.106.061-.182.074-.229.039zm1.68-1.95a2.15 2.15 0 0 0 .885-.95c.195-.405.293-.963.293-1.672 0-.71-.098-1.152-.293-1.329-.195-.177-.49-.152-.885.076l-.652.376v3.875l.652-.376z" fill="#455a64"/>
            </g>
            <path d="m123.509 324.805 2.959-1.708c.384-.222.695-.042.695.401v.905c0 .443-.311.983-.696 1.205l-2.958 1.708c-.384.222-.696.042-.696-.402v-.905c0-.443.312-.982.696-1.204z" fill="#27debf"/>
            <path d="m116.985 328.572 2.959-1.708c.384-.222.696-.042.696.402v.905c0 .444-.311.983-.696 1.205l-2.959 1.708c-.384.222-.695.042-.695-.402v-.905c-.001-.445.311-.984.695-1.205z" fill="#27debf"/>
            <path d="m154.335 313.283-36.828 21.262c-.64.37-1.159 1.268-1.159 2.008v1.09c0 .739.519 1.039 1.159.669l36.828-21.263c.64-.369 1.159-1.268 1.159-2.007v-1.09c0-.739-.519-1.038-1.159-.669z" fill="#27debf"/>
            <path d="m123.509 324.805 2.959-1.708c.384-.222.695-.042.695.401v.905c0 .443-.311.983-.696 1.205l-2.958 1.708c-.384.222-.696.042-.696-.402v-.905c0-.443.312-.982.696-1.204z" fill="#455a64"/>
            <path d="m116.985 328.572 2.959-1.708c.384-.222.696-.042.696.402v.905c0 .444-.311.983-.696 1.205l-2.959 1.708c-.384.222-.695.042-.695-.402v-.905c-.001-.445.311-.984.695-1.205z" fill="#455a64"/>
            <path d="m154.335 313.283-36.828 21.262c-.64.37-1.159 1.268-1.159 2.008v1.09c0 .739.519 1.039 1.159.669l36.828-21.263c.64-.369 1.159-1.268 1.159-2.007v-1.09c0-.739-.519-1.038-1.159-.669z" fill="#455a64"/>
            <path d="m117.043 318.25.137-.079c.416-.24.754.015.754.57v2.9c0 .555-.342 1.215-.764 1.474l-.117.071c-.422.259-.764.018-.764-.537v-2.96c0-.554.338-1.199.754-1.439z" fill="#27debf"/>
            <path d="m120.933 316.018.137-.079c.416-.24.754.015.754.57v2.9c0 .555-.342 1.215-.764 1.474l-.117.072c-.422.259-.764.018-.764-.537v-2.96c0-.554.337-1.199.754-1.44z" fill="#27debf"/>
            <path d="m124.823 313.787.137-.079c.417-.24.754.015.754.57v2.9c0 .555-.342 1.215-.764 1.474l-.117.072c-.422.259-.764.018-.764-.537v-2.96c-.001-.555.337-1.2.754-1.44z" fill="#27debf"/>
            <path d="m128.712 311.556.137-.079c.417-.24.754.015.754.57v2.9c0 .555-.342 1.215-.764 1.474l-.117.071c-.422.259-.764.018-.764-.537v-2.96c0-.554.338-1.199.754-1.439z" fill="#27debf"/>
            <path d="m135.237 307.743.137-.079c.417-.24.754.015.754.571v2.9c0 .555-.342 1.215-.764 1.474l-.117.072c-.422.259-.764.018-.764-.537v-2.96c0-.555.337-1.2.754-1.441z" fill="#27debf"/>
            <path d="m139.127 305.512.137-.079c.416-.24.754.015.754.57v2.9c0 .555-.342 1.215-.764 1.474l-.117.072c-.422.259-.764.018-.764-.537v-2.96c-.001-.555.337-1.2.754-1.44z" fill="#27debf"/>
            <path d="m143.016 303.28.137-.079c.416-.24.754.015.754.571v2.9c0 .555-.342 1.215-.764 1.474l-.117.072c-.422.259-.764.018-.764-.537v-2.96c0-.555.338-1.2.754-1.441z" fill="#27debf"/>
            <path d="m146.906 301.049.137-.079c.417-.24.754.015.754.571v2.9c0 .555-.342 1.215-.764 1.474l-.117.072c-.422.259-.764.018-.764-.537v-2.96c0-.556.337-1.201.754-1.441z" fill="#27debf"/>
            <path d="m153.431 297.237.137-.079c.417-.24.754.015.754.571v2.9c0 .555-.342 1.215-.764 1.474l-.117.072c-.422.259-.764.018-.764-.537v-2.96c0-.556.337-1.201.754-1.441z" fill="#27debf"/>
            <path d="m157.32 295.006.137-.079c.417-.24.754.015.754.571v2.9c0 .555-.342 1.215-.764 1.474l-.117.071c-.422.259-.764.018-.764-.537v-2.96c0-.555.338-1.2.754-1.44z" fill="#27debf"/>
            <path d="m161.21 292.774.137-.079c.416-.24.754.015.754.571v2.9c0 .555-.342 1.215-.764 1.474l-.117.071c-.422.259-.764.018-.764-.537v-2.96c0-.555.338-1.2.754-1.44z" fill="#27debf"/>
            <path d="m165.1 290.543.137-.079c.416-.24.754.015.754.571v2.9c0 .555-.342 1.215-.764 1.474l-.117.072c-.422.259-.764.018-.764-.537v-2.96c0-.556.337-1.201.754-1.441z" fill="#27debf"/>
            <path d="m171.624 286.731.137-.079c.416-.24.754.015.754.571v2.9c0 .555-.342 1.215-.764 1.474l-.117.072c-.422.259-.764.018-.764-.537v-2.96c0-.556.338-1.201.754-1.441z" fill="#27debf"/>
            <path d="m175.514 284.499.137-.079c.417-.24.754.015.754.571v2.9c0 .555-.342 1.215-.764 1.474l-.117.072c-.422.259-.764.018-.764-.537v-2.96c0-.556.338-1.2.754-1.441z" fill="#27debf"/>
            <path d="m179.404 282.268.137-.079c.417-.24.754.015.754.571v2.9c0 .555-.342 1.215-.764 1.474l-.117.072c-.422.259-.764.018-.764-.537v-2.96c0-.556.337-1.201.754-1.441z" fill="#27debf"/>
            <path d="m183.293 280.036.137-.079c.416-.24.754.015.754.571v2.9c0 .555-.342 1.215-.764 1.474l-.117.072c-.422.259-.764.018-.764-.537v-2.96c0-.555.338-1.201.754-1.441z" fill="#27debf"/>
            <path fill="#27debf" d="m112.364 298.176-3.039-1.755v15.106l3.043 1.734-.004-15.085z"/>
            <path opacity=".2" d="m112.364 298.176-3.039-1.755v15.106l3.043 1.734-.004-15.085z"/>
        </g>
        <g>
            <path d="M109.61 153.008v48.021c0 .645.453 1.429 1.011 1.752l1.773 1.023c.559.322 1.464.322 2.023 0l34.01-19.563c.559-.323 1.011-1.107 1.011-1.752v-48.021c0-.645-.453-1.429-1.011-1.752l-1.773-1.023c-.559-.322-1.464-.322-2.023 0l-34.01 19.563c-.558.322-1.011 1.107-1.011 1.752z" fill="#ebebeb"/>
            <path d="M149.432 134.303c-.07-.523-.495-.715-1.004-.421l-34.008 19.564c-.28.159-.533.439-.719.757l-3.793-2.191c.187-.318.439-.593.715-.757l34.013-19.564c.556-.322 1.462-.322 2.023 0l1.771 1.023c.511.294.936.981 1.002 1.589z" fill="#f5f5f5"/>
            <path d="M114.242 203.884a.153.153 0 0 1-.061.023.495.495 0 0 1-.121.042c-.005.005-.009.005-.014.005a2.48 2.48 0 0 1-.206.051 2.33 2.33 0 0 1-1.219-.098 1.58 1.58 0 0 1-.224-.103l-1.775-1.023c-.556-.322-1.009-1.107-1.009-1.752v-48.023c0-.322.112-.677.294-.995l3.793 2.191c-.182.318-.294.673-.294.995v48.023c0 .229.056.411.154.533.126.154.318.219.542.173a.967.967 0 0 0 .14-.042z" fill="#e0e0e0"/>
            <path d="M139.479 172.569c-1.237 0-2.263-.279-3.107-.842a.325.325 0 0 1 .361-.542c1.091.728 2.565.911 4.5.562a.326.326 0 1 1 .117.64c-.672.122-1.294.182-1.871.182z" fill="#455a64"/>
            <path d="M135.997 170.921a.322.322 0 0 1-.242-.109c-1.144-1.281-1.263-3.22-1.389-5.274a84.343 84.343 0 0 0-.069-1.053c-.074-.977-.317-1.616-.723-1.898-.303-.21-.715-.236-1.258-.08a.325.325 0 0 1-.18-.625c.733-.212 1.343-.153 1.809.171.583.405.91 1.185.999 2.383.027.358.049.712.071 1.062.124 2.022.231 3.767 1.224 4.88a.325.325 0 0 1-.242.543z" fill="#455a64"/>
            <path d="M129.921 175.583a.325.325 0 0 1-.301-.202c-1.099-2.686-1.68-10.79 1.54-13.021a.326.326 0 0 1 .453.082.326.326 0 0 1-.083.453c-2.793 1.935-2.356 9.679-1.307 12.239a.325.325 0 0 1-.302.449z" fill="#455a64"/>
            <path d="M137.559 180.593c-3.279 0-5.874-1.425-7.397-4.099a.325.325 0 1 1 .565-.322c1.605 2.816 4.514 4.125 8.206 3.687a.326.326 0 0 1 .076.647c-.497.058-.98.087-1.45.087z" fill="#455a64"/>
            <path d="M138.282 178.703c-2.197 0-3.96-.628-5.255-1.873-2.017-1.939-2.871-5.372-2.536-10.203.064-.907.556-2.073 1.375-2.547.439-.242.88-.248 1.239-.032.399.239.622.701.613 1.269-.055 3.889.654 6.406 2.169 7.694 1.167.992 2.829 1.281 5.073.882.198-.026.347.088.378.264a.326.326 0 0 1-.263.377c-2.453.435-4.286.098-5.609-1.027-1.672-1.422-2.456-4.104-2.397-8.199.005-.329-.104-.585-.298-.702-.159-.094-.358-.085-.56.028-.55.317-1.012 1.208-1.069 2.039-.32 4.63.466 7.889 2.337 9.689 1.416 1.361 3.485 1.907 6.14 1.616.188-.011.339.111.359.289a.326.326 0 0 1-.288.359c-.489.05-.958.077-1.408.077z" fill="#455a64"/>
            <path d="M136.764 182.791c-2.668 0-4.82-.794-6.406-2.366-2.362-2.341-3.402-6.327-3.09-11.845.173-3.058 1.304-6.874 3.963-8.408l.105-.059c1.164-.641 2.256-.723 3.159-.235 1.092.59 1.774 1.956 1.918 3.847l.025.33c.142 1.91.289 3.885 1.533 4.861.796.624 1.979.793 3.614.517a.317.317 0 0 1 .375.267.325.325 0 0 1-.266.375c-1.827.309-3.176.098-4.124-.646-1.472-1.153-1.636-3.369-1.781-5.325l-.024-.328c-.128-1.663-.688-2.844-1.579-3.325-.7-.378-1.577-.297-2.536.232l-.096.054c-2.436 1.406-3.481 5.124-3.637 7.88-.301 5.324.674 9.142 2.899 11.346 1.631 1.617 3.947 2.342 6.846 2.148a.326.326 0 1 1 .042.649 15.1 15.1 0 0 1-.94.031z" fill="#455a64"/>
            <path d="M136.203 185.109c-1.087-.002-2.225-.207-3.385-.611a.325.325 0 1 1 .214-.615c1.091.379 2.158.572 3.172.574.18 0 .325.147.324.326a.325.325 0 0 1-.325.326z" fill="#455a64"/>
            <path d="M131.788 184.163a.313.313 0 0 1-.133-.029c-2.017-.91-3.523-2.31-4.356-4.05a.325.325 0 1 1 .587-.281c.776 1.622 2.134 2.88 4.036 3.738a.326.326 0 0 1-.134.622z" fill="#455a64"/>
            <path d="M127.017 178.883a.327.327 0 0 1-.308-.219c-1.266-3.644-2.043-11.11 1.009-16.745a.326.326 0 0 1 .572.31c-2.951 5.45-2.194 12.687-.965 16.222a.325.325 0 0 1-.308.432z" fill="#455a64"/>
            <path d="M137.629 163.701a.326.326 0 0 1-.324-.295c-.306-3.277-1.191-4.842-2.96-5.232-1.667-.37-3.781.814-5.379 3.012a.327.327 0 0 1-.455.072.327.327 0 0 1-.072-.455c1.779-2.444 4.094-3.695 6.045-3.264 2.632.581 3.23 3.261 3.468 5.807a.325.325 0 0 1-.294.354l-.029.001z" fill="#455a64"/>
            <path d="M140.452 168.26c-.571 0-1.089-.134-1.52-.402-.783-.486-1.257-1.365-1.411-2.611a.325.325 0 0 1 .646-.079c.128 1.041.5 1.761 1.107 2.137.617.384 1.495.406 2.472.064a.326.326 0 0 1 .216.614 4.59 4.59 0 0 1-1.51.277z" fill="#455a64"/>
            <path d="m134.877 186.872-.029-.001c-.555-.05-1.509-.195-3.378-.864-5.669-2.32-7.937-7.015-7.598-15.704.195-5.007 2.759-11.441 7.282-14.054 1.876-1.081 3.513-1.292 4.868-.628 1.617.794 2.688 2.807 3.098 5.822.45 3.325 1.285 3.905 2.856 3.847h.009a.325.325 0 0 1 .009.651c-2.147.042-3.065-1.053-3.519-4.411-.378-2.79-1.326-4.631-2.74-5.325-1.148-.563-2.58-.36-4.256.607-4.319 2.494-6.769 8.687-6.957 13.515-.411 10.522 3.399 13.523 7.181 15.071 1.786.639 2.684.776 3.203.823a.325.325 0 0 1-.029.651z" fill="#455a64"/>
            <path d="M141.97 163.701c-1.823 0-2.207-2.358-2.517-4.259-.044-.272-.088-.54-.134-.794a.325.325 0 0 1 .262-.378.322.322 0 0 1 .378.262c.046.258.091.53.136.806.287 1.761.631 3.754 1.926 3.712.169-.031.33.134.336.314a.325.325 0 0 1-.314.336l-.073.001z" fill="#455a64"/>
            <path d="M139.36 157.75a.325.325 0 0 1-.311-.229c-.656-2.117-1.905-3.447-3.516-3.747a.327.327 0 0 1-.261-.38.322.322 0 0 1 .379-.26c1.835.34 3.299 1.869 4.019 4.194a.325.325 0 0 1-.31.422z" fill="#455a64"/>
            <path d="M128.703 156.778a.324.324 0 0 1-.233-.552c1.869-1.924 4.105-3.077 6.137-3.162.156-.023.331.132.339.311a.327.327 0 0 1-.311.339c-1.839.078-3.969 1.186-5.697 2.965a.329.329 0 0 1-.235.099z" fill="#455a64"/>
            <path d="M123.324 165.992a.326.326 0 0 1-.316-.403c.717-2.904 2.297-5.957 4.335-8.374a.325.325 0 1 1 .497.419c-1.975 2.344-3.507 5.3-4.2 8.111a.325.325 0 0 1-.316.247z" fill="#455a64"/>
            <path d="M122.635 175.601a.326.326 0 0 1-.323-.286c-.328-2.699-.231-5.581.279-8.334a.326.326 0 0 1 .64.12c-.498 2.689-.592 5.503-.271 8.137a.325.325 0 0 1-.284.362l-.041.001z" fill="#455a64"/>
            <path d="M125.007 183.497a.326.326 0 0 1-.28-.159c-.999-1.677-1.786-3.938-2.216-6.368a.325.325 0 0 1 .641-.113c.417 2.354 1.175 4.538 2.134 6.149a.326.326 0 0 1-.279.491z" fill="#455a64"/>
            <path d="M132.123 188.934a.332.332 0 0 1-.123-.024c-2.962-1.211-5.035-2.653-6.338-4.408a.325.325 0 1 1 .523-.387c1.229 1.657 3.212 3.028 6.062 4.192a.325.325 0 0 1-.124.627z" fill="#455a64"/>
            <path d="M129.661 190.331a.323.323 0 0 1-.124-.025c-5.92-2.423-9.048-8.639-9.048-17.978 0-7.243 3.299-16.359 10.671-20.398 2.325-1.274 5.016-1.265 7.195.025 2.545 1.507 4.003 4.555 4.003 8.362a.324.324 0 1 1-.65 0c0-3.624-1.309-6.394-3.685-7.801-1.979-1.172-4.427-1.178-6.551-.014-7.138 3.911-10.334 12.776-10.334 19.826 0 6.313 1.5 14.452 8.645 17.376a.325.325 0 0 1-.122.627z" fill="#455a64"/>
            <path d="M138.735 176.717c-.234 0-.463-.007-.687-.02a.326.326 0 0 1-.306-.344c.01-.179.174-.31.344-.306a13.56 13.56 0 0 0 2.418-.095.326.326 0 0 1 .078.647c-.663.078-1.273.118-1.847.118z" fill="#455a64"/>
            <path d="M136.88 176.592a.336.336 0 0 1-.063-.006c-1.584-.312-2.91-1.278-3.545-2.583a.325.325 0 0 1 .15-.435.324.324 0 0 1 .435.15c.548 1.124 1.7 1.957 3.086 2.23a.326.326 0 0 1 .257.382.326.326 0 0 1-.32.262z" fill="#455a64"/>
            <path d="M133.055 173.186a.327.327 0 0 1-.299-.196c-.813-1.874-1.137-4.406-.913-7.129.014-.178.153-.32.35-.297.18.014.312.171.298.351-.212 2.58.102 5.064.862 6.816a.326.326 0 0 1-.298.455z" fill="#455a64"/>
            <path d="M139.64 150.12a.32.32 0 0 1-.192-.063c-1.249-.916-3.61-1.354-5.163-.954a.326.326 0 0 1-.162-.63c1.738-.45 4.301.026 5.709 1.059a.326.326 0 0 1-.192.588z" fill="#455a64"/>
            <path d="M125.924 154.111a.324.324 0 0 1-.245-.539c1.684-1.929 4.246-3.673 6.854-4.664a.326.326 0 0 1 .23.608c-2.512.955-4.978 2.631-6.594 4.483a.322.322 0 0 1-.245.112z" fill="#455a64"/>
            <path d="M126.137 191.1a.327.327 0 0 1-.144-.034c-.975-.48-1.852-1.19-2.608-2.11a.325.325 0 1 1 .502-.413c.696.848 1.502 1.5 2.392 1.939a.324.324 0 0 1 .148.436.32.32 0 0 1-.29.182z" fill="#455a64"/>
            <path d="M122.796 187.88a.322.322 0 0 1-.254-.123c-.982-1.233-1.817-2.729-2.289-4.106a.326.326 0 0 1 .202-.414.327.327 0 0 1 .413.202c.449 1.309 1.245 2.735 2.182 3.911a.325.325 0 0 1-.052.458.313.313 0 0 1-.202.072z" fill="#455a64"/>
        </g>
        <g>
            <path d="M305.826 359.151c-14.931-8.621-39.14-8.621-54.072 0-6.257 3.612-10.177 6.04-11.184 10.743v4.872c.007 3.63 1.555 7.26 4.642 10.535l-67.015 33.826v4.866l7.511 4.334h20.953l8.24-4.757v-4.6l6.566-3.663 9.137-.803 3.637-2.1.368-8.161 6.752-3.898 9.893 2.237 12.877-7.434c13.864 3.319 30.421 1.732 41.694-4.777 7.486-4.322 11.219-9.99 11.198-15.655v-4.82c-.676-5.069-4.484-6.869-11.197-10.745zm-9.327 13.956c-4.23 2.442-11.088 2.442-15.318 0s-4.23-6.402 0-8.844c4.23-2.442 11.088-2.442 15.318 0 4.23 2.443 4.23 6.402 0 8.844z" fill="#27debf"/>
            <path d="M305.826 359.151c-14.931-8.621-39.14-8.621-54.072 0-6.257 3.612-10.177 6.04-11.184 10.743v4.872c.007 3.63 1.555 7.26 4.642 10.535l-67.015 33.826v4.866l7.511 4.334h20.953l8.24-4.757v-4.6l6.566-3.663 9.137-.803 3.637-2.1.368-8.161 6.752-3.898 9.893 2.237 12.877-7.434c13.864 3.319 30.421 1.732 41.694-4.777 7.486-4.322 11.219-9.99 11.198-15.655v-4.82c-.676-5.069-4.484-6.869-11.197-10.745zm-9.327 13.956c-4.23 2.442-11.088 2.442-15.318 0s-4.23-6.402 0-8.844c4.23-2.442 11.088-2.442 15.318 0 4.23 2.443 4.23 6.402 0 8.844z" opacity=".1"/>
            <path d="M305.826 354.286c-14.931-8.621-39.14-8.621-54.072 0-12.269 7.083-14.435 17.777-6.542 26.15l-67.015 38.691 7.511 4.334h20.953l8.24-4.757-.557-4.289 7.123-3.974 9.137-.803 3.637-2.1.368-8.161 6.752-3.898 9.893 2.236 12.877-7.434c13.864 3.319 30.421 1.732 41.694-4.777 14.932-8.621 14.932-22.598.001-31.218zm-9.327 13.955c-4.23 2.442-11.088 2.442-15.318 0s-4.23-6.402 0-8.844c4.23-2.442 11.088-2.442 15.318 0 4.23 2.443 4.23 6.402 0 8.844z" fill="#27debf"/>
            <path d="M278.79 386.886c-9.335 0-18.033-2.055-24.494-5.784-5.501-3.178-8.656-7.262-8.656-11.207 0-3.945 3.155-8.03 8.656-11.207 6.461-3.729 15.159-5.784 24.494-5.784 9.335 0 18.033 2.055 24.494 5.784 5.502 3.177 8.657 7.262 8.657 11.207 0 3.945-3.155 8.03-8.657 11.207-6.461 3.729-15.16 5.784-24.494 5.784z" opacity=".3" fill="none" stroke="#000000" stroke-width="1.374" stroke-miterlimit="10"/>
            <path d="M292.55 390.484v4.863c-9.134 2.034-19.353 1.966-28.42-.203v-4.864c9.067 2.17 19.286 2.238 28.42.204z" opacity=".1"/>
            <path opacity=".1" d="M251.254 397.715v4.866l-9.893-2.237v-4.866l9.893 2.237z"/>
            <path opacity=".1" d="M234.609 399.376v4.866l-.369 8.162v-4.866l.369-8.162z"/>
            <path opacity=".1" d="M230.603 409.638v4.866l-9.137.802v-4.865l9.137-.803z"/>
            <path opacity=".1" d="M206.66 423.461v4.866h-20.953v-4.866h20.953z"/>
            <path opacity=".15" d="M178.197 419.127v4.866l7.51 4.334v-4.866l-3.291-1.9v2.1l-1.817-1.049v-2.122l-2.402-1.363z"/>
            <path fill="#27debf" d="m180.599 420.49 1.817 1.071v2.1l-1.817-1.049v-2.122z"/>
            <path opacity=".15" d="M180.599 420.49v2.122l68.726-39.682-1.818-1.071-66.908 38.631z"/>
            <path opacity=".15" d="M247.507 381.859v2.122l1.818-1.051-1.818-1.071z"/>
        </g>
    </g>
</svg>
