<svg width="1200" height="630" viewBox="0 0 1200 630" xmlns="http://www.w3.org/2000/svg">
  <rect width="1200" height="630" rx="36" fill="#f8fbfc"/>
  <rect x="70" y="72" width="1060" height="486" rx="28" fill="#ffffff" stroke="#d9e8ed" stroke-width="3"/>
  <text x="112" y="136" font-family="Inter, Arial, sans-serif" font-size="36" font-weight="700" fill="#264653">The experiment you wanted to run</text>
  <text x="112" y="182" font-family="Inter, Arial, sans-serif" font-size="22" fill="#3d5f6e">A real ML/data workflow starts broad, routes by evidence, and spends expensive compute only where it matters.</text>

  <g transform="translate(120 250)">
    <rect x="0" y="0" width="170" height="80" rx="18" fill="#eef7f9" stroke="#3d7a8a" stroke-width="3"/>
    <text x="85" y="34" font-family="Inter, Arial, sans-serif" font-size="20" font-weight="700" text-anchor="middle" fill="#264653">Inspect</text>
    <text x="85" y="60" font-family="Inter, Arial, sans-serif" font-size="16" text-anchor="middle" fill="#3d5f6e">cheap CPU</text>

    <path d="M190 40 C240 40 240 -90 300 -90" fill="none" stroke="#3d7a8a" stroke-width="4" stroke-linecap="round"/>
    <path d="M190 40 C250 40 250 40 310 40" fill="none" stroke="#3d7a8a" stroke-width="4" stroke-linecap="round"/>
    <path d="M190 40 C240 40 240 170 300 170" fill="none" stroke="#3d7a8a" stroke-width="4" stroke-linecap="round"/>

    <rect x="320" y="-130" width="190" height="80" rx="18" fill="#fff7e8" stroke="#c7862a" stroke-width="3"/>
    <text x="415" y="-96" font-family="Inter, Arial, sans-serif" font-size="20" font-weight="700" text-anchor="middle" fill="#704600">OCR</text>
    <text x="415" y="-70" font-family="Inter, Arial, sans-serif" font-size="16" text-anchor="middle" fill="#704600">scanned docs</text>

    <rect x="320" y="0" width="190" height="80" rx="18" fill="#eef7f9" stroke="#3d7a8a" stroke-width="3"/>
    <text x="415" y="34" font-family="Inter, Arial, sans-serif" font-size="20" font-weight="700" text-anchor="middle" fill="#264653">Parse</text>
    <text x="415" y="60" font-family="Inter, Arial, sans-serif" font-size="16" text-anchor="middle" fill="#3d5f6e">normal docs</text>

    <rect x="320" y="130" width="190" height="80" rx="18" fill="#f4effa" stroke="#8167b4" stroke-width="3"/>
    <text x="415" y="164" font-family="Inter, Arial, sans-serif" font-size="20" font-weight="700" text-anchor="middle" fill="#4c3b73">Vision</text>
    <text x="415" y="190" font-family="Inter, Arial, sans-serif" font-size="16" text-anchor="middle" fill="#4c3b73">hard pages</text>

    <path d="M530 -90 C610 -90 610 40 690 40" fill="none" stroke="#3d7a8a" stroke-width="4" stroke-linecap="round"/>
    <path d="M530 40 C610 40 610 40 690 40" fill="none" stroke="#3d7a8a" stroke-width="4" stroke-linecap="round"/>
    <path d="M530 170 C610 170 610 40 690 40" fill="none" stroke="#3d7a8a" stroke-width="4" stroke-linecap="round"/>

    <rect x="710" y="0" width="190" height="80" rx="18" fill="#eaf3ff" stroke="#4779bd" stroke-width="3"/>
    <text x="805" y="34" font-family="Inter, Arial, sans-serif" font-size="20" font-weight="700" text-anchor="middle" fill="#2b4d78">Embed</text>
    <text x="805" y="60" font-family="Inter, Arial, sans-serif" font-size="16" text-anchor="middle" fill="#2b4d78">GPU</text>

    <path d="M920 40 C970 40 970 40 1030 40" fill="none" stroke="#3d7a8a" stroke-width="4" stroke-linecap="round"/>
    <rect x="1050" y="0" width="190" height="80" rx="18" transform="translate(-140 0)" fill="#eef7f9" stroke="#3d7a8a" stroke-width="3"/>
    <text x="1005" y="34" font-family="Inter, Arial, sans-serif" font-size="20" font-weight="700" text-anchor="middle" fill="#264653">Evaluate</text>
    <text x="1005" y="60" font-family="Inter, Arial, sans-serif" font-size="16" text-anchor="middle" fill="#3d5f6e">fan in</text>
  </g>

  <line x1="116" y1="515" x2="1084" y2="515" stroke="#d9e8ed" stroke-width="2"/>
  <text x="112" y="548" font-family="Inter, Arial, sans-serif" font-size="22" font-weight="700" fill="#264653">The version you actually run is often smaller because the infrastructure gets a vote.</text>
</svg>
