<svg width="640" height="330" viewBox="0 0 640 330" xmlns="http://www.w3.org/2000/svg">
  <rect width="640" height="330" rx="22" fill="#f8fbfc"/>
  <rect x="20" y="20" width="600" height="290" rx="18" fill="#ffffff" stroke="#d9e8ed" stroke-width="2"/>
  <text x="42" y="60" font-family="Inter, Arial, sans-serif" font-size="28" font-weight="700" fill="#264653">The experiment you wanted to run</text>
  <text x="42" y="88" font-family="Inter, Arial, sans-serif" font-size="16" fill="#3d5f6e">Start broad. Route by evidence. Spend expensive compute only where it matters.</text>
  <g font-family="Inter, Arial, sans-serif">
    <rect x="42" y="142" width="88" height="58" rx="11" fill="#eef7f9" stroke="#3d7a8a" stroke-width="2.3"/>
    <text x="86" y="166" font-size="17" font-weight="700" text-anchor="middle" fill="#264653">Inspect</text>
    <text x="86" y="187" font-size="12" text-anchor="middle" fill="#3d5f6e">cheap CPU</text>
    <path d="M142 171 C170 171 172 113 202 113" fill="none" stroke="#3d7a8a" stroke-width="3" stroke-linecap="round"/>
    <path d="M142 171 C172 171 172 171 202 171" fill="none" stroke="#3d7a8a" stroke-width="3" stroke-linecap="round"/>
    <path d="M142 171 C170 171 172 229 202 229" fill="none" stroke="#3d7a8a" stroke-width="3" stroke-linecap="round"/>
    <rect x="212" y="88" width="108" height="50" rx="11" fill="#fff7e8" stroke="#c7862a" stroke-width="2.3"/>
    <text x="266" y="109" font-size="16" font-weight="700" text-anchor="middle" fill="#704600">OCR</text>
    <text x="266" y="128" font-size="12" text-anchor="middle" fill="#704600">scans</text>
    <rect x="212" y="146" width="108" height="50" rx="11" fill="#eef7f9" stroke="#3d7a8a" stroke-width="2.3"/>
    <text x="266" y="167" font-size="16" font-weight="700" text-anchor="middle" fill="#264653">Parse</text>
    <text x="266" y="186" font-size="12" text-anchor="middle" fill="#3d5f6e">normal docs</text>
    <rect x="212" y="204" width="108" height="50" rx="11" fill="#f4effa" stroke="#8167b4" stroke-width="2.3"/>
    <text x="266" y="225" font-size="16" font-weight="700" text-anchor="middle" fill="#4c3b73">Vision</text>
    <text x="266" y="244" font-size="12" text-anchor="middle" fill="#4c3b73">hard pages</text>
    <path d="M332 113 C360 113 360 171 388 171" fill="none" stroke="#3d7a8a" stroke-width="3" stroke-linecap="round"/>
    <path d="M332 171 C360 171 360 171 388 171" fill="none" stroke="#3d7a8a" stroke-width="3" stroke-linecap="round"/>
    <path d="M332 229 C360 229 360 171 388 171" fill="none" stroke="#3d7a8a" stroke-width="3" stroke-linecap="round"/>
    <rect x="398" y="142" width="96" height="58" rx="11" fill="#eaf3ff" stroke="#4779bd" stroke-width="2.3"/>
    <text x="446" y="166" font-size="17" font-weight="700" text-anchor="middle" fill="#2b4d78">Embed</text>
    <text x="446" y="187" font-size="12" text-anchor="middle" fill="#2b4d78">GPU</text>
    <path d="M506 171 C530 171 530 171 552 171" fill="none" stroke="#3d7a8a" stroke-width="3" stroke-linecap="round"/>
    <rect x="562" y="142" width="56" height="58" rx="11" fill="#eef7f9" stroke="#3d7a8a" stroke-width="2.3"/>
    <text x="590" y="166" font-size="15" font-weight="700" text-anchor="middle" fill="#264653">Eval</text>
    <text x="590" y="187" font-size="11" text-anchor="middle" fill="#3d5f6e">fan in</text>
    <line x1="42" y1="278" x2="598" y2="278" stroke="#d9e8ed" stroke-width="1.5"/>
    <text x="42" y="300" font-size="15" font-weight="700" fill="#264653">The version you actually run is smaller when infrastructure gets a vote.</text>
  </g>
</svg>
