<svg width="640" height="360" viewBox="0 0 640 360" xmlns="http://www.w3.org/2000/svg">
  <rect width="640" height="360" rx="22" fill="#f8fbfc"/>
  <rect x="20" y="20" width="600" height="320" rx="18" fill="#ffffff" stroke="#d9e8ed" stroke-width="2"/>
  <text x="42" y="58" font-family="Inter, Arial, sans-serif" font-size="24" font-weight="700" fill="#264653">The experiment you wanted to run</text>
  <text x="42" y="84" font-family="Inter, Arial, sans-serif" font-size="14" fill="#3d5f6e">Start broad. Route by evidence. Spend expensive compute only where it matters.</text>

  <g font-family="Inter, Arial, sans-serif">
    <rect x="42" y="150" width="82" height="48" rx="10" fill="#eef7f9" stroke="#3d7a8a" stroke-width="2"/>
    <text x="83" y="170" font-size="13" font-weight="700" text-anchor="middle" fill="#264653">Inspect</text>
    <text x="83" y="188" font-size="11" text-anchor="middle" fill="#3d5f6e">cheap CPU</text>

    <path d="M134 174 C166 174 166 111 198 111" fill="none" stroke="#3d7a8a" stroke-width="2.5" stroke-linecap="round"/>
    <path d="M134 174 C166 174 166 174 198 174" fill="none" stroke="#3d7a8a" stroke-width="2.5" stroke-linecap="round"/>
    <path d="M134 174 C166 174 166 237 198 237" fill="none" stroke="#3d7a8a" stroke-width="2.5" stroke-linecap="round"/>

    <rect x="208" y="87" width="100" height="48" rx="10" fill="#fff7e8" stroke="#c7862a" stroke-width="2"/>
    <text x="258" y="107" font-size="13" font-weight="700" text-anchor="middle" fill="#704600">OCR</text>
    <text x="258" y="125" font-size="11" text-anchor="middle" fill="#704600">scanned docs</text>

    <rect x="208" y="150" width="100" height="48" rx="10" fill="#eef7f9" stroke="#3d7a8a" stroke-width="2"/>
    <text x="258" y="170" font-size="13" font-weight="700" text-anchor="middle" fill="#264653">Parse</text>
    <text x="258" y="188" font-size="11" text-anchor="middle" fill="#3d5f6e">normal docs</text>

    <rect x="208" y="213" width="100" height="48" rx="10" fill="#f4effa" stroke="#8167b4" stroke-width="2"/>
    <text x="258" y="233" font-size="13" font-weight="700" text-anchor="middle" fill="#4c3b73">Vision</text>
    <text x="258" y="251" font-size="11" text-anchor="middle" fill="#4c3b73">hard pages</text>

    <path d="M318 111 C354 111 354 174 390 174" fill="none" stroke="#3d7a8a" stroke-width="2.5" stroke-linecap="round"/>
    <path d="M318 174 C354 174 354 174 390 174" fill="none" stroke="#3d7a8a" stroke-width="2.5" stroke-linecap="round"/>
    <path d="M318 237 C354 237 354 174 390 174" fill="none" stroke="#3d7a8a" stroke-width="2.5" stroke-linecap="round"/>

    <rect x="400" y="150" width="92" height="48" rx="10" fill="#eaf3ff" stroke="#4779bd" stroke-width="2"/>
    <text x="446" y="170" font-size="13" font-weight="700" text-anchor="middle" fill="#2b4d78">Embed</text>
    <text x="446" y="188" font-size="11" text-anchor="middle" fill="#2b4d78">GPU</text>

    <path d="M502 174 C526 174 526 174 550 174" fill="none" stroke="#3d7a8a" stroke-width="2.5" stroke-linecap="round"/>
    <rect x="560" y="150" width="54" height="48" rx="10" fill="#eef7f9" stroke="#3d7a8a" stroke-width="2"/>
    <text x="587" y="170" font-size="12" font-weight="700" text-anchor="middle" fill="#264653">Eval</text>
    <text x="587" y="188" font-size="10" text-anchor="middle" fill="#3d5f6e">fan in</text>

    <line x1="42" y1="296" x2="598" y2="296" stroke="#d9e8ed" stroke-width="1.5"/>
    <text x="42" y="322" font-size="14" font-weight="700" fill="#264653">The version you actually run is often smaller because infrastructure gets a vote.</text>
  </g>
</svg>
