<svg width="640" height="280" viewBox="0 0 640 280" xmlns="http://www.w3.org/2000/svg">
  <rect width="640" height="280" rx="22" fill="#f8fbfc"/>
  <rect x="20" y="20" width="600" height="240" rx="18" fill="#ffffff" stroke="#d9e8ed" stroke-width="2"/>
  <text x="42" y="60" font-family="Inter, Arial, sans-serif" font-size="28" font-weight="700" fill="#264653">Hardware as control flow</text>
  <text x="42" y="88" font-family="Inter, Arial, sans-serif" font-size="16" fill="#3d5f6e">Route each branch to the hardware and container it deserves.</text>
  <defs>
    <marker id="arrow" viewBox="0 0 10 10" refX="9" refY="5" markerWidth="8" markerHeight="8" orient="auto-start-reverse">
      <path d="M 0 0 L 10 5 L 0 10 z" fill="#3d7a8a"/>
    </marker>
  </defs>
  <g font-family="Inter, Arial, sans-serif">
    <rect x="42" y="137" width="90" height="58" rx="11" fill="#ffffff" stroke="#3d7a8a" stroke-width="2.3"/>
    <text x="87" y="161" font-size="17" font-weight="700" text-anchor="middle" fill="#264653">Local</text>
    <text x="87" y="182" font-size="12" text-anchor="middle" fill="#3d5f6e">script</text>
    <rect x="190" y="102" width="110" height="48" rx="11" fill="#eef7f9" stroke="#3d7a8a" stroke-width="2.3"/>
    <text x="245" y="122" font-size="15" font-weight="700" text-anchor="middle" fill="#264653">CPU</text>
    <text x="245" y="141" font-size="12" text-anchor="middle" fill="#3d5f6e">fan out</text>
    <rect x="190" y="156" width="110" height="48" rx="11" fill="#fff7e8" stroke="#c7862a" stroke-width="2.3"/>
    <text x="245" y="176" font-size="15" font-weight="700" text-anchor="middle" fill="#704600">Docker</text>
    <text x="245" y="195" font-size="12" text-anchor="middle" fill="#704600">GDAL / OCR</text>
    <rect x="190" y="210" width="110" height="48" rx="11" fill="#eaf3ff" stroke="#4779bd" stroke-width="2.3"/>
    <text x="245" y="230" font-size="15" font-weight="700" text-anchor="middle" fill="#2b4d78">GPU</text>
    <text x="245" y="249" font-size="12" text-anchor="middle" fill="#2b4d78">infer</text>
    <path d="M144 166 C166 166 166 126 180 126" stroke="#3d7a8a" stroke-width="3" fill="none" marker-end="url(#arrow)"/>
    <path d="M144 166 C166 166 166 180 180 180" stroke="#3d7a8a" stroke-width="3" fill="none" marker-end="url(#arrow)"/>
    <path d="M144 166 C166 166 166 234 180 234" stroke="#3d7a8a" stroke-width="3" fill="none" marker-end="url(#arrow)"/>
    <path d="M312 126 C346 126 346 166 382 166" stroke="#3d7a8a" stroke-width="3" fill="none" marker-end="url(#arrow)"/>
    <path d="M312 180 C346 180 346 166 382 166" stroke="#3d7a8a" stroke-width="3" fill="none" marker-end="url(#arrow)"/>
    <path d="M312 234 C346 234 346 166 382 166" stroke="#3d7a8a" stroke-width="3" fill="none" marker-end="url(#arrow)"/>
    <rect x="394" y="137" width="90" height="58" rx="11" fill="#ffffff" stroke="#3d7a8a" stroke-width="2.3"/>
    <text x="439" y="161" font-size="17" font-weight="700" text-anchor="middle" fill="#264653">Fan in</text>
    <text x="439" y="182" font-size="12" text-anchor="middle" fill="#3d5f6e">aggregate</text>
    <path d="M496 166 L532 166" stroke="#3d7a8a" stroke-width="3" fill="none" marker-end="url(#arrow)"/>
    <rect x="546" y="137" width="72" height="58" rx="11" fill="#f4effa" stroke="#8167b4" stroke-width="2.3"/>
    <text x="582" y="161" font-size="16" font-weight="700" text-anchor="middle" fill="#4c3b73">Rerun</text>
    <text x="582" y="182" font-size="12" text-anchor="middle" fill="#4c3b73">winners</text>
  </g>
</svg>
