<svg width="1280" height="720" viewBox="0 0 1280 720" xmlns="http://www.w3.org/2000/svg">
  <defs>
    <linearGradient id="bg" x1="0" y1="0" x2="1" y2="1">
      <stop offset="0" stop-color="#f8fbfc"/>
      <stop offset="1" stop-color="#edf6f8"/>
    </linearGradient>
    <linearGradient id="accent" x1="0" y1="0" x2="1" y2="0">
      <stop offset="0" stop-color="#2f6f7f"/>
      <stop offset="1" stop-color="#6aa5b0"/>
    </linearGradient>
    <filter id="shadow" x="-20%" y="-20%" width="140%" height="140%">
      <feDropShadow dx="0" dy="18" stdDeviation="18" flood-color="#17343d" flood-opacity="0.14"/>
    </filter>
  </defs>
  <rect width="1280" height="720" rx="42" fill="url(#bg)"/>
  <path d="M86 540C224 420 342 526 506 380C646 256 818 312 964 202C1068 124 1154 122 1204 142" fill="none" stroke="#d4e8ec" stroke-width="34" stroke-linecap="round"/>
  <g filter="url(#shadow)">
    <rect x="88" y="96" width="1104" height="528" rx="32" fill="#ffffff"/>
  </g>
  <rect x="88" y="96" width="1104" height="76" rx="32" fill="#f4fafb"/>
  <circle cx="132" cy="134" r="9" fill="#ff6b5f"/>
  <circle cx="164" cy="134" r="9" fill="#f4bf4f"/>
  <circle cx="196" cy="134" r="9" fill="#40bf6a"/>
  <rect x="232" y="120" width="316" height="28" rx="14" fill="#e4f1f4"/>
  <text x="116" y="224" font-family="Inter, Arial, sans-serif" font-size="32" font-weight="700" fill="#1f3942">Choose by workload shape</text>
  <text x="116" y="264" font-family="Inter, Arial, sans-serif" font-size="20" fill="#58717a">The examples are patterns to copy, not datasets to admire.</text>
  <g font-family="Inter, Arial, sans-serif">
    <g transform="translate(116 326)">
      <rect width="240" height="154" rx="22" fill="#f6fbfc" stroke="#d3e8ec"/>
      <rect x="24" y="26" width="58" height="58" rx="16" fill="#e0f1f4"/>
      <path d="M38 58h30M52 44v30" stroke="#2f6f7f" stroke-width="7" stroke-linecap="round"/>
      <text x="24" y="112" font-size="20" font-weight="700" fill="#203b44">ML batches</text>
      <text x="24" y="140" font-size="16" fill="#647c84">models, embeddings, GPUs</text>
    </g>
    <g transform="translate(388 326)">
      <rect width="240" height="154" rx="22" fill="#f6fbfc" stroke="#d3e8ec"/>
      <rect x="24" y="26" width="58" height="58" rx="16" fill="#e0f1f4"/>
      <path d="M38 44h30M38 58h30M38 72h22" stroke="#2f6f7f" stroke-width="7" stroke-linecap="round"/>
      <text x="24" y="112" font-size="20" font-weight="700" fill="#203b44">Full corpora</text>
      <text x="24" y="140" font-size="16" fill="#647c84">every file, row, or record</text>
    </g>
    <g transform="translate(660 326)">
      <rect width="240" height="154" rx="22" fill="#f6fbfc" stroke="#d3e8ec"/>
      <rect x="24" y="26" width="58" height="58" rx="16" fill="#e0f1f4"/>
      <path d="M36 74l18-34 18 34M45 60h18" stroke="#2f6f7f" stroke-width="7" stroke-linecap="round" stroke-linejoin="round"/>
      <text x="24" y="112" font-size="20" font-weight="700" fill="#203b44">Production IO</text>
      <text x="24" y="140" font-size="16" fill="#647c84">APIs, DBs, S3, websites</text>
    </g>
    <g transform="translate(932 326)">
      <rect width="240" height="154" rx="22" fill="#f6fbfc" stroke="#d3e8ec"/>
      <rect x="24" y="26" width="58" height="58" rx="16" fill="#e0f1f4"/>
      <path d="M35 70c18-42 30-42 48 0M38 52h42" stroke="#2f6f7f" stroke-width="7" stroke-linecap="round" fill="none"/>
      <text x="24" y="112" font-size="20" font-weight="700" fill="#203b44">Scientific jobs</text>
      <text x="24" y="140" font-size="16" fill="#647c84">genomics, rasters, sims</text>
    </g>
  </g>
  <path d="M218 524h844" stroke="url(#accent)" stroke-width="8" stroke-linecap="round"/>
  <g fill="#2f6f7f">
    <circle cx="218" cy="524" r="14"/>
    <circle cx="498" cy="524" r="14"/>
    <circle cx="782" cy="524" r="14"/>
    <circle cx="1062" cy="524" r="14"/>
  </g>
  <g font-family="Inter, Arial, sans-serif" font-size="17" fill="#58717a" text-anchor="middle">
    <text x="218" y="568">partition inputs</text>
    <text x="498" y="568">pick hardware</text>
    <text x="782" y="568">respect bottlenecks</text>
    <text x="1062" y="568">reduce results</text>
  </g>
</svg>
