<svg version="1.1" viewBox="0.0 0.0 960.0 540.0" fill="none" stroke="none" stroke-linecap="square" stroke-miterlimit="10" xmlns:xlink="http://www.w3.org/1999/xlink" xmlns="http://www.w3.org/2000/svg"><clipPath id="g2d5713552c5_1_0.0"><path d="m0 0l960.0 0l0 540.0l-960.0 0l0 -540.0z" clip-rule="nonzero"/></clipPath><g clip-path="url(#g2d5713552c5_1_0.0)"><path fill="#ffffff" d="m0 0l960.0 0l0 540.0l-960.0 0z" fill-rule="evenodd"/><path fill="#000000" fill-opacity="0.0" d="m248.20473 164.96063l599.937 0l0 210.07874l-599.937 0z" fill-rule="evenodd"/><path fill="#3b5a64" d="m263.97034 331.36063l0 -121.328125l52.703125 0q12.125 0 20.53125 3.5625q8.40625 3.546875 12.734375 10.3125q4.34375 6.75 4.34375 16.109375q0 10.40625 -5.203125 17.34375q-5.203125 6.921875 -14.90625 9.515625l-0.171875 -3.453125q8.140625 1.90625 14.125 6.234375q5.984375 4.328125 9.265625 10.75q3.296875 6.40625 3.296875 14.546875q0 9.015625 -2.953125 15.875q-2.9375 6.84375 -8.65625 11.34375q-5.71875 4.5 -13.4375 6.84375q-7.703125 2.34375 -17.234375 2.34375l-54.4375 0zm24.96875 -22.53125l28.421875 0q5.546875 0 9.4375 -1.640625q3.90625 -1.65625 5.984375 -5.125q2.09375 -3.46875 2.09375 -8.140625q0 -4.515625 -2.265625 -7.625q-2.25 -3.125 -6.328125 -4.765625q-4.0625 -1.65625 -9.78125 -1.65625l-27.5625 0l0 28.953125zm0 -49.578125l24.609375 0q4.6875 0 8.140625 -1.734375q3.46875 -1.734375 5.28125 -4.671875q1.828125 -2.953125 1.828125 -6.9375q0 -6.40625 -4.15625 -9.875q-4.15625 -3.46875 -12.65625 -3.46875l-23.046875 0l0 26.6875zm123.414764 73.84375q-10.0625 0 -17.265625 -4.421875q-7.1875 -4.421875 -11.09375 -12.65625q-3.890625 -8.234375 -3.890625 -19.84375l0 -56.5l24.609375 0l0 52.515625q0 6.234375 2.078125 10.828125q2.09375 4.59375 5.90625 7.03125q3.8125 2.421875 9.359375 2.421875q3.984375 0 7.359375 -1.296875q3.390625 -1.3125 5.890625 -3.734375q2.515625 -2.421875 3.90625 -5.71875q1.390625 -3.296875 1.390625 -7.109375l0 -54.9375l24.609375 0l0 91.6875l-23.40625 0l-0.859375 -18.890625l4.5 -2.078125q-2.078125 6.40625 -6.9375 11.609375q-4.84375 5.203125 -11.609375 8.15625q-6.75 2.9375 -14.546875 2.9375zm77.64987 -1.734375l0 -91.6875l23.734375 0l0.875 29.46875l-4.15625 -6.078125q2.078125 -7.09375 6.75 -12.90625q4.6875 -5.8125 11.015625 -9.09375q6.328125 -3.296875 13.25 -3.296875q2.953125 0 5.71875 0.515625q2.78125 0.515625 4.6875 1.21875l-6.59375 27.03125q-1.90625 -1.03125 -4.9375 -1.8125q-3.03125 -0.78125 -6.15625 -0.78125q-4.15625 0 -7.71875 1.46875q-3.546875 1.46875 -6.15625 4.15625q-2.59375 2.6875 -4.0625 6.328125q-1.46875 3.640625 -1.46875 7.984375l0 47.484375l-24.78125 0zm76.0896 0l0 -128.26562l24.609375 0l0 128.26562l-24.609375 0zm82.152466 1.734375q-11.4375 0 -20.625 -6.234375q-9.1875 -6.25 -14.5625 -16.984375q-5.375 -10.75 -5.375 -24.625q0 -13.859375 5.453125 -24.609375q5.46875 -10.75 14.828125 -16.8125q9.359375 -6.0625 21.328125 -6.0625q6.75 0 12.375 2.0q5.640625 1.984375 9.890625 5.453125q4.25 3.46875 7.1875 7.96875q2.953125 4.5 4.171875 9.703125l-5.203125 -0.859375l0 -22.359375l24.4375 0l0 91.6875l-24.78125 0l0 -22.015625l5.546875 -0.515625q-1.390625 4.859375 -4.515625 9.1875q-3.109375 4.328125 -7.703125 7.71875q-4.59375 3.375 -10.328125 5.375q-5.71875 1.984375 -12.125 1.984375zm6.765625 -21.328125q6.921875 0 12.125 -3.28125q5.203125 -3.296875 8.0625 -9.265625q2.859375 -5.984375 2.859375 -13.96875q0 -7.796875 -2.859375 -13.6875q-2.859375 -5.890625 -8.0625 -9.265625q-5.203125 -3.390625 -12.125 -3.390625q-6.765625 0 -11.875 3.390625q-5.109375 3.375 -8.0625 9.265625q-2.953125 5.890625 -2.953125 13.6875q0 7.984375 2.953125 13.96875q2.953125 5.96875 8.0625 9.265625q5.109375 3.28125 11.875 3.28125z" fill-rule="nonzero"/><path fill="#3b5a64" d="m140.18767 209.12651l40.503937 0l0 40.503937l-40.503937 0z" fill-rule="evenodd"/><path fill="#3b5a64" d="m180.68317 249.62158l40.503937 0l0 40.503937l-40.503937 0z" fill-rule="evenodd"/><path fill="#3b5a64" d="m140.18767 290.36798l40.503937 0l0 40.503937l-40.503937 0z" fill-rule="evenodd"/><path fill="#3b5a64" d="m738.805 290.36877l81.007935 0l0 40.503937l-81.007935 0z" fill-rule="evenodd"/><path fill="#000000" fill-opacity="0.0" d="m148.70866 397.6378l662.58264 0l0 66.11023l-662.58264 0z" fill-rule="evenodd"/><path fill="#6c838b" d="m164.09929 432.2378l0 -14.65625l-5.53125 0l0 -4.0l15.75 0l0 4.0l-5.6875 0l0 14.65625l-4.53125 0zm12.959778 0l0 -19.71875l4.1875 0l0 8.4375l-0.859375 0.328125q0.296875 -0.96875 1.046875 -1.75q0.765625 -0.78125 1.828125 -1.265625q1.078125 -0.484375 2.25 -0.484375q1.59375 0 2.6875 0.65625q1.09375 0.65625 1.65625 1.953125q0.5625 1.28125 0.5625 3.15625l0 8.6875l-4.296875 0l0 -8.34375q0 -0.859375 -0.25 -1.40625q-0.234375 -0.5625 -0.734375 -0.84375q-0.484375 -0.28125 -1.203125 -0.25q-0.5625 0 -1.046875 0.171875q-0.46875 0.171875 -0.8125 0.5q-0.34375 0.328125 -0.546875 0.765625q-0.203125 0.421875 -0.203125 0.921875l0 8.484375l-2.109375 0q-0.734375 0 -1.28125 0q-0.53125 0 -0.875 0zm23.676651 0.265625q-2.34375 0 -4.078125 -0.9375q-1.734375 -0.953125 -2.703125 -2.59375q-0.953125 -1.640625 -0.953125 -3.75q0 -1.625 0.53125 -2.984375q0.53125 -1.359375 1.484375 -2.359375q0.96875 -1.0 2.28125 -1.546875q1.328125 -0.546875 2.90625 -0.546875q1.484375 0 2.71875 0.546875q1.25 0.53125 2.15625 1.484375q0.90625 0.953125 1.375 2.265625q0.484375 1.3125 0.4375 2.859375l-0.03125 1.140625l-11.28125 0l-0.609375 -2.40625l8.421875 0l-0.453125 0.515625l0 -0.53125q-0.046875 -0.671875 -0.40625 -1.1875q-0.359375 -0.53125 -0.953125 -0.8125q-0.578125 -0.296875 -1.328125 -0.296875q-1.03125 0 -1.765625 0.421875q-0.734375 0.40625 -1.109375 1.1875q-0.375 0.78125 -0.375 1.9375q0 1.171875 0.484375 2.046875q0.5 0.859375 1.4375 1.34375q0.953125 0.46875 2.265625 0.46875q0.90625 0 1.609375 -0.265625q0.703125 -0.265625 1.53125 -0.90625l2.0 2.828125q-0.828125 0.71875 -1.765625 1.171875q-0.921875 0.453125 -1.90625 0.671875q-0.96875 0.234375 -1.921875 0.234375zm20.494217 -0.265625l-4.671875 -14.15625l4.515625 0l2.609375 9.203125l-0.5625 -0.109375l2.9375 -7.140625l2.5 0l3.09375 7.171875l-0.609375 0.046875l2.609375 -9.171875l4.5 0l-4.8125 14.15625l-3.15625 0l-3.0625 -7.59375l0.328125 0.046875l-3.078125 7.546875l-3.140625 0zm25.409363 0.265625q-2.21875 0 -3.9375 -0.953125q-1.71875 -0.96875 -2.71875 -2.609375q-1.0 -1.65625 -1.0 -3.796875q0 -2.125 1.0 -3.78125q1.0 -1.65625 2.71875 -2.609375q1.71875 -0.96875 3.9375 -0.96875q2.203125 0 3.921875 0.96875q1.71875 0.953125 2.703125 2.609375q1.0 1.65625 1.0 3.78125q0 2.140625 -1.0 3.796875q-0.984375 1.640625 -2.703125 2.609375q-1.71875 0.953125 -3.921875 0.953125zm0 -3.671875q0.953125 0 1.703125 -0.484375q0.75 -0.484375 1.171875 -1.3125q0.421875 -0.828125 0.390625 -1.890625q0.03125 -1.0625 -0.390625 -1.90625q-0.421875 -0.84375 -1.171875 -1.3125q-0.75 -0.484375 -1.703125 -0.484375q-0.96875 0 -1.734375 0.484375q-0.75 0.46875 -1.1875 1.3125q-0.421875 0.84375 -0.390625 1.90625q-0.03125 1.0625 0.390625 1.890625q0.4375 0.828125 1.1875 1.3125q0.765625 0.484375 1.734375 0.484375zm10.414719 3.40625l0 -14.15625l4.046875 0l0.1875 4.609375l-0.796875 -0.875q0.328125 -1.140625 1.0625 -2.046875q0.734375 -0.90625 1.71875 -1.4375q0.984375 -0.546875 2.09375 -0.546875q0.484375 0 0.890625 0.09375q0.421875 0.078125 0.765625 0.171875l-1.171875 4.71875q-0.296875 -0.1875 -0.796875 -0.296875q-0.484375 -0.125 -1.015625 -0.125q-0.578125 0 -1.09375 0.203125q-0.5 0.203125 -0.859375 0.578125q-0.34375 0.359375 -0.546875 0.875q-0.1875 0.5 -0.1875 1.140625l0 7.09375l-4.296875 0zm12.15979 0l0 -19.71875l4.265625 0l0 19.71875l-4.265625 0zm13.1649475 0.296875q-1.84375 0 -3.265625 -0.9375q-1.421875 -0.953125 -2.25 -2.625q-0.828125 -1.671875 -0.828125 -3.796875q0 -2.140625 0.828125 -3.796875q0.828125 -1.671875 2.265625 -2.625q1.4375 -0.96875 3.296875 -0.96875q0.96875 0 1.84375 0.296875q0.875 0.296875 1.59375 0.8125q0.734375 0.5 1.1875 1.15625q0.453125 0.640625 0.53125 1.34375l-1.015625 0.234375l0 -9.109375l4.296875 0l0 19.71875l-3.984375 0l-0.234375 -3.21875l0.859375 0.125q-0.09375 0.671875 -0.53125 1.28125q-0.4375 0.609375 -1.140625 1.078125q-0.6875 0.46875 -1.578125 0.75q-0.890625 0.28125 -1.875 0.28125zm1.09375 -3.546875q0.984375 0 1.703125 -0.484375q0.71875 -0.484375 1.109375 -1.328125q0.390625 -0.859375 0.390625 -2.0q0 -1.171875 -0.390625 -2.015625q-0.390625 -0.859375 -1.109375 -1.34375q-0.71875 -0.484375 -1.703125 -0.484375q-0.984375 0 -1.703125 0.484375q-0.703125 0.484375 -1.109375 1.34375q-0.390625 0.84375 -0.390625 2.015625q0 1.140625 0.390625 2.0q0.40625 0.84375 1.109375 1.328125q0.71875 0.484375 1.703125 0.484375zm11.01123 -8.1875l-1.234375 -1.484375q1.125 -0.484375 1.796875 -1.1875q0.6875 -0.71875 0.6875 -1.1875q0 -0.296875 -0.203125 -0.578125q-0.203125 -0.28125 -0.59375 -0.515625q-0.609375 -0.453125 -0.859375 -0.875q-0.234375 -0.4375 -0.234375 -0.9375q0 -0.828125 0.59375 -1.296875q0.609375 -0.484375 1.5625 -0.484375q0.796875 0 1.453125 0.40625q0.65625 0.40625 1.03125 1.171875q0.375 0.765625 0.375 1.75q0 0.84375 -0.328125 1.65625q-0.3125 0.8125 -0.921875 1.53125q-0.59375 0.703125 -1.390625 1.234375q-0.796875 0.53125 -1.734375 0.796875zm12.091492 11.703125q-2.078125 0 -3.671875 -0.65625q-1.578125 -0.671875 -2.5 -1.796875l2.578125 -2.234375q0.828125 0.828125 1.859375 1.21875q1.046875 0.375 1.984375 0.375q0.375 0 0.65625 -0.078125q0.296875 -0.078125 0.5 -0.21875q0.203125 -0.15625 0.3125 -0.34375q0.109375 -0.203125 0.109375 -0.46875q0 -0.546875 -0.484375 -0.828125q-0.25 -0.140625 -0.8125 -0.328125q-0.546875 -0.1875 -1.4375 -0.421875q-1.25 -0.328125 -2.171875 -0.765625q-0.90625 -0.4375 -1.5 -1.015625q-0.53125 -0.5625 -0.828125 -1.234375q-0.296875 -0.6875 -0.296875 -1.546875q0 -0.984375 0.46875 -1.78125q0.46875 -0.796875 1.25 -1.375q0.796875 -0.59375 1.8125 -0.90625q1.03125 -0.3125 2.125 -0.3125q1.171875 0 2.234375 0.265625q1.078125 0.265625 1.984375 0.75q0.921875 0.484375 1.640625 1.15625l-2.234375 2.5q-0.484375 -0.453125 -1.078125 -0.8125q-0.59375 -0.359375 -1.234375 -0.5625q-0.640625 -0.21875 -1.171875 -0.21875q-0.40625 0 -0.71875 0.0625q-0.296875 0.0625 -0.515625 0.21875q-0.21875 0.140625 -0.328125 0.34375q-0.09375 0.1875 -0.09375 0.453125q0 0.28125 0.140625 0.515625q0.15625 0.234375 0.421875 0.390625q0.265625 0.171875 0.84375 0.375q0.59375 0.1875 1.609375 0.484375q1.25 0.34375 2.15625 0.78125q0.90625 0.421875 1.4375 1.0q0.421875 0.453125 0.640625 1.0625q0.21875 0.59375 0.21875 1.296875q0 1.359375 -0.765625 2.40625q-0.765625 1.046875 -2.09375 1.65625q-1.328125 0.59375 -3.046875 0.59375zm21.724762 0q-2.078125 0 -3.671875 -0.65625q-1.578125 -0.671875 -2.5 -1.796875l2.578125 -2.234375q0.828125 0.828125 1.859375 1.21875q1.046875 0.375 1.984375 0.375q0.375 0 0.65625 -0.078125q0.296875 -0.078125 0.5 -0.21875q0.203125 -0.15625 0.3125 -0.34375q0.109375 -0.203125 0.109375 -0.46875q0 -0.546875 -0.484375 -0.828125q-0.25 -0.140625 -0.8125 -0.328125q-0.546875 -0.1875 -1.4375 -0.421875q-1.25 -0.328125 -2.171875 -0.765625q-0.90625 -0.4375 -1.5 -1.015625q-0.53125 -0.5625 -0.828125 -1.234375q-0.296875 -0.6875 -0.296875 -1.546875q0 -0.984375 0.46875 -1.78125q0.46875 -0.796875 1.25 -1.375q0.796875 -0.59375 1.8125 -0.90625q1.03125 -0.3125 2.125 -0.3125q1.171875 0 2.234375 0.265625q1.078125 0.265625 1.984375 0.75q0.921875 0.484375 1.640625 1.15625l-2.234375 2.5q-0.484375 -0.453125 -1.078125 -0.8125q-0.59375 -0.359375 -1.234375 -0.5625q-0.640625 -0.21875 -1.171875 -0.21875q-0.40625 0 -0.71875 0.0625q-0.296875 0.0625 -0.515625 0.21875q-0.21875 0.140625 -0.328125 0.34375q-0.09375 0.1875 -0.09375 0.453125q0 0.28125 0.140625 0.515625q0.15625 0.234375 0.421875 0.390625q0.265625 0.171875 0.84375 0.375q0.59375 0.1875 1.609375 0.484375q1.25 0.34375 2.15625 0.78125q0.90625 0.421875 1.4375 1.0q0.421875 0.453125 0.640625 1.0625q0.21875 0.59375 0.21875 1.296875q0 1.359375 -0.765625 2.40625q-0.765625 1.046875 -2.09375 1.65625q-1.328125 0.59375 -3.046875 0.59375zm8.663544 -0.265625l0 -14.15625l4.265625 0l0 14.15625l-4.265625 0zm2.140625 -16.953125q-1.203125 0 -1.890625 -0.5625q-0.671875 -0.578125 -0.671875 -1.65625q0 -0.953125 0.6875 -1.5625q0.703125 -0.625 1.875 -0.625q1.203125 0 1.859375 0.578125q0.671875 0.578125 0.671875 1.609375q0 1.0 -0.6875 1.609375q-0.671875 0.609375 -1.84375 0.609375zm6.097046 16.953125l0 -14.15625l4.0625 0l0.125 2.5625l-0.5625 0.03125q0.328125 -0.703125 0.8125 -1.234375q0.5 -0.53125 1.125 -0.890625q0.625 -0.359375 1.296875 -0.546875q0.6875 -0.1875 1.390625 -0.1875q1.03125 0 1.875 0.328125q0.859375 0.3125 1.5 1.015625q0.640625 0.703125 1.015625 1.90625l-0.671875 -0.046875l0.21875 -0.4375q0.34375 -0.625 0.890625 -1.140625q0.546875 -0.53125 1.203125 -0.890625q0.671875 -0.359375 1.390625 -0.546875q0.734375 -0.1875 1.390625 -0.1875q1.6875 0 2.796875 0.65625q1.125 0.65625 1.6875 1.96875q0.578125 1.296875 0.578125 3.15625l0 8.640625l-4.28125 0l0 -8.296875q0 -0.84375 -0.25 -1.40625q-0.234375 -0.5625 -0.703125 -0.84375q-0.46875 -0.28125 -1.15625 -0.28125q-0.5625 0 -1.03125 0.1875q-0.46875 0.1875 -0.796875 0.515625q-0.328125 0.3125 -0.515625 0.75q-0.1875 0.421875 -0.1875 0.953125l0 8.421875l-4.296875 0l0 -8.3125q0 -0.796875 -0.234375 -1.359375q-0.234375 -0.5625 -0.71875 -0.859375q-0.484375 -0.296875 -1.125 -0.296875q-0.5625 0 -1.03125 0.1875q-0.453125 0.1875 -0.796875 0.515625q-0.328125 0.3125 -0.515625 0.75q-0.1875 0.421875 -0.1875 0.921875l0 8.453125l-4.296875 0zm25.674469 5.859375l0 -20.015625l4.046875 0l0.171875 3.171875l-0.8125 -0.234375q0.1875 -0.890625 0.90625 -1.609375q0.734375 -0.71875 1.828125 -1.15625q1.109375 -0.4375 2.34375 -0.4375q1.8125 0 3.21875 0.953125q1.40625 0.9375 2.21875 2.578125q0.828125 1.640625 0.828125 3.796875q0 2.140625 -0.828125 3.796875q-0.8125 1.640625 -2.234375 2.59375q-1.421875 0.9375 -3.265625 0.9375q-1.203125 0 -2.296875 -0.453125q-1.078125 -0.453125 -1.828125 -1.21875q-0.75 -0.78125 -0.984375 -1.6875l0.984375 -0.359375l0 9.34375l-4.296875 0zm7.390625 -9.21875q0.953125 0 1.671875 -0.46875q0.71875 -0.46875 1.109375 -1.28125q0.40625 -0.828125 0.40625 -1.984375q0 -1.109375 -0.40625 -1.953125q-0.390625 -0.84375 -1.09375 -1.3125q-0.703125 -0.46875 -1.6875 -0.46875q-0.984375 0 -1.71875 0.453125q-0.71875 0.453125 -1.125 1.3125q-0.390625 0.859375 -0.390625 1.96875q0 1.15625 0.390625 1.984375q0.40625 0.8125 1.125 1.28125q0.734375 0.46875 1.71875 0.46875zm10.207031 3.359375l0 -19.71875l4.265625 0l0 19.71875l-4.265625 0zm14.5555725 0.265625q-2.34375 0 -4.078125 -0.9375q-1.734375 -0.953125 -2.703125 -2.59375q-0.953125 -1.640625 -0.953125 -3.75q0 -1.625 0.53125 -2.984375q0.53125 -1.359375 1.484375 -2.359375q0.96875 -1.0 2.28125 -1.546875q1.328125 -0.546875 2.90625 -0.546875q1.484375 0 2.71875 0.546875q1.25 0.53125 2.15625 1.484375q0.90625 0.953125 1.375 2.265625q0.484375 1.3125 0.4375 2.859375l-0.03125 1.140625l-11.28125 0l-0.609375 -2.40625l8.421875 0l-0.453125 0.515625l0 -0.53125q-0.046875 -0.671875 -0.40625 -1.1875q-0.359375 -0.53125 -0.953125 -0.8125q-0.578125 -0.296875 -1.328125 -0.296875q-1.03125 0 -1.765625 0.421875q-0.734375 0.40625 -1.109375 1.1875q-0.375 0.78125 -0.375 1.9375q0 1.171875 0.484375 2.046875q0.5 0.859375 1.4375 1.34375q0.953125 0.46875 2.265625 0.46875q0.90625 0 1.609375 -0.265625q0.703125 -0.265625 1.53125 -0.90625l2.0 2.828125q-0.828125 0.71875 -1.765625 1.171875q-0.921875 0.453125 -1.90625 0.671875q-0.96875 0.234375 -1.921875 0.234375zm13.636108 0q-2.078125 0 -3.671875 -0.65625q-1.578125 -0.671875 -2.5 -1.796875l2.578125 -2.234375q0.828125 0.828125 1.859375 1.21875q1.046875 0.375 1.984375 0.375q0.375 0 0.65625 -0.078125q0.296875 -0.078125 0.5 -0.21875q0.203125 -0.15625 0.3125 -0.34375q0.109375 -0.203125 0.109375 -0.46875q0 -0.546875 -0.484375 -0.828125q-0.25 -0.140625 -0.8125 -0.328125q-0.546875 -0.1875 -1.4375 -0.421875q-1.25 -0.328125 -2.171875 -0.765625q-0.90625 -0.4375 -1.5 -1.015625q-0.53125 -0.5625 -0.828125 -1.234375q-0.296875 -0.6875 -0.296875 -1.546875q0 -0.984375 0.46875 -1.78125q0.46875 -0.796875 1.25 -1.375q0.796875 -0.59375 1.8125 -0.90625q1.03125 -0.3125 2.125 -0.3125q1.171875 0 2.234375 0.265625q1.078125 0.265625 1.984375 0.75q0.921875 0.484375 1.640625 1.15625l-2.234375 2.5q-0.484375 -0.453125 -1.078125 -0.8125q-0.59375 -0.359375 -1.234375 -0.5625q-0.640625 -0.21875 -1.171875 -0.21875q-0.40625 0 -0.71875 0.0625q-0.296875 0.0625 -0.515625 0.21875q-0.21875 0.140625 -0.328125 0.34375q-0.09375 0.1875 -0.09375 0.453125q0 0.28125 0.140625 0.515625q0.15625 0.234375 0.421875 0.390625q0.265625 0.171875 0.84375 0.375q0.59375 0.1875 1.609375 0.484375q1.25 0.34375 2.15625 0.78125q0.90625 0.421875 1.4375 1.0q0.421875 0.453125 0.640625 1.0625q0.21875 0.59375 0.21875 1.296875q0 1.359375 -0.765625 2.40625q-0.765625 1.046875 -2.09375 1.65625q-1.328125 0.59375 -3.046875 0.59375zm9.601044 -0.265625l0 -17.71875l4.265625 0l0 17.71875l-4.265625 0zm-2.5 -10.421875l0 -3.734375l9.515625 0l0 3.734375l-9.515625 0zm26.686005 10.6875q-2.0625 0 -3.6875 -0.953125q-1.625 -0.96875 -2.578125 -2.625q-0.9375 -1.671875 -0.9375 -3.78125q0 -2.109375 0.9375 -3.765625q0.953125 -1.671875 2.578125 -2.625q1.625 -0.96875 3.6875 -0.96875q1.890625 0 3.46875 0.671875q1.59375 0.671875 2.515625 1.859375l-2.3125 2.78125q-0.375 -0.421875 -0.890625 -0.796875q-0.5 -0.375 -1.109375 -0.59375q-0.609375 -0.21875 -1.28125 -0.21875q-1.015625 0 -1.796875 0.46875q-0.765625 0.46875 -1.1875 1.296875q-0.421875 0.828125 -0.421875 1.890625q0 1.015625 0.4375 1.84375q0.4375 0.828125 1.203125 1.3125q0.78125 0.46875 1.765625 0.46875q0.703125 0 1.28125 -0.171875q0.59375 -0.171875 1.078125 -0.515625q0.5 -0.34375 0.921875 -0.859375l2.296875 2.796875q-0.90625 1.15625 -2.53125 1.828125q-1.609375 0.65625 -3.4375 0.65625zm8.340088 -0.265625l0 -19.71875l4.265625 0l0 19.71875l-4.265625 0zm12.767029 0.296875q-1.578125 0 -2.6875 -0.671875q-1.09375 -0.6875 -1.703125 -1.96875q-0.59375 -1.28125 -0.59375 -3.0625l0 -8.75l4.296875 0l0 8.15625q0 0.859375 0.265625 1.46875q0.265625 0.609375 0.796875 0.953125q0.53125 0.328125 1.28125 0.328125q0.5625 0 1.015625 -0.1875q0.46875 -0.1875 0.796875 -0.515625q0.34375 -0.34375 0.53125 -0.78125q0.1875 -0.4375 0.1875 -0.96875l0 -8.453125l4.28125 0l0 14.15625l-4.015625 0l-0.1875 -2.90625l0.796875 -0.3125q-0.3125 1.0 -1.0625 1.796875q-0.75 0.78125 -1.796875 1.25q-1.03125 0.46875 -2.203125 0.46875zm17.05075 -0.03125q-2.078125 0 -3.671875 -0.65625q-1.578125 -0.671875 -2.5 -1.796875l2.578125 -2.234375q0.828125 0.828125 1.859375 1.21875q1.046875 0.375 1.984375 0.375q0.375 0 0.65625 -0.078125q0.296875 -0.078125 0.5 -0.21875q0.203125 -0.15625 0.3125 -0.34375q0.109375 -0.203125 0.109375 -0.46875q0 -0.546875 -0.484375 -0.828125q-0.25 -0.140625 -0.8125 -0.328125q-0.546875 -0.1875 -1.4375 -0.421875q-1.25 -0.328125 -2.171875 -0.765625q-0.90625 -0.4375 -1.5 -1.015625q-0.53125 -0.5625 -0.828125 -1.234375q-0.296875 -0.6875 -0.296875 -1.546875q0 -0.984375 0.46875 -1.78125q0.46875 -0.796875 1.25 -1.375q0.796875 -0.59375 1.8125 -0.90625q1.03125 -0.3125 2.125 -0.3125q1.171875 0 2.234375 0.265625q1.078125 0.265625 1.984375 0.75q0.921875 0.484375 1.640625 1.15625l-2.234375 2.5q-0.484375 -0.453125 -1.078125 -0.8125q-0.59375 -0.359375 -1.234375 -0.5625q-0.640625 -0.21875 -1.171875 -0.21875q-0.40625 0 -0.71875 0.0625q-0.296875 0.0625 -0.515625 0.21875q-0.21875 0.140625 -0.328125 0.34375q-0.09375 0.1875 -0.09375 0.453125q0 0.28125 0.140625 0.515625q0.15625 0.234375 0.421875 0.390625q0.265625 0.171875 0.84375 0.375q0.59375 0.1875 1.609375 0.484375q1.25 0.34375 2.15625 0.78125q0.90625 0.421875 1.4375 1.0q0.421875 0.453125 0.640625 1.0625q0.21875 0.59375 0.21875 1.296875q0 1.359375 -0.765625 2.40625q-0.765625 1.046875 -2.09375 1.65625q-1.328125 0.59375 -3.046875 0.59375zm9.601044 -0.265625l0 -17.71875l4.265625 0l0 17.71875l-4.265625 0zm-2.5 -10.421875l0 -3.734375l9.515625 0l0 3.734375l-9.515625 0zm18.553986 10.6875q-2.3437805 0 -4.0781555 -0.9375q-1.734375 -0.953125 -2.703125 -2.59375q-0.953125 -1.640625 -0.953125 -3.75q0 -1.625 0.53125 -2.984375q0.53125 -1.359375 1.484375 -2.359375q0.96875 -1.0 2.28125 -1.546875q1.3281555 -0.546875 2.9062805 -0.546875q1.484375 0 2.71875 0.546875q1.25 0.53125 2.15625 1.484375q0.90625 0.953125 1.375 2.265625q0.484375 1.3125 0.4375 2.859375l-0.03125 1.140625l-11.2812805 0l-0.609375 -2.40625l8.4219055 0l-0.453125 0.515625l0 -0.53125q-0.046875 -0.671875 -0.40625 -1.1875q-0.359375 -0.53125 -0.953125 -0.8125q-0.578125 -0.296875 -1.328125 -0.296875q-1.03125 0 -1.765625 0.421875q-0.7344055 0.40625 -1.1094055 1.1875q-0.375 0.78125 -0.375 1.9375q0 1.171875 0.484375 2.046875q0.5 0.859375 1.4375305 1.34375q0.953125 0.46875 2.265625 0.46875q0.90625 0 1.609375 -0.265625q0.703125 -0.265625 1.53125 -0.90625l2.0 2.828125q-0.828125 0.71875 -1.765625 1.171875q-0.921875 0.453125 -1.90625 0.671875q-0.96875 0.234375 -1.921875 0.234375zm8.870483 -0.265625l0 -14.15625l4.046875 0l0.1875 4.609375l-0.796875 -0.875q0.328125 -1.140625 1.0625 -2.046875q0.734375 -0.90625 1.71875 -1.4375q0.984375 -0.546875 2.09375 -0.546875q0.484375 0 0.890625 0.09375q0.421875 0.078125 0.765625 0.171875l-1.171875 4.71875q-0.296875 -0.1875 -0.796875 -0.296875q-0.484375 -0.125 -1.015625 -0.125q-0.578125 0 -1.09375 0.203125q-0.5 0.203125 -0.859375 0.578125q-0.34375 0.359375 -0.546875 0.875q-0.1875 0.5 -0.1875 1.140625l0 7.09375l-4.296875 0zm26.877258 0.265625q-2.0625 0 -3.6875 -0.953125q-1.625 -0.96875 -2.578125 -2.625q-0.9375 -1.671875 -0.9375 -3.78125q0 -2.109375 0.9375 -3.765625q0.953125 -1.671875 2.578125 -2.625q1.625 -0.96875 3.6875 -0.96875q1.890625 0 3.46875 0.671875q1.59375 0.671875 2.515625 1.859375l-2.3125 2.78125q-0.375 -0.421875 -0.890625 -0.796875q-0.5 -0.375 -1.109375 -0.59375q-0.609375 -0.21875 -1.28125 -0.21875q-1.015625 0 -1.796875 0.46875q-0.765625 0.46875 -1.1875 1.296875q-0.421875 0.828125 -0.421875 1.890625q0 1.015625 0.4375 1.84375q0.4375 0.828125 1.203125 1.3125q0.78125 0.46875 1.765625 0.46875q0.703125 0 1.28125 -0.171875q0.59375 -0.171875 1.078125 -0.515625q0.5 -0.34375 0.921875 -0.859375l2.296875 2.796875q-0.90625 1.15625 -2.53125 1.828125q-1.609375 0.65625 -3.4375 0.65625zm14.980713 0q-2.21875 0 -3.9375 -0.953125q-1.71875 -0.96875 -2.71875 -2.609375q-1.0 -1.65625 -1.0 -3.796875q0 -2.125 1.0 -3.78125q1.0 -1.65625 2.71875 -2.609375q1.71875 -0.96875 3.9375 -0.96875q2.203125 0 3.921875 0.96875q1.71875 0.953125 2.703125 2.609375q1.0 1.65625 1.0 3.78125q0 2.140625 -1.0 3.796875q-0.984375 1.640625 -2.703125 2.609375q-1.71875 0.953125 -3.921875 0.953125zm0 -3.671875q0.953125 0 1.703125 -0.484375q0.75 -0.484375 1.171875 -1.3125q0.421875 -0.828125 0.390625 -1.890625q0.03125 -1.0625 -0.390625 -1.90625q-0.421875 -0.84375 -1.171875 -1.3125q-0.75 -0.484375 -1.703125 -0.484375q-0.96875 0 -1.734375 0.484375q-0.75 0.46875 -1.1875 1.3125q-0.421875 0.84375 -0.390625 1.90625q-0.03125 1.0625 0.390625 1.890625q0.4375 0.828125 1.1875 1.3125q0.765625 0.484375 1.734375 0.484375zm10.383484 3.40625l0 -14.15625l4.0625 0l0.125 2.5625l-0.5625 0.03125q0.328125 -0.703125 0.8125 -1.234375q0.5 -0.53125 1.125 -0.890625q0.625 -0.359375 1.296875 -0.546875q0.6875 -0.1875 1.390625 -0.1875q1.03125 0 1.875 0.328125q0.859375 0.3125 1.5 1.015625q0.640625 0.703125 1.015625 1.90625l-0.671875 -0.046875l0.21875 -0.4375q0.34375 -0.625 0.890625 -1.140625q0.546875 -0.53125 1.203125 -0.890625q0.671875 -0.359375 1.390625 -0.546875q0.734375 -0.1875 1.390625 -0.1875q1.6875 0 2.796875 0.65625q1.125 0.65625 1.6875 1.96875q0.578125 1.296875 0.578125 3.15625l0 8.640625l-4.28125 0l0 -8.296875q0 -0.84375 -0.25 -1.40625q-0.234375 -0.5625 -0.703125 -0.84375q-0.46875 -0.28125 -1.15625 -0.28125q-0.5625 0 -1.03125 0.1875q-0.46875 0.1875 -0.796875 0.515625q-0.328125 0.3125 -0.515625 0.75q-0.1875 0.421875 -0.1875 0.953125l0 8.421875l-4.296875 0l0 -8.3125q0 -0.796875 -0.234375 -1.359375q-0.234375 -0.5625 -0.71875 -0.859375q-0.484375 -0.296875 -1.125 -0.296875q-0.5625 0 -1.03125 0.1875q-0.453125 0.1875 -0.796875 0.515625q-0.328125 0.3125 -0.515625 0.75q-0.1875 0.421875 -0.1875 0.921875l0 8.453125l-4.296875 0zm25.674438 5.859375l0 -20.015625l4.046875 0l0.171875 3.171875l-0.8125 -0.234375q0.1875 -0.890625 0.90625 -1.609375q0.734375 -0.71875 1.828125 -1.15625q1.109375 -0.4375 2.34375 -0.4375q1.8125 0 3.21875 0.953125q1.40625 0.9375 2.21875 2.578125q0.828125 1.640625 0.828125 3.796875q0 2.140625 -0.828125 3.796875q-0.8125 1.640625 -2.234375 2.59375q-1.421875 0.9375 -3.265625 0.9375q-1.203125 0 -2.296875 -0.453125q-1.078125 -0.453125 -1.828125 -1.21875q-0.75 -0.78125 -0.984375 -1.6875l0.984375 -0.359375l0 9.34375l-4.296875 0zm7.390625 -9.21875q0.953125 0 1.671875 -0.46875q0.71875 -0.46875 1.109375 -1.28125q0.40625 -0.828125 0.40625 -1.984375q0 -1.109375 -0.40625 -1.953125q-0.390625 -0.84375 -1.09375 -1.3125q-0.703125 -0.46875 -1.6875 -0.46875q-0.984375 0 -1.71875 0.453125q-0.71875 0.453125 -1.125 1.3125q-0.390625 0.859375 -0.390625 1.96875q0 1.15625 0.390625 1.984375q0.40625 0.8125 1.125 1.28125q0.734375 0.46875 1.71875 0.46875zm15.003906 3.65625q-1.578125 0 -2.6875 -0.671875q-1.09375 -0.6875 -1.703125 -1.96875q-0.59375 -1.28125 -0.59375 -3.0625l0 -8.75l4.296875 0l0 8.15625q0 0.859375 0.265625 1.46875q0.265625 0.609375 0.796875 0.953125q0.53125 0.328125 1.28125 0.328125q0.5625 0 1.015625 -0.1875q0.46875 -0.1875 0.796875 -0.515625q0.34375 -0.34375 0.53125 -0.78125q0.1875 -0.4375 0.1875 -0.96875l0 -8.453125l4.28125 0l0 14.15625l-4.015625 0l-0.1875 -2.90625l0.796875 -0.3125q-0.3125 1.0 -1.0625 1.796875q-0.75 0.78125 -1.796875 1.25q-1.03125 0.46875 -2.203125 0.46875zm13.457031 -0.296875l0 -17.71875l4.265625 0l0 17.71875l-4.265625 0zm-2.5 -10.421875l0 -3.734375l9.515625 0l0 3.734375l-9.515625 0zm18.553955 10.6875q-2.34375 0 -4.078125 -0.9375q-1.734375 -0.953125 -2.703125 -2.59375q-0.953125 -1.640625 -0.953125 -3.75q0 -1.625 0.53125 -2.984375q0.53125 -1.359375 1.484375 -2.359375q0.96875 -1.0 2.28125 -1.546875q1.328125 -0.546875 2.90625 -0.546875q1.484375 0 2.71875 0.546875q1.25 0.53125 2.15625 1.484375q0.90625 0.953125 1.375 2.265625q0.484375 1.3125 0.4375 2.859375l-0.03125 1.140625l-11.28125 0l-0.609375 -2.40625l8.421875 0l-0.453125 0.515625l0 -0.53125q-0.046875 -0.671875 -0.40625 -1.1875q-0.359375 -0.53125 -0.953125 -0.8125q-0.578125 -0.296875 -1.328125 -0.296875q-1.03125 0 -1.765625 0.421875q-0.734375 0.40625 -1.109375 1.1875q-0.375 0.78125 -0.375 1.9375q0 1.171875 0.484375 2.046875q0.5 0.859375 1.4375 1.34375q0.953125 0.46875 2.265625 0.46875q0.90625 0 1.609375 -0.265625q0.703125 -0.265625 1.53125 -0.90625l2.0 2.828125q-0.828125 0.71875 -1.765625 1.171875q-0.921875 0.453125 -1.90625 0.671875q-0.96875 0.234375 -1.921875 0.234375zm8.870483 -0.265625l0 -14.15625l4.046875 0l0.1875 4.609375l-0.796875 -0.875q0.328125 -1.140625 1.0625 -2.046875q0.734375 -0.90625 1.71875 -1.4375q0.984375 -0.546875 2.09375 -0.546875q0.484375 0 0.890625 0.09375q0.421875 0.078125 0.765625 0.171875l-1.171875 4.71875q-0.296875 -0.1875 -0.796875 -0.296875q-0.484375 -0.125 -1.015625 -0.125q-0.578125 0 -1.09375 0.203125q-0.5 0.203125 -0.859375 0.578125q-0.34375 0.359375 -0.546875 0.875q-0.1875 0.5 -0.1875 1.140625l0 7.09375l-4.296875 0zm25.424133 0.265625q-2.078125 0 -3.671875 -0.65625q-1.578125 -0.671875 -2.5 -1.796875l2.578125 -2.234375q0.828125 0.828125 1.859375 1.21875q1.046875 0.375 1.984375 0.375q0.375 0 0.65625 -0.078125q0.296875 -0.078125 0.5 -0.21875q0.203125 -0.15625 0.3125 -0.34375q0.109375 -0.203125 0.109375 -0.46875q0 -0.546875 -0.484375 -0.828125q-0.25 -0.140625 -0.8125 -0.328125q-0.546875 -0.1875 -1.4375 -0.421875q-1.25 -0.328125 -2.171875 -0.765625q-0.90625 -0.4375 -1.5 -1.015625q-0.53125 -0.5625 -0.828125 -1.234375q-0.296875 -0.6875 -0.296875 -1.546875q0 -0.984375 0.46875 -1.78125q0.46875 -0.796875 1.25 -1.375q0.796875 -0.59375 1.8125 -0.90625q1.03125 -0.3125 2.125 -0.3125q1.171875 0 2.234375 0.265625q1.078125 0.265625 1.984375 0.75q0.921875 0.484375 1.640625 1.15625l-2.234375 2.5q-0.484375 -0.453125 -1.078125 -0.8125q-0.59375 -0.359375 -1.234375 -0.5625q-0.640625 -0.21875 -1.171875 -0.21875q-0.40625 0 -0.71875 0.0625q-0.296875 0.0625 -0.515625 0.21875q-0.21875 0.140625 -0.328125 0.34375q-0.09375 0.1875 -0.09375 0.453125q0 0.28125 0.140625 0.515625q0.15625 0.234375 0.421875 0.390625q0.265625 0.171875 0.84375 0.375q0.59375 0.1875 1.609375 0.484375q1.25 0.34375 2.15625 0.78125q0.90625 0.421875 1.4375 1.0q0.421875 0.453125 0.640625 1.0625q0.21875 0.59375 0.21875 1.296875q0 1.359375 -0.765625 2.40625q-0.765625 1.046875 -2.09375 1.65625q-1.328125 0.59375 -3.046875 0.59375zm15.101013 0q-2.21875 0 -3.9375 -0.953125q-1.71875 -0.96875 -2.71875 -2.609375q-1.0 -1.65625 -1.0 -3.796875q0 -2.125 1.0 -3.78125q1.0 -1.65625 2.71875 -2.609375q1.71875 -0.96875 3.9375 -0.96875q2.203125 0 3.921875 0.96875q1.71875 0.953125 2.703125 2.609375q1.0 1.65625 1.0 3.78125q0 2.140625 -1.0 3.796875q-0.984375 1.640625 -2.703125 2.609375q-1.71875 0.953125 -3.921875 0.953125zm0 -3.671875q0.953125 0 1.703125 -0.484375q0.75 -0.484375 1.171875 -1.3125q0.421875 -0.828125 0.390625 -1.890625q0.03125 -1.0625 -0.390625 -1.90625q-0.421875 -0.84375 -1.171875 -1.3125q-0.75 -0.484375 -1.703125 -0.484375q-0.96875 0 -1.734375 0.484375q-0.75 0.46875 -1.1875 1.3125q-0.421875 0.84375 -0.390625 1.90625q-0.03125 1.0625 0.390625 1.890625q0.4375 0.828125 1.1875 1.3125q0.765625 0.484375 1.734375 0.484375zm10.756348 3.40625l0 -14.84375q0 -1.390625 0.59375 -2.5q0.609375 -1.125 1.6875 -1.78125q1.078125 -0.65625 2.53125 -0.65625q1.0 0 1.859375 0.296875q0.859375 0.296875 1.515625 0.828125l-1.21875 3.109375q-0.34375 -0.1875 -0.671875 -0.28125q-0.3125 -0.109375 -0.578125 -0.109375q-0.484375 0 -0.8125 0.15625q-0.3125 0.15625 -0.46875 0.5q-0.140625 0.328125 -0.140625 0.8125l0 14.46875l-2.125 0q-0.71875 0 -1.265625 0q-0.546875 0 -0.90625 0zm-2.046875 -10.234375l0 -3.515625l9.25 0l0 3.515625l-9.25 0zm12.899597 10.234375l0 -17.71875l4.265625 0l0 17.71875l-4.265625 0zm-2.5 -10.421875l0 -3.734375l9.515625 0l0 3.734375l-9.515625 0zm15.031006 10.421875l-4.671875 -14.15625l4.515625 0l2.609375 9.203125l-0.5625 -0.109375l2.9375 -7.140625l2.5 0l3.09375 7.171875l-0.609375 0.046875l2.609375 -9.171875l4.5 0l-4.8125 14.15625l-3.15625 0l-3.0625 -7.59375l0.328125 0.046875l-3.078125 7.546875l-3.140625 0zm23.971863 0.234375q-1.796875 0 -3.203125 -0.9375q-1.390625 -0.953125 -2.21875 -2.609375q-0.828125 -1.671875 -0.828125 -3.78125q0 -2.15625 0.828125 -3.8125q0.828125 -1.65625 2.265625 -2.59375q1.4375 -0.953125 3.28125 -0.953125q1.015625 0 1.84375 0.296875q0.84375 0.296875 1.484375 0.8125q0.640625 0.515625 1.09375 1.203125q0.453125 0.671875 0.671875 1.453125l-0.875 -0.109375l0 -3.359375l4.234375 0l0 14.15625l-4.328125 0l0 -3.40625l0.96875 -0.03125q-0.21875 0.75 -0.703125 1.421875q-0.46875 0.65625 -1.171875 1.171875q-0.6875 0.5 -1.546875 0.796875q-0.84375 0.28125 -1.796875 0.28125zm1.171875 -3.59375q0.984375 0 1.703125 -0.453125q0.71875 -0.453125 1.109375 -1.28125q0.40625 -0.84375 0.40625 -2.0q0 -1.140625 -0.40625 -1.984375q-0.390625 -0.84375 -1.109375 -1.296875q-0.71875 -0.46875 -1.703125 -0.46875q-0.96875 0 -1.671875 0.46875q-0.703125 0.453125 -1.109375 1.296875q-0.390625 0.84375 -0.390625 1.984375q0 1.15625 0.390625 2.0q0.40625 0.828125 1.109375 1.28125q0.703125 0.453125 1.671875 0.453125zm11.160156 3.359375l0 -14.15625l4.046875 0l0.1875 4.609375l-0.796875 -0.875q0.328125 -1.140625 1.0625 -2.046875q0.734375 -0.90625 1.71875 -1.4375q0.984375 -0.546875 2.09375 -0.546875q0.484375 0 0.890625 0.09375q0.421875 0.078125 0.765625 0.171875l-1.171875 4.71875q-0.296875 -0.1875 -0.796875 -0.296875q-0.484375 -0.125 -1.015625 -0.125q-0.578125 0 -1.09375 0.203125q-0.5 0.203125 -0.859375 0.578125q-0.34375 0.359375 -0.546875 0.875q-0.1875 0.5 -0.1875 1.140625l0 7.09375l-4.296875 0zm18.29187 0.265625q-2.34375 0 -4.078125 -0.9375q-1.734375 -0.953125 -2.703125 -2.59375q-0.953125 -1.640625 -0.953125 -3.75q0 -1.625 0.53125 -2.984375q0.53125 -1.359375 1.484375 -2.359375q0.96875 -1.0 2.28125 -1.546875q1.328125 -0.546875 2.90625 -0.546875q1.484375 0 2.71875 0.546875q1.25 0.53125 2.15625 1.484375q0.90625 0.953125 1.375 2.265625q0.484375 1.3125 0.4375 2.859375l-0.03125 1.140625l-11.28125 0l-0.609375 -2.40625l8.421875 0l-0.453125 0.515625l0 -0.53125q-0.046875 -0.671875 -0.40625 -1.1875q-0.359375 -0.53125 -0.953125 -0.8125q-0.578125 -0.296875 -1.328125 -0.296875q-1.03125 0 -1.765625 0.421875q-0.734375 0.40625 -1.109375 1.1875q-0.375 0.78125 -0.375 1.9375q0 1.171875 0.484375 2.046875q0.5 0.859375 1.4375 1.34375q0.953125 0.46875 2.265625 0.46875q0.90625 0 1.609375 -0.265625q0.703125 -0.265625 1.53125 -0.90625l2.0 2.828125q-0.828125 0.71875 -1.765625 1.171875q-0.921875 0.453125 -1.90625 0.671875q-0.96875 0.234375 -1.921875 0.234375z" fill-rule="nonzero"/></g></svg>