<svg version="1.1" viewBox="0.0 0.0 960.0 540.0" fill="none" stroke="none" stroke-linecap="square" stroke-miterlimit="10" xmlns:xlink="http://www.w3.org/1999/xlink" xmlns="http://www.w3.org/2000/svg"><clipPath id="g2ece659a830_0_204.0"><path d="m0 0l960.0 0l0 540.0l-960.0 0l0 -540.0z" clip-rule="nonzero"/></clipPath><g clip-path="url(#g2ece659a830_0_204.0)"><path fill="#ffffff" d="m0 0l960.0 0l0 540.0l-960.0 0z" fill-rule="evenodd"/><path fill="#000000" fill-opacity="0.0" d="m248.20473 164.96063l599.937 0l0 210.07874l-599.937 0z" fill-rule="evenodd"/><path fill="#3b5a64" d="m263.97034 331.36063l0 -121.328125l52.703125 0q12.125 0 20.53125 3.5625q8.40625 3.546875 12.734375 10.3125q4.34375 6.75 4.34375 16.109375q0 10.40625 -5.203125 17.34375q-5.203125 6.921875 -14.90625 9.515625l-0.171875 -3.453125q8.140625 1.90625 14.125 6.234375q5.984375 4.328125 9.265625 10.75q3.296875 6.40625 3.296875 14.546875q0 9.015625 -2.953125 15.875q-2.9375 6.84375 -8.65625 11.34375q-5.71875 4.5 -13.4375 6.84375q-7.703125 2.34375 -17.234375 2.34375l-54.4375 0zm24.96875 -22.53125l28.421875 0q5.546875 0 9.4375 -1.640625q3.90625 -1.65625 5.984375 -5.125q2.09375 -3.46875 2.09375 -8.140625q0 -4.515625 -2.265625 -7.625q-2.25 -3.125 -6.328125 -4.765625q-4.0625 -1.65625 -9.78125 -1.65625l-27.5625 0l0 28.953125zm0 -49.578125l24.609375 0q4.6875 0 8.140625 -1.734375q3.46875 -1.734375 5.28125 -4.671875q1.828125 -2.953125 1.828125 -6.9375q0 -6.40625 -4.15625 -9.875q-4.15625 -3.46875 -12.65625 -3.46875l-23.046875 0l0 26.6875zm123.414764 73.84375q-10.0625 0 -17.265625 -4.421875q-7.1875 -4.421875 -11.09375 -12.65625q-3.890625 -8.234375 -3.890625 -19.84375l0 -56.5l24.609375 0l0 52.515625q0 6.234375 2.078125 10.828125q2.09375 4.59375 5.90625 7.03125q3.8125 2.421875 9.359375 2.421875q3.984375 0 7.359375 -1.296875q3.390625 -1.3125 5.890625 -3.734375q2.515625 -2.421875 3.90625 -5.71875q1.390625 -3.296875 1.390625 -7.109375l0 -54.9375l24.609375 0l0 91.6875l-23.40625 0l-0.859375 -18.890625l4.5 -2.078125q-2.078125 6.40625 -6.9375 11.609375q-4.84375 5.203125 -11.609375 8.15625q-6.75 2.9375 -14.546875 2.9375zm77.64987 -1.734375l0 -91.6875l23.734375 0l0.875 29.46875l-4.15625 -6.078125q2.078125 -7.09375 6.75 -12.90625q4.6875 -5.8125 11.015625 -9.09375q6.328125 -3.296875 13.25 -3.296875q2.953125 0 5.71875 0.515625q2.78125 0.515625 4.6875 1.21875l-6.59375 27.03125q-1.90625 -1.03125 -4.9375 -1.8125q-3.03125 -0.78125 -6.15625 -0.78125q-4.15625 0 -7.71875 1.46875q-3.546875 1.46875 -6.15625 4.15625q-2.59375 2.6875 -4.0625 6.328125q-1.46875 3.640625 -1.46875 7.984375l0 47.484375l-24.78125 0zm76.0896 0l0 -128.26562l24.609375 0l0 128.26562l-24.609375 0zm82.152466 1.734375q-11.4375 0 -20.625 -6.234375q-9.1875 -6.25 -14.5625 -16.984375q-5.375 -10.75 -5.375 -24.625q0 -13.859375 5.453125 -24.609375q5.46875 -10.75 14.828125 -16.8125q9.359375 -6.0625 21.328125 -6.0625q6.75 0 12.375 2.0q5.640625 1.984375 9.890625 5.453125q4.25 3.46875 7.1875 7.96875q2.953125 4.5 4.171875 9.703125l-5.203125 -0.859375l0 -22.359375l24.4375 0l0 91.6875l-24.78125 0l0 -22.015625l5.546875 -0.515625q-1.390625 4.859375 -4.515625 9.1875q-3.109375 4.328125 -7.703125 7.71875q-4.59375 3.375 -10.328125 5.375q-5.71875 1.984375 -12.125 1.984375zm6.765625 -21.328125q6.921875 0 12.125 -3.28125q5.203125 -3.296875 8.0625 -9.265625q2.859375 -5.984375 2.859375 -13.96875q0 -7.796875 -2.859375 -13.6875q-2.859375 -5.890625 -8.0625 -9.265625q-5.203125 -3.390625 -12.125 -3.390625q-6.765625 0 -11.875 3.390625q-5.109375 3.375 -8.0625 9.265625q-2.953125 5.890625 -2.953125 13.6875q0 7.984375 2.953125 13.96875q2.953125 5.96875 8.0625 9.265625q5.109375 3.28125 11.875 3.28125z" fill-rule="nonzero"/><path fill="#3b5a64" d="m140.18767 209.12651l40.503937 0l0 40.503937l-40.503937 0z" fill-rule="evenodd"/><path fill="#3b5a64" d="m180.68317 249.62158l40.503937 0l0 40.503937l-40.503937 0z" fill-rule="evenodd"/><path fill="#3b5a64" d="m140.18767 290.36798l40.503937 0l0 40.503937l-40.503937 0z" fill-rule="evenodd"/><path fill="#3b5a64" d="m738.805 290.36877l81.007935 0l0 40.503937l-81.007935 0z" fill-rule="evenodd"/></g></svg>