<svg width="600" height="600" viewBox="60 60 500 500" xmlns="http://www.w3.org/2000/svg">
  <defs>
    <marker id="ah" viewBox="0 0 6 6" refX="5" refY="3" markerWidth="6" markerHeight="6" orient="auto-start-reverse">
      <path d="M2.5 1.5L5 3L2.5 4.5" fill="none" stroke="#3d7a8a" stroke-width="1.2" stroke-linecap="round" stroke-linejoin="round"/>
    </marker>
  </defs>

  <g stroke="#3d7a8a" fill="none" stroke-linecap="round" stroke-linejoin="round" stroke-width="9" marker-end="url(#ah)">

    <!-- Row 1 -->
    <line x1="-30" y1="0" x2="30" y2="0" transform="translate(130,130) rotate(-5)"/>
    <line x1="-30" y1="0" x2="30" y2="0" transform="translate(250,130) rotate(10)"/>
    <line x1="-30" y1="0" x2="30" y2="0" transform="translate(370,130) rotate(30)"/>
    <line x1="-30" y1="0" x2="30" y2="0" transform="translate(490,130) rotate(55)"/>

    <!-- Row 2 -->
    <line x1="-30" y1="0" x2="30" y2="0" transform="translate(130,250) rotate(20)"/>
    <line x1="-30" y1="0" x2="30" y2="0" transform="translate(250,250) rotate(50)"/>
    <line x1="-30" y1="0" x2="30" y2="0" transform="translate(370,250) rotate(90)"/>
    <line x1="-30" y1="0" x2="30" y2="0" transform="translate(490,250) rotate(120)"/>

    <!-- Row 3 -->
    <line x1="-30" y1="0" x2="30" y2="0" transform="translate(130,370) rotate(140)"/>
    <line x1="-30" y1="0" x2="30" y2="0" transform="translate(250,370) rotate(165)"/>
    <line x1="-30" y1="0" x2="30" y2="0" transform="translate(370,370) rotate(190)"/>
    <line x1="-30" y1="0" x2="30" y2="0" transform="translate(490,370) rotate(220)"/>

    <!-- Row 4 -->
    <line x1="-30" y1="0" x2="30" y2="0" transform="translate(130,490) rotate(250)"/>
    <line x1="-30" y1="0" x2="30" y2="0" transform="translate(250,490) rotate(290)"/>
    <line x1="-30" y1="0" x2="30" y2="0" transform="translate(370,490) rotate(330)"/>
    <line x1="-30" y1="0" x2="30" y2="0" transform="translate(490,490) rotate(355)"/>

  </g>
</svg>
